<svg width="55" height="83" viewBox="0 0 55 83" fill="none" xmlns="http://www.w3.org/2000/svg">
<path d="M40.75 13.8333V14.3328L41.2494 14.3333C44.7615 14.3373 48.1292 15.7427 50.6136 18.2421C53.098 20.7416 54.4961 24.1311 54.5 27.6672V55.3328C54.4961 58.8689 53.098 62.2584 50.6136 64.7579C48.1292 67.2573 44.7615 68.6627 41.2494 68.6667L40.75 68.6672V69.1667V80.2333C40.75 80.8355 40.5122 81.4123 40.0899 81.8372C39.6677 82.2619 39.0958 82.5 38.5 82.5H16.5C15.9042 82.5 15.3323 82.2619 14.9101 81.8372C14.4878 81.4123 14.25 80.8355 14.25 80.2333V69.1667V68.6672L13.7506 68.6667C10.2385 68.6627 6.87077 67.2573 4.38642 64.7579C1.90204 62.2585 0.504017 58.8691 0.5 55.333V27.667C0.504017 24.1309 1.90204 20.7415 4.38642 18.2421C6.87077 15.7427 10.2385 14.3373 13.7506 14.3333L14.25 14.3328V13.8333V2.76667C14.25 2.16454 14.4878 1.58767 14.9101 1.16282C15.3323 0.73807 15.9042 0.5 16.5 0.5H38.5C39.0958 0.5 39.6677 0.73807 40.0899 1.16282C40.5122 1.58767 40.75 2.16454 40.75 2.76667V13.8333ZM51.375 52.5672V52.5667V30.4333V30.4328C51.3712 27.0005 50.0143 23.7093 47.601 21.2814C45.1877 18.8534 41.9149 17.4871 38.5006 17.4833H38.5H16.5H16.4994C13.0851 17.4871 9.81232 18.8534 7.39895 21.2814C4.98568 23.7093 3.62878 27.0005 3.625 30.4328V30.4333L3.625 52.5667L3.625 52.5672C3.62878 55.9995 4.98568 59.2907 7.39895 61.7186C9.81232 64.1466 13.0851 65.5129 16.4994 65.5167H16.5H38.5H38.5006C41.9149 65.5129 45.1877 64.1466 47.601 61.7186C50.0143 59.2907 51.3712 55.9995 51.375 52.5672Z" stroke="#AAAAAA"/>
<path d="M16.5667 21.5H38.4333C43.4407 21.5 47.5 25.5593 47.5 30.5667V52.4333C47.5 57.4407 43.4407 61.5 38.4333 61.5H16.5667C11.5593 61.5 7.5 57.4407 7.5 52.4333V30.5667C7.5 25.5593 11.5593 21.5 16.5667 21.5Z" stroke="#AAAAAA"/>
</svg>
