<svg width="64" height="60" viewBox="0 0 64 60" fill="none" xmlns="http://www.w3.org/2000/svg">
<mask id="path-1-inside-1_2_147" fill="white">
<path d="M13.4343 2.27033e-05C13.3449 -0.00079565 13.2568 0.0205214 13.1777 0.0620534C13.0987 0.103585 13.0313 0.164027 12.9816 0.237933C12.9319 0.311838 12.9015 0.396885 12.893 0.48541C12.8846 0.573935 12.8984 0.663157 12.9333 0.745036L13.2431 1.47263L18.7245 14.1888C18.7617 14.2753 18.8212 14.3505 18.897 14.4068C18.9727 14.4632 19.062 14.4987 19.1559 14.5099C19.2498 14.521 19.345 14.5073 19.4319 14.4703C19.5189 14.4332 19.5944 14.374 19.6511 14.2986L29.7682 0.857592C29.8282 0.777961 29.8647 0.683273 29.8737 0.584137C29.8827 0.485001 29.8638 0.385335 29.819 0.296306C29.7743 0.207276 29.7055 0.132401 29.6204 0.080071C29.5353 0.0277408 29.4372 2.27033e-05 29.3372 2.27033e-05H13.4343ZM53.5969 3.49194L48.0374 16.405C48.0024 16.4866 47.9883 16.5754 47.9963 16.6637C48.0043 16.752 48.0343 16.8369 48.0834 16.9109C48.1325 16.9848 48.1993 17.0455 48.2777 17.0875C48.3562 17.1295 48.4439 17.1514 48.533 17.1514H62.1355C62.2316 17.1514 62.3259 17.1259 62.4087 17.0775C62.4915 17.0291 62.5598 16.9595 62.6065 16.876C62.6532 16.7925 62.6766 16.6981 62.6743 16.6026C62.672 16.5071 62.6441 16.4139 62.5935 16.3327L54.5491 3.42092C54.4971 3.33779 54.4232 3.27041 54.3355 3.2261C54.2478 3.18178 54.1495 3.16222 54.0514 3.16954C53.9533 3.17686 53.859 3.21078 53.7789 3.26761C53.6988 3.32445 53.6358 3.40203 53.5969 3.49194ZM8.4889 3.42628L0.447218 16.3327C0.396552 16.4139 0.368624 16.5071 0.366325 16.6026C0.364027 16.6981 0.387443 16.7925 0.434147 16.876C0.48085 16.9595 0.549144 17.0291 0.631954 17.0775C0.714764 17.1259 0.809077 17.1514 0.905127 17.1514H14.5077C14.5968 17.1513 14.6846 17.1292 14.763 17.087C14.8415 17.0449 14.9082 16.984 14.9572 16.9099C15.0061 16.8358 15.0359 16.7508 15.0437 16.6624C15.0515 16.5741 15.0372 16.4852 15.002 16.4037L9.43165 3.49729C9.39181 3.40962 9.32899 3.33424 9.24977 3.27905C9.17056 3.22386 9.07787 3.19091 8.98144 3.18364C8.88501 3.17638 8.78839 3.19507 8.70173 3.23777C8.61506 3.28046 8.54155 3.34557 8.4889 3.42628ZM50.0064 2.27033e-05H33.1109C33.0621 -0.00029105 33.0143 0.0129721 32.9727 0.0383125C32.9311 0.0636528 32.8975 0.10006 32.8757 0.143416C32.8538 0.186772 32.8446 0.235348 32.849 0.283651C32.8535 0.331954 32.8714 0.378057 32.9008 0.416748L43.6643 14.6819C43.6918 14.7185 43.7285 14.7473 43.7707 14.7653C43.813 14.7834 43.8592 14.79 43.9048 14.7845C43.9505 14.7791 43.9938 14.7618 44.0306 14.7344C44.0673 14.7069 44.0962 14.6703 44.1142 14.6283L49.7814 1.47397L50.2394 0.35645C50.2555 0.318091 50.262 0.276413 50.2584 0.234984C50.2549 0.193556 50.2412 0.153611 50.2187 0.118573C50.1962 0.0835345 50.1655 0.0544463 50.1292 0.0337995C50.0929 0.0131528 50.0522 0.00156289 50.0104 2.27033e-05H50.0064ZM29.2294 55.742L17.1851 21.7756C17.1497 21.6769 17.0845 21.5916 16.9984 21.5314C16.9123 21.4712 16.8096 21.439 16.7043 21.4392H0.502437C0.408582 21.439 0.316539 21.4649 0.236795 21.5142C0.157052 21.5634 0.0928151 21.634 0.0514041 21.7178C0.00999321 21.8016 -0.00692639 21.8953 0.00257311 21.9881C0.0120726 22.081 0.0476092 22.1694 0.105134 22.2432L29.1958 59.7364C29.2943 59.8633 29.4347 59.9513 29.5923 59.9849C29.7498 60.0185 29.9143 59.9955 30.0564 59.92C30.1993 59.8451 30.3104 59.7217 30.3695 59.5721C30.4286 59.4226 30.4317 59.2569 30.3783 59.1053L29.2294 55.742ZM62.5355 21.4392H46.3337C46.229 21.4392 46.1268 21.4716 46.0414 21.5318C45.956 21.5921 45.8915 21.6773 45.8569 21.7756L32.6314 59.0476C32.5759 59.2041 32.5782 59.3752 32.6379 59.5301C32.6976 59.6851 32.8109 59.8138 32.9574 59.8932C33.1039 59.9721 33.2738 59.9967 33.4368 59.9626C33.5999 59.9285 33.7454 59.8379 33.8476 59.7069L62.9328 22.2432C62.9904 22.1694 63.0259 22.081 63.0354 21.9881C63.0449 21.8953 63.028 21.8016 62.9866 21.7178C62.9452 21.634 62.8809 21.5634 62.8012 21.5142C62.7214 21.4649 62.6294 21.439 62.5355 21.4392ZM31.95 6.28841L39.492 16.2938C39.552 16.3735 39.5886 16.4681 39.5975 16.5673C39.6065 16.6664 39.5876 16.7661 39.5428 16.8551C39.4981 16.9441 39.4293 17.019 39.3442 17.0713C39.2591 17.1237 39.1611 17.1514 39.061 17.1514H23.977C23.8769 17.1514 23.7789 17.1237 23.6938 17.0713C23.6086 17.019 23.5399 16.9441 23.4951 16.8551C23.4504 16.7661 23.4314 16.6664 23.4404 16.5673C23.4494 16.4681 23.486 16.3735 23.546 16.2938L31.088 6.28841C31.1382 6.22185 31.2033 6.16782 31.2781 6.13061C31.3529 6.09339 31.4354 6.07402 31.519 6.07402C31.6026 6.07402 31.6851 6.09339 31.7599 6.13061C31.8347 6.16782 31.8998 6.22185 31.95 6.28841ZM31.0072 47.8684L21.8894 22.1534C21.8608 22.0726 21.8521 21.9862 21.8639 21.9013C21.8758 21.8165 21.908 21.7357 21.9577 21.6657C22.0074 21.5958 22.0733 21.5387 22.1498 21.4993C22.2262 21.4599 22.3111 21.4393 22.3972 21.4392H40.6408C40.7269 21.4393 40.8118 21.4599 40.8882 21.4993C40.9647 21.5387 41.0306 21.5958 41.0803 21.6657C41.13 21.7357 41.1622 21.8165 41.174 21.9013C41.1859 21.9862 41.1772 22.0726 41.1485 22.1534L32.0267 47.8684C31.9895 47.9728 31.9207 48.0632 31.8298 48.1271C31.7389 48.191 31.6303 48.2253 31.519 48.2253C31.4077 48.2253 31.2991 48.191 31.2082 48.1271C31.1172 48.0632 31.0485 47.9728 31.0112 47.8684H31.0072Z"/>
</mask>
<path d="M13.4343 2.27033e-05C13.3449 -0.00079565 13.2568 0.0205214 13.1777 0.0620534C13.0987 0.103585 13.0313 0.164027 12.9816 0.237933C12.9319 0.311838 12.9015 0.396885 12.893 0.48541C12.8846 0.573935 12.8984 0.663157 12.9333 0.745036L13.2431 1.47263L18.7245 14.1888C18.7617 14.2753 18.8212 14.3505 18.897 14.4068C18.9727 14.4632 19.062 14.4987 19.1559 14.5099C19.2498 14.521 19.345 14.5073 19.4319 14.4703C19.5189 14.4332 19.5944 14.374 19.6511 14.2986L29.7682 0.857592C29.8282 0.777961 29.8647 0.683273 29.8737 0.584137C29.8827 0.485001 29.8638 0.385335 29.819 0.296306C29.7743 0.207276 29.7055 0.132401 29.6204 0.080071C29.5353 0.0277408 29.4372 2.27033e-05 29.3372 2.27033e-05H13.4343ZM53.5969 3.49194L48.0374 16.405C48.0024 16.4866 47.9883 16.5754 47.9963 16.6637C48.0043 16.752 48.0343 16.8369 48.0834 16.9109C48.1325 16.9848 48.1993 17.0455 48.2777 17.0875C48.3562 17.1295 48.4439 17.1514 48.533 17.1514H62.1355C62.2316 17.1514 62.3259 17.1259 62.4087 17.0775C62.4915 17.0291 62.5598 16.9595 62.6065 16.876C62.6532 16.7925 62.6766 16.6981 62.6743 16.6026C62.672 16.5071 62.6441 16.4139 62.5935 16.3327L54.5491 3.42092C54.4971 3.33779 54.4232 3.27041 54.3355 3.2261C54.2478 3.18178 54.1495 3.16222 54.0514 3.16954C53.9533 3.17686 53.859 3.21078 53.7789 3.26761C53.6988 3.32445 53.6358 3.40203 53.5969 3.49194ZM8.4889 3.42628L0.447218 16.3327C0.396552 16.4139 0.368624 16.5071 0.366325 16.6026C0.364027 16.6981 0.387443 16.7925 0.434147 16.876C0.48085 16.9595 0.549144 17.0291 0.631954 17.0775C0.714764 17.1259 0.809077 17.1514 0.905127 17.1514H14.5077C14.5968 17.1513 14.6846 17.1292 14.763 17.087C14.8415 17.0449 14.9082 16.984 14.9572 16.9099C15.0061 16.8358 15.0359 16.7508 15.0437 16.6624C15.0515 16.5741 15.0372 16.4852 15.002 16.4037L9.43165 3.49729C9.39181 3.40962 9.32899 3.33424 9.24977 3.27905C9.17056 3.22386 9.07787 3.19091 8.98144 3.18364C8.88501 3.17638 8.78839 3.19507 8.70173 3.23777C8.61506 3.28046 8.54155 3.34557 8.4889 3.42628ZM50.0064 2.27033e-05H33.1109C33.0621 -0.00029105 33.0143 0.0129721 32.9727 0.0383125C32.9311 0.0636528 32.8975 0.10006 32.8757 0.143416C32.8538 0.186772 32.8446 0.235348 32.849 0.283651C32.8535 0.331954 32.8714 0.378057 32.9008 0.416748L43.6643 14.6819C43.6918 14.7185 43.7285 14.7473 43.7707 14.7653C43.813 14.7834 43.8592 14.79 43.9048 14.7845C43.9505 14.7791 43.9938 14.7618 44.0306 14.7344C44.0673 14.7069 44.0962 14.6703 44.1142 14.6283L49.7814 1.47397L50.2394 0.35645C50.2555 0.318091 50.262 0.276413 50.2584 0.234984C50.2549 0.193556 50.2412 0.153611 50.2187 0.118573C50.1962 0.0835345 50.1655 0.0544463 50.1292 0.0337995C50.0929 0.0131528 50.0522 0.00156289 50.0104 2.27033e-05H50.0064ZM29.2294 55.742L17.1851 21.7756C17.1497 21.6769 17.0845 21.5916 16.9984 21.5314C16.9123 21.4712 16.8096 21.439 16.7043 21.4392H0.502437C0.408582 21.439 0.316539 21.4649 0.236795 21.5142C0.157052 21.5634 0.0928151 21.634 0.0514041 21.7178C0.00999321 21.8016 -0.00692639 21.8953 0.00257311 21.9881C0.0120726 22.081 0.0476092 22.1694 0.105134 22.2432L29.1958 59.7364C29.2943 59.8633 29.4347 59.9513 29.5923 59.9849C29.7498 60.0185 29.9143 59.9955 30.0564 59.92C30.1993 59.8451 30.3104 59.7217 30.3695 59.5721C30.4286 59.4226 30.4317 59.2569 30.3783 59.1053L29.2294 55.742ZM62.5355 21.4392H46.3337C46.229 21.4392 46.1268 21.4716 46.0414 21.5318C45.956 21.5921 45.8915 21.6773 45.8569 21.7756L32.6314 59.0476C32.5759 59.2041 32.5782 59.3752 32.6379 59.5301C32.6976 59.6851 32.8109 59.8138 32.9574 59.8932C33.1039 59.9721 33.2738 59.9967 33.4368 59.9626C33.5999 59.9285 33.7454 59.8379 33.8476 59.7069L62.9328 22.2432C62.9904 22.1694 63.0259 22.081 63.0354 21.9881C63.0449 21.8953 63.028 21.8016 62.9866 21.7178C62.9452 21.634 62.8809 21.5634 62.8012 21.5142C62.7214 21.4649 62.6294 21.439 62.5355 21.4392ZM31.95 6.28841L39.492 16.2938C39.552 16.3735 39.5886 16.4681 39.5975 16.5673C39.6065 16.6664 39.5876 16.7661 39.5428 16.8551C39.4981 16.9441 39.4293 17.019 39.3442 17.0713C39.2591 17.1237 39.1611 17.1514 39.061 17.1514H23.977C23.8769 17.1514 23.7789 17.1237 23.6938 17.0713C23.6086 17.019 23.5399 16.9441 23.4951 16.8551C23.4504 16.7661 23.4314 16.6664 23.4404 16.5673C23.4494 16.4681 23.486 16.3735 23.546 16.2938L31.088 6.28841C31.1382 6.22185 31.2033 6.16782 31.2781 6.13061C31.3529 6.09339 31.4354 6.07402 31.519 6.07402C31.6026 6.07402 31.6851 6.09339 31.7599 6.13061C31.8347 6.16782 31.8998 6.22185 31.95 6.28841ZM31.0072 47.8684L21.8894 22.1534C21.8608 22.0726 21.8521 21.9862 21.8639 21.9013C21.8758 21.8165 21.908 21.7357 21.9577 21.6657C22.0074 21.5958 22.0733 21.5387 22.1498 21.4993C22.2262 21.4599 22.3111 21.4393 22.3972 21.4392H40.6408C40.7269 21.4393 40.8118 21.4599 40.8882 21.4993C40.9647 21.5387 41.0306 21.5958 41.0803 21.6657C41.13 21.7357 41.1622 21.8165 41.174 21.9013C41.1859 21.9862 41.1772 22.0726 41.1485 22.1534L32.0267 47.8684C31.9895 47.9728 31.9207 48.0632 31.8298 48.1271C31.7389 48.191 31.6303 48.2253 31.519 48.2253C31.4077 48.2253 31.2991 48.191 31.2082 48.1271C31.1172 48.0632 31.0485 47.9728 31.0112 47.8684H31.0072Z" stroke="#AAAAAA" stroke-width="2" mask="url(#path-1-inside-1_2_147)"/>
</svg>
