<svg width="67" height="83" viewBox="0 0 67 83" fill="none" xmlns="http://www.w3.org/2000/svg">
<path d="M14.1282 29.9998L14.1297 30.0004L18.6552 31.9169C18.9113 32.0252 19.1386 32.1918 19.319 32.4033C19.4995 32.6148 19.6281 32.8654 19.6948 33.1353L22.0876 42.7839C22.0877 42.7841 22.0877 42.7844 22.0878 42.7846C22.2018 43.2392 22.1328 43.7204 21.8957 44.1247L21.8958 44.1245L21.4642 43.8721L21.8953 44.1253L19.2977 48.5673C19.2974 48.5679 19.2971 48.5684 19.2967 48.569C19.1402 48.8395 18.9154 49.0643 18.6448 49.2209C18.3737 49.3778 18.0662 49.4608 17.7529 49.4615H17.7518H10.4691H10.4688V48.9615C10.2485 48.9617 10.0318 48.9053 9.83955 48.7979C9.64725 48.6905 9.4857 48.5356 9.37034 48.3479L14.1282 29.9998ZM14.1282 29.9998C13.8224 29.8714 13.4869 29.8306 13.1593 29.882C12.8316 29.9333 12.5246 30.0747 12.2727 30.2904L12.2718 30.2912L5.56699 36.0603L5.56686 36.0604C5.33745 36.2579 5.16194 36.5104 5.05676 36.7943C4.95173 37.0778 4.92027 37.3832 4.96528 37.6821C5.53052 41.5586 6.88491 45.278 8.94472 48.6103L14.1282 29.9998ZM36.2017 19.2256L35.7501 19.4403C35.8619 19.6754 36.0236 19.8832 36.224 20.0493C36.2244 20.0497 36.2248 20.05 36.2253 20.0504L45.2837 27.6484C45.536 27.8603 45.8421 27.9983 46.1679 28.0472C46.4938 28.0961 46.8268 28.054 47.1302 27.9257L47.1305 27.9256L51.8945 25.9075L51.8977 25.9062C52.1257 25.8077 52.3308 25.6629 52.4997 25.4808C52.6683 25.2992 52.7973 25.0845 52.8785 24.8504C52.8787 24.8499 52.8789 24.8493 52.8791 24.8487L55.7879 16.578C55.788 16.5778 55.788 16.5775 55.7881 16.5773C55.8936 16.2808 55.9191 15.9617 55.8618 15.6522C55.8046 15.3429 55.6668 15.0542 55.4624 14.8152C55.4621 14.8148 55.4618 14.8145 55.4615 14.8142L36.2017 19.2256ZM36.2017 19.2256L35.7501 19.4403C35.6381 19.2047 35.579 18.9475 35.5769 18.6867L35.5769 18.6827L35.5769 13.2744V13.2741C35.5771 12.9799 35.6498 12.6904 35.7886 12.4311C35.9275 12.1717 36.1281 11.9507 36.3728 11.7874L36.373 11.7873L43.2708 7.19089C43.5207 7.0241 43.8086 6.92294 44.1079 6.89676C44.4069 6.8706 44.7077 6.92015 44.9826 7.04082C44.9828 7.04091 44.983 7.04101 44.9833 7.0411L44.7821 7.49885L36.2017 19.2256ZM30.7705 12.667L31.2114 12.4311C31.0725 12.1717 30.8719 11.9507 30.6272 11.7874L30.6269 11.7872L23.7284 7.19142C23.7281 7.19125 23.7279 7.19108 23.7276 7.19091C23.4802 7.02529 23.1954 6.92404 22.899 6.89635C22.6023 6.86863 22.3033 6.91549 22.0293 7.03268L22.0261 7.03407C17.9844 8.79613 14.3977 11.4568 11.539 14.8136C11.333 15.0518 11.1935 15.3403 11.1348 15.6498L11.626 15.743L11.1348 15.6498C11.0759 15.9598 11.1001 16.28 11.205 16.5777C11.205 16.5777 11.205 16.5778 11.2051 16.5778C11.2051 16.5779 11.2051 16.5779 11.2051 16.578L14.1152 24.8523L30.7705 12.667ZM30.7705 12.667L31.2114 12.4311C31.3502 12.6904 31.4229 12.9799 31.4231 13.2741V13.2744V18.6827C31.4231 18.944 31.3658 19.2021 31.2554 19.4388C31.1449 19.6756 30.9839 19.8853 30.7837 20.0531L21.7228 27.6533C21.7227 27.6533 21.7227 27.6533 21.7227 27.6534C21.4703 27.8651 21.1643 28.0031 20.8385 28.052C20.5127 28.1009 20.1797 28.0589 19.8762 27.9305L19.8758 27.9303L15.1055 25.9075C15.1054 25.9075 15.1054 25.9075 15.1053 25.9074C14.8759 25.8103 14.6693 25.6662 14.4988 25.4846C14.3284 25.303 14.1978 25.0878 14.1153 24.8528L30.7705 12.667ZM26.699 45.8846H26.7001H40.2999H40.301C40.6142 45.8853 40.9218 45.9683 41.1929 46.1252C41.4636 46.2819 41.6885 46.5069 41.8451 46.7777C41.8453 46.7781 41.8456 46.7785 41.8458 46.7789L44.2891 50.9637C44.4265 51.1983 44.5086 51.4613 44.5291 51.7324C44.5497 52.0033 44.5082 52.2754 44.4079 52.5278C44.4078 52.5281 44.4077 52.5283 44.4076 52.5286L41.253 60.5269L41.253 60.527C41.1459 60.7985 40.974 61.0396 40.7522 61.2294C40.5308 61.4189 40.2664 61.5514 39.9821 61.6154C35.7221 62.593 31.296 62.5929 27.036 61.6152M26.699 45.8846L27.1479 61.1278M26.699 45.8846C26.3858 45.8853 26.0782 45.9683 25.8071 46.1252C25.5364 46.2819 25.3115 46.5069 25.1549 46.7777C25.1547 46.7781 25.1544 46.7785 25.1542 46.7788L22.7122 50.9643M26.699 45.8846L22.7121 50.9644M27.036 61.6152L27.1479 61.1278M27.036 61.6152C27.0361 61.6152 27.0361 61.6152 27.0362 61.6152L27.1479 61.1278M27.036 61.6152C26.7534 61.5504 26.4908 61.4178 26.2708 61.229C26.0508 61.0402 25.8801 60.8007 25.7732 60.5312L26.2379 60.3467M27.1479 61.1278C26.9442 61.0812 26.755 60.9857 26.5965 60.8496C26.438 60.7135 26.3149 60.5409 26.2379 60.3467M26.2379 60.3467L25.7731 60.531M26.2379 60.3467L25.7731 60.531M25.7731 60.531L22.5959 52.5292L23.0602 52.3438L22.5955 52.5283L25.7731 60.531ZM22.7121 50.9644L23.144 51.2163L22.7122 50.9643M22.7121 50.9644C22.7121 50.9644 22.7121 50.9643 22.7122 50.9643M22.7121 50.9644L22.7122 50.9643M56.5312 49.4615H56.5315C56.8404 49.4614 57.1441 49.3812 57.4129 49.2288C57.6805 49.077 57.9045 48.8588 58.0631 48.5951C60.1221 45.2634 61.4761 41.5448 62.0412 37.6692C62.0862 37.3703 62.0547 37.0649 61.9497 36.7814C61.8445 36.4976 61.669 36.245 61.4396 36.0475L61.4395 36.0474L54.7346 30.2783L54.7346 30.2783C54.4818 30.0608 54.1732 29.9184 53.8438 29.867C53.5143 29.8157 53.1771 29.8575 52.8701 29.9876L48.3448 31.904C48.0887 32.0124 47.8614 32.1789 47.681 32.3904C47.5005 32.6019 47.3719 32.8525 47.3052 33.1224L44.9124 42.771C44.7981 43.2259 44.8671 43.7075 45.1045 44.1121C45.1045 44.1122 45.1046 44.1123 45.1047 44.1124L47.7023 48.5673C47.7025 48.5676 47.7027 48.568 47.7029 48.5683C47.8595 48.8391 48.0844 49.0642 48.3552 49.2209C48.6263 49.3778 48.9338 49.4608 49.2471 49.4615H49.2482H56.5312ZM0.5 33.5C0.5 15.3044 15.3044 0.5 33.5 0.5C51.6956 0.5 66.5 15.3044 66.5 33.5C66.5 51.6956 51.6956 66.5 33.5 66.5C15.3044 66.5 0.5 51.6956 0.5 33.5Z" stroke="#AAAAAA"/>
<path d="M18.5 80.5C18.5 79.3954 19.3954 78.5 20.5 78.5H45.5C46.6046 78.5 47.5 79.3954 47.5 80.5C47.5 81.6046 46.6046 82.5 45.5 82.5H20.5C19.3954 82.5 18.5 81.6046 18.5 80.5Z" stroke="#AAAAAA"/>
</svg>
