<svg width="97" height="83" viewBox="0 0 97 83" fill="none" xmlns="http://www.w3.org/2000/svg">
<path d="M7 7.05261H39C40.3807 7.05261 41.5 8.1719 41.5 9.55261V74.8552H4.5V9.55261C4.5 8.1719 5.61929 7.05261 7 7.05261Z" stroke="#AAAAAA"/>
<path d="M14.6382 0.5H31.3618C31.9904 0.5 32.5 1.00957 32.5 1.63816C32.5 2.26675 31.9904 2.77632 31.3618 2.77632H14.6382C14.0096 2.77632 13.5 2.26674 13.5 1.63816C13.5 1.00957 14.0096 0.5 14.6382 0.5Z" stroke="#AAAAAA"/>
<path d="M3 74.7632H43C44.3807 74.7632 45.5 75.8825 45.5 77.2632V82.5H0.5V77.2632C0.5 75.8825 1.61929 74.7632 3 74.7632Z" stroke="#AAAAAA"/>
<path d="M58 35.4474H90C91.3807 35.4474 92.5 36.5667 92.5 37.9474V74.8553H55.5V37.9474C55.5 36.5667 56.6193 35.4474 58 35.4474Z" stroke="#AAAAAA"/>
<path d="M65.6382 28.8947H82.3618C82.9904 28.8947 83.5 29.4043 83.5 30.0329C83.5 30.6615 82.9904 31.171 82.3618 31.171H65.6382C65.0096 31.171 64.5 30.6615 64.5 30.0329C64.5 29.4043 65.0096 28.8947 65.6382 28.8947Z" stroke="#AAAAAA"/>
<path d="M54 74.7632H94C95.3807 74.7632 96.5 75.8825 96.5 77.2632V82.5H51.5V77.2632C51.5 75.8825 52.6193 74.7632 54 74.7632Z" stroke="#AAAAAA"/>
</svg>
