<svg width="24" height="24" viewBox="0 0 24 24" fill="none" xmlns="http://www.w3.org/2000/svg">
<path fill-rule="evenodd" clip-rule="evenodd" d="M7 0C3.13401 0 0 3.13401 0 7V17C0 20.866 3.13401 24 7 24H17C20.866 24 24 20.866 24 17V7C24 3.13401 20.866 0 17 0H7ZM12 17.647C15.1188 17.647 17.647 15.1188 17.647 12C17.647 8.8812 15.1188 6.35293 12 6.35293C8.8812 6.35293 6.35293 8.8812 6.35293 12C6.35293 15.1188 8.8812 17.647 12 17.647ZM19.7647 5.64707C19.7647 6.42676 19.1326 7.05883 18.3529 7.05883C17.5732 7.05883 16.9412 6.42676 16.9412 5.64707C16.9412 4.86737 17.5732 4.2353 18.3529 4.2353C19.1326 4.2353 19.7647 4.86737 19.7647 5.64707ZM12 15.5295C10.0508 15.5295 8.4706 13.9494 8.4706 12.0001C8.4706 10.0509 10.0508 8.4707 12 8.4707C13.9492 8.4707 15.5294 10.0509 15.5294 12.0001C15.5294 13.9494 13.9492 15.5295 12 15.5295Z" fill="black"/>
</svg>
