<svg width="25" height="19" viewBox="0 0 25 19" fill="none" xmlns="http://www.w3.org/2000/svg">
<path d="M15.5 10.5C15.5 12.1569 14.1569 13.5 12.5 13.5C10.8431 13.5 9.5 12.1569 9.5 10.5C9.5 8.84315 10.8431 7.5 12.5 7.5C14.1569 7.5 15.5 8.84315 15.5 10.5Z" stroke="white"/>
<path d="M1.13297 4.57682C1.54027 4.18285 2.09593 3.95843 2.67885 3.95778C2.67892 3.95778 2.679 3.95778 2.67907 3.95778L2.90179 3.95778H3.40179V3.45778V3.02597C3.40179 2.93499 3.43899 2.84424 3.51092 2.77467C3.58342 2.70455 3.68518 2.66233 3.79464 2.66233H5.13393C5.24339 2.66233 5.34515 2.70455 5.41765 2.77467C5.48958 2.84424 5.52679 2.93499 5.52679 3.02597V3.45778V3.95778H6.02679C6.2444 3.95778 6.42595 3.8761 6.55434 3.79591C6.68468 3.71451 6.79187 3.61498 6.8706 3.53197L6.9016 3.49929L6.92625 3.46159L8.3738 1.24853L8.37405 1.24813C8.38322 1.23408 8.39355 1.22057 8.40501 1.20772L8.40597 1.20664C8.81524 0.744926 9.35682 0.5 9.93304 0.5H15.067C15.6432 0.5 16.1848 0.744926 16.594 1.20664L16.595 1.20771C16.6064 1.22056 16.6168 1.23408 16.626 1.24815L16.6264 1.24881L18.0739 3.45864L18.1008 3.4996L18.135 3.53458C18.3535 3.75756 18.6818 3.95455 19.029 3.95455L22.3209 3.95455C22.321 3.95455 22.3211 3.95455 22.3211 3.95455C22.9041 3.95519 23.4597 4.17961 23.867 4.57358C24.2738 4.96705 24.4994 5.49695 24.5 6.04599V16.4086C24.4994 16.9576 24.2738 17.4875 23.867 17.881C23.4597 18.275 22.9039 18.4994 22.3209 18.5H2.67907C2.09607 18.4994 1.54032 18.275 1.13297 17.881C0.726253 17.4876 0.500662 16.9578 0.5 16.4088V6.04897C0.500662 5.50002 0.726253 4.97023 1.13297 4.57682ZM12.5 16.0455L12.5006 16.0455C14.048 16.0437 15.5348 15.4485 16.6339 14.3854C17.7336 13.3217 18.3554 11.8759 18.3571 10.3642V10.3636C18.3571 9.2361 18.0114 8.13533 17.3657 7.20059C16.7201 6.26607 15.8044 5.54016 14.736 5.11213C13.6679 4.68415 12.4934 4.57241 11.3604 4.79039C10.2274 5.00839 9.18445 5.54685 8.3643 6.34015C7.54398 7.13363 6.98335 8.14662 6.75604 9.252C6.5287 10.3575 6.64555 11.5032 7.09102 12.5435C7.5364 13.5835 8.28945 14.4698 9.25233 15.0921C10.215 15.7143 11.3452 16.0455 12.5 16.0455Z" stroke="white"/>
</svg>
