<svg width="24" height="15" viewBox="0 0 24 15" fill="none" xmlns="http://www.w3.org/2000/svg">
<path fill-rule="evenodd" clip-rule="evenodd" d="M23.435 0.982906C23.613 0.428547 23.435 0.0255554 22.6475 0.0255554H20.029C19.3685 0.0255554 19.0635 0.378419 18.8855 0.755855C18.8855 0.755855 17.5385 3.97979 15.6575 6.06994C15.0475 6.67442 14.768 6.87592 14.4375 6.87592C14.2595 6.87592 14.0305 6.67442 14.0305 6.12055V0.956859C14.0305 0.302244 13.8275 0 13.268 0H9.15001C8.74301 0 8.48901 0.302244 8.48901 0.604487C8.48901 1.23404 9.42951 1.38541 9.53101 3.14825V6.97863C9.53101 7.80968 9.38101 7.96154 9.04801 7.96154C8.15851 7.96154 5.99801 4.71254 4.70201 1.01043C4.45001 0.277179 4.19401 0 3.533 0H0.889501C0.127 0 0 0.352372 0 0.730299C0 1.41047 0.889501 4.83541 4.14301 9.36857C6.30351 12.4647 9.37901 14.1288 12.1495 14.1288C13.8275 14.1288 14.0305 13.7509 14.0305 13.1213V10.779C14.0305 10.0237 14.183 9.89786 14.717 9.89786C15.098 9.89786 15.7845 10.0989 17.335 11.585C19.114 13.3479 19.419 14.1538 20.4105 14.1538H23.0285C23.791 14.1538 24.147 13.7759 23.9435 13.0456C23.715 12.3153 22.8505 11.2577 21.732 9.99861C21.122 9.29387 20.207 8.51295 19.9275 8.13502C19.5465 7.63128 19.648 7.42979 19.9275 6.97667C19.902 6.97667 23.105 2.49363 23.435 0.98094" fill="black"/>
</svg>
