<svg width="34" height="34" viewBox="0 0 34 34" fill="none" xmlns="http://www.w3.org/2000/svg">
<path fill-rule="evenodd" clip-rule="evenodd" d="M29.0464 4.94069C27.4747 3.36825 25.6075 2.1222 23.5524 1.27428C21.4972 0.42636 19.2945 -0.00668343 17.0713 7.79718e-05C7.74106 7.79718e-05 0.145714 7.55747 0.141919 16.8483C0.137792 19.8066 0.917616 22.7133 2.40201 25.2723L0 34L8.97432 31.6572C11.4585 33.0029 14.2392 33.7073 17.0645 33.7063H17.0713C26.4008 33.7063 33.9954 26.1481 33.9999 16.8581C34.0056 14.6425 33.5706 12.4478 32.7202 10.4019C31.8698 8.35593 30.621 6.49953 29.0464 4.94069ZM17.0713 30.8626H17.0652C14.5467 30.8633 12.0739 30.1893 9.904 28.9106L9.39021 28.6071L4.06482 29.9974L5.48629 24.8299L5.1516 24.2986C3.74332 22.069 2.99719 19.4854 3.00004 16.8483C3.00004 9.12769 9.31508 2.84605 17.0766 2.84605C20.7999 2.8394 24.3734 4.31195 27.0111 6.9398C29.6487 9.56765 31.1346 13.1356 31.1418 16.8589C31.1388 24.5802 24.8268 30.8626 17.0713 30.8626ZM24.7888 20.375C24.3661 20.164 22.2844 19.1455 21.8988 19.0051C21.5133 18.8647 21.2287 18.7941 20.9472 19.2161C20.6656 19.6381 19.8543 20.5822 19.6076 20.8668C19.361 21.1514 19.1143 21.1825 18.6916 20.9715C18.2689 20.7605 16.9051 20.3165 15.2894 18.8822C14.0318 17.7658 13.1833 16.3876 12.9367 15.9664C12.69 15.5452 12.9101 15.3167 13.1219 15.1073C13.3123 14.9183 13.5446 14.6155 13.7563 14.3696C13.9681 14.1237 14.0386 13.9476 14.179 13.6668C14.3194 13.386 14.2496 13.1401 14.1441 12.9299C14.0386 12.7197 13.1924 10.6471 12.8403 9.80389C12.4965 8.98273 12.1482 9.0943 11.8886 9.0814C11.6419 9.06925 11.3573 9.06622 11.0773 9.06622C10.8632 9.07179 10.6526 9.12144 10.4585 9.21206C10.2645 9.30268 10.0912 9.43233 9.94954 9.59291C9.56173 10.0149 8.46887 11.0349 8.46887 13.1052C8.46887 15.1756 9.98673 17.1791 10.1962 17.4599C10.4057 17.7407 13.1788 21.993 17.4219 23.8167C18.2099 24.1541 19.0149 24.45 19.8338 24.7031C20.847 25.0234 21.7691 24.9786 22.4976 24.8701C23.3105 24.7494 25.0021 23.8516 25.3535 22.8681C25.7049 21.8845 25.7056 21.0421 25.6001 20.8668C25.4946 20.6915 25.2123 20.5852 24.7888 20.375Z" fill="#32AD06"/>
</svg>
