<svg width="27" height="20" viewBox="0 0 27 20" fill="none" xmlns="http://www.w3.org/2000/svg">
<path d="M26.4986 9.98608C26.5096 8.31103 26.4565 6.63447 26.3393 4.95646C26.3302 2.60733 24.523 0.674795 22.2372 0.668293C19.526 0.546834 16.7627 0.5 13.9414 0.5H13.0624C10.2479 0.5 7.47975 0.546833 4.76845 0.668762C2.48581 0.675336 0.680828 2.61878 0.671255 4.96551C0.549109 6.64135 0.497383 8.31632 0.500296 9.98962C0.495423 11.6644 0.550784 13.3407 0.666368 15.0184C0.675415 17.3649 2.4799 19.3144 4.76372 19.3209C7.61062 19.4475 10.5297 19.5037 13.4966 19.499C16.4692 19.5084 19.3805 19.449 22.2304 19.3209C24.5185 19.3143 26.3233 17.3654 26.3325 15.0187C26.4497 13.3392 26.5034 11.6648 26.4986 9.98608ZM26.4986 9.98608C26.4986 9.9869 26.4986 9.98772 26.4986 9.98854L25.9986 9.98523L26.4986 9.98377C26.4986 9.98454 26.4986 9.98531 26.4986 9.98608ZM17.2729 9.98075L11.609 13.6663V6.29892L17.2729 9.98075Z" stroke="white"/>
</svg>
