<svg width="28" height="20" viewBox="0 0 28 20" fill="none" xmlns="http://www.w3.org/2000/svg">
<path d="M26.8534 4.41603C26.8534 2.07234 25.1059 0.186974 22.9466 0.186974C20.0218 0.0520817 17.039 0 13.9907 0H13.0404C9.99947 0 7.01134 0.0520818 4.08656 0.187495C1.93257 0.187495 0.185099 2.08328 0.185099 4.42696C0.0531149 6.28056 -0.00284659 8.13467 0.000321043 9.98879C-0.00495834 11.8429 0.0548747 13.6988 0.17982 15.5563C0.17982 17.9 1.9273 19.801 4.08128 19.801C7.15388 19.9416 10.3057 20.0041 13.5103 19.9989C16.7201 20.0094 19.8631 19.9434 22.9392 19.801C25.0985 19.801 26.846 17.9 26.846 15.5563C26.9727 13.697 27.0308 11.8429 27.0255 9.98358C27.0374 8.12947 26.9801 6.27361 26.8534 4.41603ZM10.9286 15.098V4.86393L18.5837 9.97837L10.9286 15.098Z" fill="black"/>
</svg>
