<svg width="205" height="205" viewBox="0 0 205 205" fill="none" xmlns="http://www.w3.org/2000/svg">
<rect width="205" height="205" rx="102.5" fill="white"/>
<path d="M81.8243 79.3673H76.9049V85.77H81.8243V79.3673Z" fill="url(#paint0_linear_259_67)"/>
<path d="M160.975 45.1259L155.836 51.3785L156.436 54.0203L159.427 51.3786L160.975 45.1259Z" fill="url(#paint1_linear_259_67)"/>
<path d="M82.2753 43.5629L77.6297 43.5626L43.5625 75.7256V154.969V156.382V159.875L48.208 161.438V152.956V85.77V79.3673L77.1788 49.8156L76.9049 79.3673H81.8243L82.2753 49.8156L155.836 51.3785L160.975 45.1259L82.2753 43.5629Z" fill="url(#paint2_linear_259_67)"/>
<path fill-rule="evenodd" clip-rule="evenodd" d="M81.8243 85.77V79.3673L122.82 78.6281L156.33 48.2521L155.836 51.3785L156.436 54.0203L127.739 79.3673V85.77V122.357H123.599H123.54L122.82 85.77H81.8243ZM76.9049 85.77V79.3673H48.208V85.77H76.9049ZM124.296 160.779L48.208 161.438V152.956L76.9049 123.853V85.77H81.8243V122.357H123.54L123.638 127.346H80.4305L51.7336 156.449H51.8156H124.21L124.296 160.779ZM127.739 152.956V157.477L147.313 137.357L161.437 122.357L160.975 45.1259L159.427 51.3786L156.436 54.0203V59.1951V122.357H127.739V127.346H123.69H123.638L124.21 156.449H124.217H124.296L127.739 152.956ZM127.739 152.956V127.346H152.992L127.739 152.956Z" fill="url(#paint3_linear_259_67)"/>
<path d="M123.599 122.357L123.69 127.346H127.739V122.357H123.599Z" fill="url(#paint4_linear_259_67)"/>
<path d="M156.436 54.0203L127.739 79.3673V85.77L156.436 59.1951V54.0203Z" fill="url(#paint5_linear_259_67)"/>
<path d="M124.296 160.779L127.739 157.477V152.956L124.296 156.449H124.217L124.296 160.779Z" fill="url(#paint6_linear_259_67)"/>
<path d="M109.679 115.976C111.475 116.275 113.035 116.959 114.36 118.028C115.685 119.054 116.711 120.379 117.438 122.004C118.208 123.628 118.592 125.423 118.592 127.39C118.592 130.04 117.908 132.349 116.54 134.315C115.172 136.282 113.227 137.799 110.705 138.868C108.226 139.979 105.297 140.535 101.92 140.535C98.6713 140.535 95.7858 140.001 93.2636 138.932C90.7842 137.906 88.7108 136.389 87.0436 134.379L91.917 128.288C93.0285 129.656 94.3537 130.724 95.8926 131.494C97.4743 132.306 99.398 132.712 101.664 132.712C104.271 132.712 106.259 132.178 107.627 131.109C108.995 130.083 109.679 128.523 109.679 126.428C109.679 124.205 108.888 122.495 107.307 121.298C105.725 120.101 103.331 119.503 100.125 119.503H98.3293V113.09H100.317C102.925 113.09 104.955 112.492 106.409 111.295C107.905 110.098 108.653 108.602 108.653 106.806C108.653 105.652 108.375 104.69 107.82 103.921C107.264 103.151 106.494 102.574 105.511 102.189C104.571 101.805 103.459 101.612 102.177 101.612C100.253 101.612 98.5003 102.061 96.9186 102.959C95.3369 103.857 94.0544 105.118 93.0712 106.742L87.6849 100.715C88.5826 99.3894 89.8009 98.2566 91.3399 97.3161C92.9216 96.3329 94.717 95.5634 96.7262 95.0077C98.7782 94.4519 100.916 94.1741 103.139 94.1741C106.045 94.1741 108.589 94.6443 110.769 95.5848C112.992 96.5253 114.723 97.8505 115.963 99.5604C117.203 101.27 117.823 103.258 117.823 105.524C117.823 107.191 117.481 108.773 116.797 110.269C116.113 111.765 115.151 113.026 113.911 114.052C112.714 115.035 111.304 115.677 109.679 115.976Z" fill="white"/>
<path fill-rule="evenodd" clip-rule="evenodd" d="M87.685 100.714C88.5828 99.389 89.8011 98.2562 91.3401 97.3157C92.9218 96.3325 94.7172 95.563 96.7264 95.0073C98.7783 94.4516 100.916 94.1737 103.139 94.1737C106.046 94.1737 108.589 94.6439 110.769 95.5844C112.992 96.5249 114.724 97.8501 115.963 99.56C117.203 101.27 117.823 103.258 117.823 105.523C117.823 107.191 117.481 108.772 116.797 110.269C116.113 111.765 115.151 113.026 113.911 114.052C113.545 114.353 113.158 114.622 112.752 114.859C111.831 115.396 110.806 115.768 109.679 115.976C110.812 116.164 111.851 116.506 112.796 117.001C113.35 117.291 113.871 117.633 114.36 118.028C115.685 119.053 116.711 120.379 117.438 122.003C118.208 123.628 118.592 125.423 118.592 127.39C118.592 130.04 117.908 132.348 116.54 134.315C115.173 136.281 113.227 137.799 110.705 138.868C108.226 139.979 105.298 140.535 101.92 140.535C98.6715 140.535 95.7859 140 93.2637 138.932C90.7843 137.906 88.711 136.388 87.0438 134.379L91.9172 128.287C92.3327 128.799 92.7782 129.268 93.2535 129.696C94.0495 130.413 94.9293 131.012 95.8928 131.493C97.4745 132.306 99.3982 132.712 101.664 132.712C104.272 132.712 106.259 132.177 107.627 131.109C108.995 130.083 109.679 128.522 109.679 126.428C109.679 124.205 108.888 122.495 107.307 121.298C105.725 120.101 103.331 119.502 100.125 119.502H98.3295V113.09H100.317C102.925 113.09 104.956 112.492 106.409 111.295C107.905 110.098 108.653 108.601 108.653 106.806C108.653 105.652 108.375 104.69 107.82 103.92C107.264 103.151 106.494 102.574 105.511 102.189C104.571 101.804 103.459 101.612 102.177 101.612C100.253 101.612 98.5005 102.061 96.9188 102.959C95.8978 103.538 95.0015 104.269 94.2298 105.151C93.8061 105.636 93.4199 106.166 93.0714 106.742L87.685 100.714ZM111.474 140.631C108.699 141.871 105.497 142.458 101.92 142.458C98.4638 142.458 95.3183 141.89 92.5206 140.706C89.7636 139.564 87.4345 137.862 85.5634 135.607L84.5625 134.401L91.9056 125.222L93.4102 127.074C94.3535 128.235 95.4648 129.129 96.7531 129.773L96.7716 129.782C98.0171 130.422 99.6223 130.788 101.664 130.788C104.048 130.788 105.546 130.294 106.443 129.593L106.473 129.569C107.246 128.989 107.756 128.069 107.756 126.428C107.756 124.724 107.184 123.618 106.146 122.832C105.048 122.001 103.15 121.426 100.125 121.426H96.4058V111.166H100.317C102.649 111.166 104.189 110.631 105.186 109.81L105.207 109.792C106.282 108.932 106.73 107.973 106.73 106.806C106.73 105.967 106.532 105.423 106.26 105.047C105.945 104.61 105.489 104.246 104.81 103.981L104.783 103.97C104.125 103.701 103.273 103.536 102.177 103.536C100.566 103.536 99.1437 103.908 97.8683 104.632C96.5856 105.36 95.5378 106.382 94.7171 107.738L93.3702 109.963L85.251 100.877L86.0924 99.6354C87.1614 98.0573 88.5899 96.743 90.3307 95.6781C92.0844 94.5889 94.0505 93.7515 96.2136 93.1532L96.2235 93.1505C98.4467 92.5483 100.754 92.25 103.139 92.25C106.248 92.25 109.058 92.7524 111.525 93.8154C111.523 93.8145 111.521 93.8136 111.519 93.8127M111.474 140.631C114.273 139.442 116.519 137.714 118.12 135.413C119.736 133.09 120.516 130.389 120.516 127.39C120.516 125.173 120.082 123.099 119.186 121.199C118.341 119.318 117.131 117.744 115.553 116.518C115.272 116.293 114.984 116.082 114.687 115.886C114.838 115.774 114.986 115.658 115.132 115.538L115.138 115.534C116.606 114.319 117.745 112.822 118.547 111.068C119.347 109.318 119.747 107.463 119.747 105.523C119.747 102.883 119.016 100.494 117.521 98.4309C116.049 96.4002 114.021 94.8724 111.525 93.8154" fill="black"/>
<defs>
<linearGradient id="paint0_linear_259_67" x1="24.0399" y1="220.756" x2="219.966" y2="27.5637" gradientUnits="userSpaceOnUse">
<stop stop-color="#D7FC03"/>
<stop offset="0.59" stop-color="#A1C800"/>
</linearGradient>
<linearGradient id="paint1_linear_259_67" x1="24.0399" y1="220.756" x2="219.966" y2="27.5637" gradientUnits="userSpaceOnUse">
<stop stop-color="#D7FC03"/>
<stop offset="0.59" stop-color="#A1C800"/>
</linearGradient>
<linearGradient id="paint2_linear_259_67" x1="24.0399" y1="220.756" x2="219.966" y2="27.5637" gradientUnits="userSpaceOnUse">
<stop stop-color="#D7FC03"/>
<stop offset="0.59" stop-color="#A1C800"/>
</linearGradient>
<linearGradient id="paint3_linear_259_67" x1="24.0399" y1="220.756" x2="219.966" y2="27.5637" gradientUnits="userSpaceOnUse">
<stop stop-color="#D7FC03"/>
<stop offset="0.59" stop-color="#A1C800"/>
</linearGradient>
<linearGradient id="paint4_linear_259_67" x1="24.0399" y1="220.756" x2="219.966" y2="27.5637" gradientUnits="userSpaceOnUse">
<stop stop-color="#D7FC03"/>
<stop offset="0.59" stop-color="#A1C800"/>
</linearGradient>
<linearGradient id="paint5_linear_259_67" x1="24.0399" y1="220.756" x2="219.966" y2="27.5637" gradientUnits="userSpaceOnUse">
<stop stop-color="#D7FC03"/>
<stop offset="0.59" stop-color="#A1C800"/>
</linearGradient>
<linearGradient id="paint6_linear_259_67" x1="24.0399" y1="220.756" x2="219.966" y2="27.5637" gradientUnits="userSpaceOnUse">
<stop stop-color="#D7FC03"/>
<stop offset="0.59" stop-color="#A1C800"/>
</linearGradient>
</defs>
</svg>
