<svg width="116" height="84" viewBox="0 0 116 84" fill="none" xmlns="http://www.w3.org/2000/svg">
<g clip-path="url(#clip0_131_962)">
<path d="M36.1 69.4C46.8696 69.4 55.6 60.6696 55.6 49.9C55.6 39.1305 46.8696 30.4 36.1 30.4C25.3305 30.4 16.6 39.1305 16.6 49.9C16.6 60.6696 25.3305 69.4 36.1 69.4Z" fill="#A5C957"/>
<path d="M90.7 39.6C98.4872 39.6 104.8 33.2872 104.8 25.5C104.8 17.7128 98.4872 11.4 90.7 11.4C82.9128 11.4 76.6 17.7128 76.6 25.5C76.6 33.2872 82.9128 39.6 90.7 39.6Z" fill="#A5C957"/>
<path d="M27.9 84.1001L19.7 81.1001L21.3 73.6C18.2 71.7 15.5 69.2 13.4 66.2L6.1 68.4L2.5 60.5L9 56.3C8.2 52.7001 8 49.1 8.6 45.5L1.9 41.8L4.9 33.6L12.4 35.2C14.3 32.1 16.8 29.4 19.8 27.3L17.7 20L25.6 16.4L29.8 22.9C33.4 22.1 37 21.9 40.6 22.5L44.3 15.8L52.5 18.8L50.9 26.3C54 28.2 56.7 30.7 58.8 33.7L66.1 31.5L69.7 39.4L63.2 43.6C64 47.2 64.2 50.8 63.6 54.4L70.3 58.1L67.3 66.3L59.8 64.7C57.9 67.8 55.4 70.5 52.4 72.6L54.6 79.9L46.7 83.5L42.5 77C38.9 77.8 35.3 78 31.7 77.4L27.9 84.1001ZM20.9 80.4L27.4 82.8L31 76.2L31.4 76.3C35.1 77 38.9 76.8 42.5 75.9L42.8 75.8L46.9 82.1001L53.2 79.2L51.1 72L51.4 71.8C54.5 69.6 57.1 66.9 59 63.7L59.2 63.4L66.6 65L69 58.5L62.4 54.9L62.5 54.5C63.2 50.8 63 47 62.1 43.4L62 43.1L68.3 39L65.4 32.7L58.2 34.8L58 34.5C55.8 31.4 53.1 28.8 49.9 26.9L49.6 26.7L51.2 19.3L44.7 17L41.1 23.6L40.7 23.5C37 22.8 33.2 23 29.6 23.9L29.3 24L25.2 17.7L18.9 20.6L21 27.8L20.7 28C17.6 30.2 15 32.9 13.1 36.1L12.9 36.4L5.5 34.8L3.1 41.3L9.7 44.9L9.6 45.3C8.9 49 9.1 52.8 10 56.4L10.1 56.7L3.8 60.8L6.7 67.1L13.9 65L14.1 65.3C16.3 68.4 19 71 22.2 72.9L22.5 73.1L20.9 80.4ZM29.3 68.2C24.6 66.5 20.6 62.9 18.4 58.1C13.9 48.3 18.2 36.8 28 32.3C37.8 27.8 49.3 32.1 53.8 41.9C58.3 51.7 54 63.2 44.2 67.7C39.3 69.9 34 69.9 29.3 68.2ZM42.5 32.6C38.1 31 33 31 28.4 33.1C19.1 37.3 15.1 48.3 19.3 57.6C23.5 66.9 34.5 70.9 43.8 66.7C53.1 62.5 57.1 51.5 52.9 42.2C50.8 37.6 47 34.3 42.5 32.6Z" fill="#263137"/>
<path d="M75.9 46L71.2 41.6L74.4 37.1C72.9 35 71.9 32.7 71.3 30.2L65.8 29.6L65.6 23.1L71 22.1C71.4 19.6 72.3 17.2 73.7 15L70.3 10.7L74.7 6.00002L79.2 9.20002C81.3 7.70002 83.6 6.70002 86.1 6.10002L86.7 0.600021L93.2 0.400024L94.2 5.80002C96.7 6.20002 99.1 7.10002 101.3 8.50002L105.6 5.10002L110.3 9.50002L107.1 14C108.6 16.1 109.6 18.4 110.2 20.9L115.7 21.5L115.9 28L110.5 29C110.1 31.5 109.2 33.9 107.8 36.1L111.2 40.4L106.8 45.1L102.3 41.9C100.2 43.4 97.9 44.4 95.4 45L94.8 50.5L88.3 50.7L87.3 45.3C84.8 44.9 82.4 44 80.2 42.6L75.9 46ZM72.5 41.4L76 44.6L80.2 41.2L80.5 41.4C82.8 42.8 85.2 43.8 87.9 44.2L88.3 44.3L89.2 49.6L93.9 49.4L94.5 44.1L94.9 44C97.5 43.4 99.9 42.3 102.1 40.8L102.4 40.6L106.8 43.7L110 40.2L106.7 36L106.9 35.7C108.3 33.4 109.3 31 109.7 28.3L109.8 27.9L115.1 27L114.9 22.3L109.6 21.7L109.5 21.3C108.9 18.7 107.8 16.3 106.3 14.1L106.1 13.8L109.2 9.40002L105.7 6.20002L101.5 9.60002L101.2 9.40002C98.9 8.00002 96.5 7.00002 93.8 6.60002L93.4 6.50002L92.5 1.20002L87.8 1.40002L87.2 6.70002L86.8 6.80002C84.2 7.40002 81.8 8.50002 79.6 10L79.3 10.2L74.9 7.10002L71.7 10.6L75 14.8L74.8 15.1C73.4 17.4 72.4 19.8 72 22.5L71.9 22.9L66.6 23.8L66.8 28.5L72.1 29.1L72.2 29.5C72.8 32.1 73.9 34.5 75.4 36.7L75.6 37L72.5 41.4ZM81.1 35.8C78.5 33.3 76.8 29.9 76.6 26C76.5 22.2 77.8 18.7 80.4 15.9C83 13.2 86.4 11.6 90.2 11.4C94 11.3 97.5 12.6 100.3 15.2C103 17.8 104.6 21.2 104.8 25C105.1 32.8 99 39.3 91.2 39.5C87.3 39.7 83.7 38.2 81.1 35.8ZM99.6 15.9C97 13.5 93.7 12.3 90.2 12.4C86.7 12.5 83.5 14 81.1 16.5C78.7 19.1 77.5 22.4 77.6 25.9C77.8 33.1 83.9 38.8 91.1 38.5C98.3 38.3 104 32.2 103.7 25C103.6 21.5 102.1 18.3 99.6 15.9Z" fill="#263137"/>
</g>
<defs>
<clipPath id="clip0_131_962">
<rect width="116" height="84" fill="white"/>
</clipPath>
</defs>
</svg>
