<svg width="669" height="538" viewBox="0 0 669 538" fill="none" xmlns="http://www.w3.org/2000/svg">
<circle cx="398" cy="269" r="234" stroke="url(#paint0_linear_220_50)" stroke-width="70"/>
<path d="M54 294.1H228.6" stroke="#263238" stroke-width="5" stroke-miterlimit="10" stroke-linecap="round" stroke-linejoin="round"/>
<path d="M72.8 328H24.1C21.1 328 18.7 325.6 18.7 322.6V259C18.7 257.4 20 256 21.7 256H75.2C76.8 256 78.2 257.3 78.2 259V322.6C78.2 325.6 75.8 328 72.8 328Z" fill="white" stroke="#263238" stroke-miterlimit="10" stroke-linecap="round" stroke-linejoin="round"/>
<path d="M78.2 263.3H18.7V259C18.7 257.4 20 256 21.7 256H75.2C76.8 256 78.2 257.3 78.2 259V263.3Z" fill="#263238" stroke="#263238" stroke-miterlimit="10" stroke-linecap="round" stroke-linejoin="round"/>
<path d="M63.7 259.8C63.7 258.7 62.8 257.9 61.8 257.9C60.8 257.9 59.9 258.8 59.9 259.8C59.9 260.9 60.8 261.7 61.8 261.7C62.8 261.7 63.7 260.9 63.7 259.8Z" fill="white" stroke="#263238" stroke-miterlimit="10" stroke-linecap="round" stroke-linejoin="round"/>
<path d="M69.9 259.8C69.9 258.7 69 257.9 68 257.9C66.9 257.9 66.1 258.8 66.1 259.8C66.1 260.9 67 261.7 68 261.7C69 261.8 69.9 260.9 69.9 259.8Z" fill="white" stroke="#263238" stroke-miterlimit="10" stroke-linecap="round" stroke-linejoin="round"/>
<path d="M76.1 259.8C76.1 258.7 75.2 257.9 74.2 257.9C73.2 257.9 72.3 258.8 72.3 259.8C72.3 260.9 73.2 261.7 74.2 261.7C75.2 261.7 76.1 260.9 76.1 259.8Z" fill="white" stroke="#263238" stroke-miterlimit="10" stroke-linecap="round" stroke-linejoin="round"/>
<path d="M41.3 271.6L31.1 279.6L41.3 287.7" stroke="#263238" stroke-width="3" stroke-miterlimit="10" stroke-linecap="round" stroke-linejoin="round"/>
<path d="M55.3 271.6L65.5 279.6L55.3 287.7" stroke="#263238" stroke-width="3" stroke-miterlimit="10" stroke-linecap="round" stroke-linejoin="round"/>
<path d="M49.6 269.7L46.5 289.1" stroke="#263238" stroke-width="3" stroke-miterlimit="10" stroke-linecap="round" stroke-linejoin="round"/>
<path d="M60.8 298.3H72.1" stroke="#263238" stroke-miterlimit="10" stroke-linecap="round" stroke-linejoin="round"/>
<path d="M44.1 298.3H58.8" stroke="#263238" stroke-miterlimit="10" stroke-linecap="round" stroke-linejoin="round"/>
<path d="M31.8 298.3H40.9" stroke="#263238" stroke-miterlimit="10" stroke-linecap="round" stroke-linejoin="round"/>
<path d="M25.5 298.3H29.8" stroke="#263238" stroke-miterlimit="10" stroke-linecap="round" stroke-linejoin="round"/>
<path d="M65.5 305H72.1" stroke="#263238" stroke-miterlimit="10" stroke-linecap="round" stroke-linejoin="round"/>
<path d="M32.7 305H62.3" stroke="#263238" stroke-miterlimit="10" stroke-linecap="round" stroke-linejoin="round"/>
<path d="M25.5 305H29.2" stroke="#263238" stroke-miterlimit="10" stroke-linecap="round" stroke-linejoin="round"/>
<path d="M49.7 311.6H72.1" stroke="#263238" stroke-miterlimit="10" stroke-linecap="round" stroke-linejoin="round"/>
<path d="M31 311.6H45.6" stroke="#263238" stroke-miterlimit="10" stroke-linecap="round" stroke-linejoin="round"/>
<path d="M25.5 311.6H28.6" stroke="#263238" stroke-miterlimit="10" stroke-linecap="round" stroke-linejoin="round"/>
<path d="M65.8 318.3H72.1" stroke="#263238" stroke-miterlimit="10" stroke-linecap="round" stroke-linejoin="round"/>
<path d="M44.4 318.3H62.3" stroke="#263238" stroke-miterlimit="10" stroke-linecap="round" stroke-linejoin="round"/>
<path d="M25.5 318.3H40.9" stroke="#263238" stroke-miterlimit="10" stroke-linecap="round" stroke-linejoin="round"/>
<path d="M137.299 306.852C144.328 299.823 144.328 288.426 137.299 281.397C130.27 274.367 118.873 274.367 111.843 281.397C104.814 288.426 104.814 299.823 111.843 306.852C118.873 313.882 130.27 313.882 137.299 306.852Z" fill="#263238"/>
<path d="M116.7 290.1L125 299.3L144.9 271.9" stroke="#AAD300" stroke-width="6" stroke-miterlimit="10" stroke-linecap="round"/>
<path d="M108 425H570" stroke="#263238" stroke-miterlimit="10" stroke-linecap="round" stroke-linejoin="round"/>
<path d="M107 52.7999C107 52.4999 107 52.2 107 52C107 41.9 98.8 33.7 88.7 33.7C80.3 33.7 73.3 39.3999 71.1 47.0999C65.2 47.6999 60.7 52.7 60.7 58.7C60.7 64.7 65.2 69.6 71.1 70.3V70.4H106.9C111.7 70.4 115.6 66.5 115.6 61.7C115.6 56.7 111.7 52.7999 107 52.7999Z" fill="white" stroke="#263238" stroke-miterlimit="10" stroke-linecap="round" stroke-linejoin="round"/>
<path d="M98.3 66.5999L87.5 51.8999L76.7 66.5999H80.9V73.7999H94.1V66.5999H98.3Z" fill="#263238" stroke="#263238" stroke-miterlimit="10" stroke-linecap="round" stroke-linejoin="round"/>
<path d="M575 248.8H570.8C570.4 247 569.6 245.3 568.7 243.7L571.8 240.6C573.3 239.1 573.3 236.7 571.8 235.2C570.3 233.7 567.9 233.7 566.4 235.2L563.3 238.3C561.8 237.4 560.1 236.7 558.3 236.3V231.7C558.3 229.6 556.6 227.9 554.5 227.9C552.4 227.9 550.7 229.6 550.7 231.7V236.3C549 236.7 547.3 237.4 545.8 238.3L542.5 235C541 233.5 538.6 233.5 537.1 235C535.6 236.5 535.6 238.9 537.1 240.4L540.3 243.6C539.4 245.1 538.6 246.7 538.2 248.5H533.6C531.5 248.5 529.8 250.2 529.8 252.3C529.8 254.4 531.5 256.1 533.6 256.1H538C538.4 257.9 539 259.6 540 261.2L536.9 264.3C535.4 265.8 535.4 268.2 536.9 269.7C538.4 271.2 540.8 271.2 542.3 269.7L545.2 266.8C546.8 267.8 548.5 268.6 550.3 269.1V273.2C550.3 275.3 552 277 554.1 277C556.2 277 557.9 275.3 557.9 273.2V269.2C559.8 268.8 561.6 268.1 563.2 267.1L566.1 270C567.6 271.5 570 271.5 571.5 270C573 268.5 573 266.1 571.5 264.6L568.7 261.8C569.7 260.2 570.4 258.5 570.9 256.6H575C577.1 256.6 578.8 254.9 578.8 252.8C578.8 250.5 577.1 248.8 575 248.8ZM554.5 261.8C549.5 261.8 545.4 257.7 545.4 252.7C545.4 247.7 549.5 243.6 554.5 243.6C559.5 243.6 563.6 247.7 563.6 252.7C563.6 257.8 559.5 261.8 554.5 261.8Z" stroke="#263238" stroke-miterlimit="10" stroke-linecap="round" stroke-linejoin="round"/>
<path d="M600.2 210.6H596.1C595.7 208.8 594.9 207.1 594 205.5L597.1 202.4C598.6 200.9 598.6 198.5 597.1 197C595.6 195.5 593.2 195.5 591.7 197L588.6 200.1C587.1 199.2 585.4 198.5 583.6 198.1V193.5C583.6 191.4 581.9 189.7 579.8 189.7C577.7 189.7 576 191.4 576 193.5V198.1C574.3 198.5 572.6 199.2 571.1 200.1L567.8 196.8C566.3 195.3 563.9 195.3 562.4 196.8C560.9 198.3 560.9 200.7 562.4 202.2L565.6 205.4C564.7 206.9 563.9 208.5 563.5 210.3H558.9C556.8 210.3 555.1 212 555.1 214.1C555.1 216.2 556.8 217.9 558.9 217.9H563.3C563.7 219.7 564.3 221.4 565.3 223L562.1 226.1C560.6 227.6 560.6 230 562.1 231.5C563.6 233 566 233 567.5 231.5L570.4 228.6C572 229.6 573.7 230.4 575.5 230.9V235C575.5 237.1 577.2 238.8 579.3 238.8C581.4 238.8 583.1 237.1 583.1 235V231C585 230.6 586.8 229.9 588.4 228.9L591.3 231.8C592.8 233.3 595.2 233.3 596.7 231.8C598.2 230.3 598.2 227.9 596.7 226.4L593.9 223.6C594.9 222 595.6 220.3 596.1 218.4H600.2C602.3 218.4 604 216.7 604 214.6C604.1 212.3 602.3 210.6 600.2 210.6ZM579.7 223.6C574.7 223.6 570.6 219.5 570.6 214.5C570.6 209.5 574.7 205.4 579.7 205.4C584.7 205.4 588.8 209.5 588.8 214.5C588.8 219.5 584.7 223.6 579.7 223.6Z" stroke="#263238" stroke-miterlimit="10" stroke-linecap="round" stroke-linejoin="round"/>
<path d="M590.9 357.6H558.6C555.6 357.6 553.2 355.2 553.2 352.2V308.4C553.2 306.8 554.5 305.4 556.2 305.4H593.4C595 305.4 596.4 306.7 596.4 308.4V352.2C596.3 355.2 593.9 357.6 590.9 357.6Z" fill="white" stroke="#263238" stroke-miterlimit="10" stroke-linecap="round" stroke-linejoin="round"/>
<path d="M596.3 310.8H553.2V308.5C553.2 306.9 554.5 305.5 556.2 305.5H593.4C595 305.5 596.4 306.8 596.4 308.5V310.8H596.3Z" fill="#263238" stroke="#263238" stroke-miterlimit="10" stroke-linecap="round" stroke-linejoin="round"/>
<path d="M585.8 308.2C585.8 307.4 585.2 306.8 584.4 306.8C583.6 306.8 583 307.4 583 308.2C583 309 583.6 309.6 584.4 309.6C585.2 309.6 585.8 309 585.8 308.2Z" fill="white" stroke="#263238" stroke-miterlimit="10" stroke-linecap="round" stroke-linejoin="round"/>
<path d="M590.3 308.2C590.3 307.4 589.7 306.8 588.9 306.8C588.1 306.8 587.5 307.4 587.5 308.2C587.5 309 588.1 309.6 588.9 309.6C589.7 309.6 590.3 309 590.3 308.2Z" fill="white" stroke="#263238" stroke-miterlimit="10" stroke-linecap="round" stroke-linejoin="round"/>
<path d="M594.8 308.2C594.8 307.4 594.2 306.8 593.4 306.8C592.6 306.8 592 307.4 592 308.2C592 309 592.6 309.6 593.4 309.6C594.2 309.6 594.8 309 594.8 308.2Z" fill="white" stroke="#263238" stroke-miterlimit="10" stroke-linecap="round" stroke-linejoin="round"/>
<path d="M569.6 316.8L562.2 322.6L569.6 328.5" stroke="#263238" stroke-width="3" stroke-miterlimit="10" stroke-linecap="round" stroke-linejoin="round"/>
<path d="M579.7 316.8L587.1 322.6L579.7 328.5" stroke="#263238" stroke-width="3" stroke-miterlimit="10" stroke-linecap="round" stroke-linejoin="round"/>
<path d="M575.6 315.5L573.3 329.5" stroke="#263238" stroke-width="3" stroke-miterlimit="10" stroke-linecap="round" stroke-linejoin="round"/>
<path d="M583.7 336.1H591.9" stroke="#263238" stroke-miterlimit="10" stroke-linecap="round" stroke-linejoin="round"/>
<path d="M571.6 336.1H582.2" stroke="#263238" stroke-miterlimit="10" stroke-linecap="round" stroke-linejoin="round"/>
<path d="M562.7 336.1H569.3" stroke="#263238" stroke-miterlimit="10" stroke-linecap="round" stroke-linejoin="round"/>
<path d="M558.1 336.1H561.2" stroke="#263238" stroke-miterlimit="10" stroke-linecap="round" stroke-linejoin="round"/>
<path d="M587.1 341H591.9" stroke="#263238" stroke-miterlimit="10" stroke-linecap="round" stroke-linejoin="round"/>
<path d="M563.3 341H584.8" stroke="#263238" stroke-miterlimit="10" stroke-linecap="round" stroke-linejoin="round"/>
<path d="M558.1 341H560.8" stroke="#263238" stroke-miterlimit="10" stroke-linecap="round" stroke-linejoin="round"/>
<path d="M575.6 345.8H591.9" stroke="#263238" stroke-miterlimit="10" stroke-linecap="round" stroke-linejoin="round"/>
<path d="M562.1 345.8H572.7" stroke="#263238" stroke-miterlimit="10" stroke-linecap="round" stroke-linejoin="round"/>
<path d="M558.1 345.8H560.4" stroke="#263238" stroke-miterlimit="10" stroke-linecap="round" stroke-linejoin="round"/>
<path d="M587.3 350.6H591.9" stroke="#263238" stroke-miterlimit="10" stroke-linecap="round" stroke-linejoin="round"/>
<path d="M571.8 350.6H584.8" stroke="#263238" stroke-miterlimit="10" stroke-linecap="round" stroke-linejoin="round"/>
<path d="M558.1 350.6H569.3" stroke="#263238" stroke-miterlimit="10" stroke-linecap="round" stroke-linejoin="round"/>
<path d="M605.8 367.1H573.4C570.4 367.1 568 364.7 568 361.7V317.9C568 316.3 569.3 314.9 571 314.9H608.2C609.8 314.9 611.2 316.2 611.2 317.9V361.7C611.1 364.8 608.7 367.1 605.8 367.1Z" fill="white" stroke="#263238" stroke-miterlimit="10" stroke-linecap="round" stroke-linejoin="round"/>
<path d="M611.1 320.4H568.1V318C568.1 316.4 569.4 315 571.1 315H608.3C609.9 315 611.3 316.3 611.3 318V320.3H611.1V320.4Z" fill="#263238" stroke="#263238" stroke-miterlimit="10" stroke-linecap="round" stroke-linejoin="round"/>
<path d="M599.2 319.2C599.973 319.2 600.6 318.573 600.6 317.8C600.6 317.027 599.973 316.4 599.2 316.4C598.427 316.4 597.8 317.027 597.8 317.8C597.8 318.573 598.427 319.2 599.2 319.2Z" fill="white" stroke="#263238" stroke-miterlimit="10" stroke-linecap="round" stroke-linejoin="round"/>
<path d="M605.1 317.8C605.1 317 604.5 316.4 603.7 316.4C602.9 316.4 602.3 317 602.3 317.8C602.3 318.6 602.9 319.2 603.7 319.2C604.5 319.1 605.1 318.5 605.1 317.8Z" fill="white" stroke="#263238" stroke-miterlimit="10" stroke-linecap="round" stroke-linejoin="round"/>
<path d="M608.2 319.2C608.973 319.2 609.6 318.573 609.6 317.8C609.6 317.027 608.973 316.4 608.2 316.4C607.427 316.4 606.8 317.027 606.8 317.8C606.8 318.573 607.427 319.2 608.2 319.2Z" fill="white" stroke="#263238" stroke-miterlimit="10" stroke-linecap="round" stroke-linejoin="round"/>
<path d="M584.4 326.2L577 332.1L584.4 338" stroke="#263238" stroke-width="3" stroke-miterlimit="10" stroke-linecap="round" stroke-linejoin="round"/>
<path d="M594.5 326.2L601.9 332.1L594.5 338" stroke="#263238" stroke-width="3" stroke-miterlimit="10" stroke-linecap="round" stroke-linejoin="round"/>
<path d="M590.4 325L588.2 339" stroke="#263238" stroke-width="3" stroke-miterlimit="10" stroke-linecap="round" stroke-linejoin="round"/>
<path d="M598.6 345.6H606.7" stroke="#263238" stroke-miterlimit="10" stroke-linecap="round" stroke-linejoin="round"/>
<path d="M586.5 345.6H597.1" stroke="#263238" stroke-miterlimit="10" stroke-linecap="round" stroke-linejoin="round"/>
<path d="M577.6 345.6H584.1" stroke="#263238" stroke-miterlimit="10" stroke-linecap="round" stroke-linejoin="round"/>
<path d="M573 345.6H576.1" stroke="#263238" stroke-miterlimit="10" stroke-linecap="round" stroke-linejoin="round"/>
<path d="M601.9 350.5H606.7" stroke="#263238" stroke-miterlimit="10" stroke-linecap="round" stroke-linejoin="round"/>
<path d="M578.2 350.5H599.6" stroke="#263238" stroke-miterlimit="10" stroke-linecap="round" stroke-linejoin="round"/>
<path d="M573 350.5H575.7" stroke="#263238" stroke-miterlimit="10" stroke-linecap="round" stroke-linejoin="round"/>
<path d="M590.5 355.4H606.7" stroke="#263238" stroke-miterlimit="10" stroke-linecap="round" stroke-linejoin="round"/>
<path d="M576.9 355.4H587.5" stroke="#263238" stroke-miterlimit="10" stroke-linecap="round" stroke-linejoin="round"/>
<path d="M573 355.4H575.2" stroke="#263238" stroke-miterlimit="10" stroke-linecap="round" stroke-linejoin="round"/>
<path d="M602.2 360.1H606.7" stroke="#263238" stroke-miterlimit="10" stroke-linecap="round" stroke-linejoin="round"/>
<path d="M586.7 360.1H599.6" stroke="#263238" stroke-miterlimit="10" stroke-linecap="round" stroke-linejoin="round"/>
<path d="M573 360.1H584.1" stroke="#263238" stroke-miterlimit="10" stroke-linecap="round" stroke-linejoin="round"/>
<path d="M146 385.2C128.4 385.2 114.1 399.5 114.1 417.1H178C177.9 399.5 163.6 385.2 146 385.2Z" fill="white" stroke="#263238" stroke-miterlimit="10" stroke-linecap="round" stroke-linejoin="round"/>
<path d="M152.3 410.8L168 394C162.3 388.5 154.5 385.2 146 385.2C128.4 385.2 114.1 399.5 114.1 417.1H152.2L152.3 410.8Z" fill="#AAD300" stroke="#263238" stroke-miterlimit="10" stroke-linecap="round" stroke-linejoin="round"/>
<path d="M146 398C135.4 398 126.8 406.6 126.8 417.2H165.1C165.2 406.5 156.6 398 146 398Z" stroke="#263238" stroke-miterlimit="10" stroke-linecap="round" stroke-linejoin="round"/>
<path d="M146 408C141 408 136.9 412.1 136.9 417.1H155.1C155.1 412.1 151 408 146 408Z" fill="#263238" stroke="#263238" stroke-miterlimit="10" stroke-linecap="round" stroke-linejoin="round"/>
<path d="M147.8 416.5L145.7 414.4L164.4 396.7L165.4 397.8L147.8 416.5Z" fill="#263238" stroke="#263238" stroke-miterlimit="10" stroke-linecap="round" stroke-linejoin="round"/>
<path d="M564 52.4C556.8 52.4 551 58.2 551 65.4C551 72.6 556.8 78.4 564 78.4C571.2 78.4 577 72.6 577 65.4C577 58.3 571.2 52.4 564 52.4ZM564 73.3C559.7 73.3 556.2 69.8 556.2 65.5C556.2 61.2 559.7 57.7 564 57.7C568.3 57.7 571.8 61.2 571.8 65.5C571.8 69.8 568.3 73.3 564 73.3Z" stroke="#263238" stroke-miterlimit="10" stroke-linecap="round" stroke-linejoin="round"/>
<path d="M571.2 76.3L568.1 72.1C566.9 72.8 565.5 73.3 564 73.3C559.7 73.3 556.2 69.8 556.2 65.5C556.2 61.2 559.7 57.7 564 57.7C565.4 57.7 566.8 58.1 568 58.8L570.7 54.4C568.7 53.2 566.5 52.5 564 52.5C556.8 52.5 551 58.3 551 65.5C551 72.7 556.8 78.5 564 78.5C566.7 78.5 569.1 77.7 571.2 76.3Z" fill="#AAD300" stroke="#263238" stroke-miterlimit="10" stroke-linecap="round" stroke-linejoin="round"/>
<path d="M564 88C556.8 88 551 93.8 551 101C551 108.2 556.8 114 564 114C571.2 114 577 108.2 577 101C577 93.9 571.2 88 564 88ZM564 108.9C559.7 108.9 556.2 105.4 556.2 101.1C556.2 96.8 559.7 93.3 564 93.3C568.3 93.3 571.8 96.8 571.8 101.1C571.8 105.4 568.3 108.9 564 108.9Z" stroke="#263238" stroke-miterlimit="10" stroke-linecap="round" stroke-linejoin="round"/>
<path d="M571.8 101C571.8 105.3 568.3 108.8 564 108.8C562.6 108.8 561.2 108.4 560.1 107.7L557.9 112.4C559.7 113.4 561.8 113.9 564 113.9C571.2 113.9 577 108.1 577 100.9C577 100.1 576.9 99.3 576.8 98.6L571.5 98.8C571.7 99.6 571.8 100.3 571.8 101Z" fill="#AAD300" stroke="#263238" stroke-miterlimit="10" stroke-linecap="round" stroke-linejoin="round"/>
<path d="M553.6 131.1H548.9V143.3H553.6V131.1Z" fill="#263238" stroke="#263238" stroke-miterlimit="10" stroke-linecap="round" stroke-linejoin="round"/>
<path d="M562.6 132H557.9V143.3H562.6V132Z" fill="#AAD300" stroke="#263238" stroke-miterlimit="10" stroke-linecap="round" stroke-linejoin="round"/>
<path d="M571.6 126.4H566.9V143.4H571.6V126.4Z" fill="#263238" stroke="#263238" stroke-miterlimit="10" stroke-linecap="round" stroke-linejoin="round"/>
<path d="M580.6 120.2H575.9V143.3H580.6V120.2Z" fill="#AAD300" stroke="#263238" stroke-miterlimit="10" stroke-linecap="round" stroke-linejoin="round"/>
<path d="M109.8 144V141.7H99.9V144V145.5V157.8H120.8V144H109.8Z" fill="white" stroke="#263238" stroke-miterlimit="10" stroke-linecap="round" stroke-linejoin="round"/>
<path d="M135.7 144V141.7H125.7V144V145.5V157.8H146.7V144H135.7Z" fill="white" stroke="#263238" stroke-miterlimit="10" stroke-linecap="round" stroke-linejoin="round"/>
<path d="M109.8 167.1V164.8H99.9V167.1V168.6V180.9H120.8V167.1H109.8Z" fill="white" stroke="#263238" stroke-miterlimit="10" stroke-linecap="round" stroke-linejoin="round"/>
<path d="M135.7 167.1V164.8H125.7V167.1V168.6V180.9H146.7V167.1H135.7Z" fill="white" stroke="#263238" stroke-miterlimit="10" stroke-linecap="round" stroke-linejoin="round"/>
<path d="M109.8 190.1V187.8H99.9V190.1V191.7V204H120.8V190.1H109.8Z" fill="white" stroke="#263238" stroke-miterlimit="10" stroke-linecap="round" stroke-linejoin="round"/>
<path d="M135.7 190.1V187.8H125.7V190.1V191.7V204H146.7V190.1H135.7Z" fill="#AAD300" stroke="#263238" stroke-miterlimit="10" stroke-linecap="round" stroke-linejoin="round"/>
<path d="M109.8 213.2V210.9H99.9V213.2V214.7V227H120.8V213.2H109.8Z" fill="white" stroke="#263238" stroke-miterlimit="10" stroke-linecap="round" stroke-linejoin="round"/>
<path d="M135.7 213.2V210.9H125.7V213.2V214.7V227H146.7V213.2H135.7Z" fill="white" stroke="#263238" stroke-miterlimit="10" stroke-linecap="round" stroke-linejoin="round"/>
<path d="M109.8 236.2V233.9H99.9V236.2V237.8V250.1H120.8V236.2H109.8Z" fill="white" stroke="#263238" stroke-miterlimit="10" stroke-linecap="round" stroke-linejoin="round"/>
<path d="M135.7 236.2V233.9H125.7V236.2V237.8V250.1H146.7V236.2H135.7Z" fill="white" stroke="#263238" stroke-miterlimit="10" stroke-linecap="round" stroke-linejoin="round"/>
<path d="M158.5 87.3L160.8 94.4H168.2L162.1 98.8L164.5 105.9L158.5 101.5L152.4 105.9L154.8 98.8L148.6 94.4H156.1L158.5 87.3Z" fill="#AAD300" stroke="#263238" stroke-miterlimit="10" stroke-linecap="round" stroke-linejoin="round"/>
<path d="M183.1 87.3L185.5 94.4H193L186.9 98.8L189.1 105.9L183.1 101.5L177 105.9L179.4 98.8L173.4 94.4H180.9L183.1 87.3Z" fill="#AAD300" stroke="#263238" stroke-miterlimit="10" stroke-linecap="round" stroke-linejoin="round"/>
<path d="M207.9 87.3L210.1 94.4H217.6L211.5 98.8L213.9 105.9L207.9 101.5L201.8 105.9L204 98.8L198 94.4H205.5L207.9 87.3Z" fill="#AAD300" stroke="#263238" stroke-miterlimit="10" stroke-linecap="round" stroke-linejoin="round"/>
<path d="M232.5 87.3L234.9 94.4H242.4L236.2 98.8L238.5 105.9L232.5 101.5L226.5 105.9L228.8 98.8L222.8 94.4H230.2L232.5 87.3Z" fill="#AAD300" stroke="#263238" stroke-miterlimit="10" stroke-linecap="round" stroke-linejoin="round"/>
<path d="M257.2 87.3L259.5 94.4H267L261 98.8L263.2 105.9L257.2 101.5L251.1 105.9L253.5 98.8L247.5 94.4H254.9L257.2 87.3Z" fill="#AAD300" stroke="#263238" stroke-miterlimit="10" stroke-linecap="round" stroke-linejoin="round"/>
<path d="M346.5 442C437.351 442 511 439.538 511 436.5C511 433.462 437.351 431 346.5 431C255.649 431 182 433.462 182 436.5C182 439.538 255.649 442 346.5 442Z" fill="#263238" stroke="#263238" stroke-miterlimit="10" stroke-linecap="round" stroke-linejoin="round"/>
<path d="M506 381.2H186.8C182.1 381.2 178.3 377.4 178.3 372.7V137.5C178.3 132.8 182.1 129 186.8 129H506C510.7 129 514.5 132.8 514.5 137.5V372.7C514.5 377.4 510.7 381.2 506 381.2Z" fill="#263238" stroke="#263238" stroke-miterlimit="10" stroke-linecap="round" stroke-linejoin="round"/>
<path d="M388.2 400.6V372.2H304.5V400.6C304.5 409.9 301.4 418.9 295.6 426.1L291.9 430.7H400.7L397 426.1C391.3 418.9 388.2 409.9 388.2 400.6Z" fill="white" stroke="#263238" stroke-miterlimit="10" stroke-linecap="round" stroke-linejoin="round"/>
<path d="M388.2 372.2H304.5V395H388.2V372.2Z" fill="#263238" stroke="#263238" stroke-miterlimit="10" stroke-linecap="round" stroke-linejoin="round"/>
<path d="M400.8 430.8H292V435.9H400.8V430.8Z" fill="white" stroke="#263238" stroke-miterlimit="10" stroke-linecap="round" stroke-linejoin="round"/>
<path d="M506 381.2H186.8C182.1 381.2 178.3 377.4 178.3 372.7V342H514.5V372.7C514.5 377.4 510.7 381.2 506 381.2Z" fill="white" stroke="#263238" stroke-miterlimit="10" stroke-linecap="round" stroke-linejoin="round"/>
<path d="M497.6 144.7H195.2V322.8H497.6V144.7Z" fill="#AAD300" stroke="#263238" stroke-miterlimit="10" stroke-linecap="round" stroke-linejoin="round"/>
<path d="M318.4 268.4H422.5V168.7C422.5 165.4 419.8 162.6 416.4 162.6H324.4C321.1 162.6 318.3 165.3 318.3 168.7V268.4H318.4Z" fill="#AAD300" stroke="#263238" stroke-miterlimit="10" stroke-linecap="round" stroke-linejoin="round"/>
<path d="M318.4 176.5H422.5V168.7C422.5 165.4 419.8 162.6 416.4 162.6H324.4C321.1 162.6 318.3 165.3 318.3 168.7V176.5H318.4Z" fill="#AAD300" stroke="#263238" stroke-miterlimit="10" stroke-linecap="round" stroke-linejoin="round"/>
<path d="M405.8 201C410.329 201 414 197.329 414 192.8C414 188.271 410.329 184.6 405.8 184.6C401.271 184.6 397.6 188.271 397.6 192.8C397.6 197.329 401.271 201 405.8 201Z" fill="#AAD300" stroke="#263238" stroke-miterlimit="10" stroke-linecap="round" stroke-linejoin="round"/>
<path d="M414 210.8H401.1V214.5H414V210.8Z" fill="#AAD300" stroke="#263238" stroke-miterlimit="10" stroke-linecap="round" stroke-linejoin="round"/>
<path d="M414 224.3H401.1V228H414V224.3Z" fill="#AAD300" stroke="#263238" stroke-miterlimit="10" stroke-linecap="round" stroke-linejoin="round"/>
<path d="M414 237.9H401.1V241.6H414V237.9Z" fill="#AAD300" stroke="#263238" stroke-miterlimit="10" stroke-linecap="round" stroke-linejoin="round"/>
<path d="M414 251.3H401.1V255H414V251.3Z" fill="#AAD300" stroke="#263238" stroke-miterlimit="10" stroke-linecap="round" stroke-linejoin="round"/>
<path d="M390 182.8H326.2V203.9H390V182.8Z" fill="#AAD300" stroke="#263238" stroke-miterlimit="10" stroke-linecap="round" stroke-linejoin="round"/>
<path d="M388.5 209.3H329.2V239H388.5V209.3Z" fill="#AAD300" stroke="#263238" stroke-miterlimit="10" stroke-linecap="round" stroke-linejoin="round"/>
<path d="M388.6 239L367.9 227.3L357.4 230.4L341 217.4L329.6 224.8V239H388.6Z" fill="#AAD300" stroke="#263238" stroke-miterlimit="10" stroke-linecap="round" stroke-linejoin="round"/>
<path d="M372.8 219C372.8 221.6 374.9 223.6 377.4 223.6C380 223.6 382 221.5 382 219C382 216.4 379.9 214.4 377.4 214.4C374.9 214.3 372.8 216.4 372.8 219Z" fill="#AAD300" stroke="#263238" stroke-miterlimit="10" stroke-linecap="round" stroke-linejoin="round"/>
<path d="M370.8 245.4H326.6" stroke="#263238" stroke-miterlimit="10" stroke-linecap="round" stroke-linejoin="round"/>
<path d="M389.3 245.4H373.8" stroke="#263238" stroke-miterlimit="10" stroke-linecap="round" stroke-linejoin="round"/>
<path d="M340.2 251.3H326.6" stroke="#263238" stroke-miterlimit="10" stroke-linecap="round" stroke-linejoin="round"/>
<path d="M375 251.3H344.1" stroke="#263238" stroke-miterlimit="10" stroke-linecap="round" stroke-linejoin="round"/>
<path d="M389.3 251.3H378.3" stroke="#263238" stroke-miterlimit="10" stroke-linecap="round" stroke-linejoin="round"/>
<path d="M360.6 257.1H326.6" stroke="#263238" stroke-miterlimit="10" stroke-linecap="round" stroke-linejoin="round"/>
<path d="M389.3 257.1H364.2" stroke="#263238" stroke-miterlimit="10" stroke-linecap="round" stroke-linejoin="round"/>
<path d="M338.7 263H326.6" stroke="#263238" stroke-miterlimit="10" stroke-linecap="round" stroke-linejoin="round"/>
<path d="M381.3 263H341.7" stroke="#263238" stroke-miterlimit="10" stroke-linecap="round" stroke-linejoin="round"/>
<path d="M389.3 263H384.6" stroke="#263238" stroke-miterlimit="10" stroke-linecap="round" stroke-linejoin="round"/>
<path d="M292.7 287.8H396.8V188.1C396.8 184.8 394.1 182 390.7 182H298.7C295.4 182 292.6 184.7 292.6 188.1V287.8H292.7Z" fill="#AAD300" stroke="#263238" stroke-miterlimit="10" stroke-linecap="round" stroke-linejoin="round"/>
<path d="M292.7 195.9H396.8V188.1C396.8 184.8 394.1 182 390.7 182H298.7C295.4 182 292.6 184.7 292.6 188.1V195.9H292.7Z" fill="#AAD300" stroke="#263238" stroke-miterlimit="10" stroke-linecap="round" stroke-linejoin="round"/>
<path d="M387.678 215.285C389.403 211.097 387.406 206.304 383.218 204.579C379.031 202.855 374.238 204.852 372.513 209.039C370.789 213.227 372.785 218.02 376.973 219.745C381.161 221.469 385.954 219.472 387.678 215.285Z" fill="#AAD300" stroke="#263238" stroke-miterlimit="10" stroke-linecap="round" stroke-linejoin="round"/>
<path d="M388.3 230.2H375.4V233.9H388.3V230.2Z" fill="#AAD300" stroke="#263238" stroke-miterlimit="10" stroke-linecap="round" stroke-linejoin="round"/>
<path d="M388.3 243.8H375.4V247.5H388.3V243.8Z" fill="#AAD300" stroke="#263238" stroke-miterlimit="10" stroke-linecap="round" stroke-linejoin="round"/>
<path d="M388.3 257.4H375.4V261.1H388.3V257.4Z" fill="#AAD300" stroke="#263238" stroke-miterlimit="10" stroke-linecap="round" stroke-linejoin="round"/>
<path d="M388.3 270.8H375.4V274.5H388.3V270.8Z" fill="#AAD300" stroke="#263238" stroke-miterlimit="10" stroke-linecap="round" stroke-linejoin="round"/>
<path d="M364.3 202.2H300.5V223.3H364.3V202.2Z" fill="#AAD300" stroke="#263238" stroke-miterlimit="10" stroke-linecap="round" stroke-linejoin="round"/>
<path d="M362.9 228.8H303.6V258.5H362.9V228.8Z" fill="#AAD300" stroke="#263238" stroke-miterlimit="10" stroke-linecap="round" stroke-linejoin="round"/>
<path d="M362.9 258.5L342.2 246.7L331.7 249.8L315.3 236.8L303.8 244.3V258.5H362.9Z" fill="#AAD300" stroke="#263238" stroke-miterlimit="10" stroke-linecap="round" stroke-linejoin="round"/>
<path d="M347.1 238.4C347.1 241 349.2 243 351.7 243C354.3 243 356.3 240.9 356.3 238.4C356.3 235.8 354.2 233.8 351.7 233.8C349.2 233.8 347.1 235.8 347.1 238.4Z" fill="#AAD300" stroke="#263238" stroke-miterlimit="10" stroke-linecap="round" stroke-linejoin="round"/>
<path d="M345.1 264.8H300.9" stroke="#263238" stroke-miterlimit="10" stroke-linecap="round" stroke-linejoin="round"/>
<path d="M363.6 264.8H348.1" stroke="#263238" stroke-miterlimit="10" stroke-linecap="round" stroke-linejoin="round"/>
<path d="M314.4 270.7H300.9" stroke="#263238" stroke-miterlimit="10" stroke-linecap="round" stroke-linejoin="round"/>
<path d="M349.3 270.7H318.3" stroke="#263238" stroke-miterlimit="10" stroke-linecap="round" stroke-linejoin="round"/>
<path d="M363.6 270.7H352.6" stroke="#263238" stroke-miterlimit="10" stroke-linecap="round" stroke-linejoin="round"/>
<path d="M334.9 276.6H300.9" stroke="#263238" stroke-miterlimit="10" stroke-linecap="round" stroke-linejoin="round"/>
<path d="M363.6 276.6H338.5" stroke="#263238" stroke-miterlimit="10" stroke-linecap="round" stroke-linejoin="round"/>
<path d="M312.9 282.5H300.9" stroke="#263238" stroke-miterlimit="10" stroke-linecap="round" stroke-linejoin="round"/>
<path d="M355.6 282.5H315.9" stroke="#263238" stroke-miterlimit="10" stroke-linecap="round" stroke-linejoin="round"/>
<path d="M363.6 282.5H358.9" stroke="#263238" stroke-miterlimit="10" stroke-linecap="round" stroke-linejoin="round"/>
<path d="M267 307.3H371.1V207.6C371.1 204.3 368.4 201.5 365 201.5H273C269.7 201.5 266.9 204.2 266.9 207.6V307.3H267Z" fill="#AAD300" stroke="#263238" stroke-miterlimit="10" stroke-linecap="round" stroke-linejoin="round"/>
<path d="M267 215.4H371.1V207.6C371.1 204.3 368.4 201.5 365 201.5H273C269.7 201.5 266.9 204.2 266.9 207.6V215.4H267Z" fill="#AAD300" stroke="#263238" stroke-miterlimit="10" stroke-linecap="round" stroke-linejoin="round"/>
<path d="M362.503 233.013C363.229 228.543 360.193 224.331 355.723 223.605C351.253 222.88 347.041 225.916 346.315 230.386C345.59 234.856 348.625 239.068 353.096 239.794C357.566 240.519 361.778 237.484 362.503 233.013Z" fill="#AAD300" stroke="#263238" stroke-miterlimit="10" stroke-linecap="round" stroke-linejoin="round"/>
<path d="M362.6 249.6H349.7V253.3H362.6V249.6Z" fill="#AAD300" stroke="#263238" stroke-miterlimit="10" stroke-linecap="round" stroke-linejoin="round"/>
<path d="M362.6 263.2H349.7V266.9H362.6V263.2Z" fill="#AAD300" stroke="#263238" stroke-miterlimit="10" stroke-linecap="round" stroke-linejoin="round"/>
<path d="M362.6 276.8H349.7V280.5H362.6V276.8Z" fill="#AAD300" stroke="#263238" stroke-miterlimit="10" stroke-linecap="round" stroke-linejoin="round"/>
<path d="M362.6 290.2H349.7V293.9H362.6V290.2Z" fill="#AAD300" stroke="#263238" stroke-miterlimit="10" stroke-linecap="round" stroke-linejoin="round"/>
<path d="M338.5 221.7H274.7V242.8H338.5V221.7Z" fill="#AAD300" stroke="#263238" stroke-miterlimit="10" stroke-linecap="round" stroke-linejoin="round"/>
<path d="M337.2 248.3H277.9V278H337.2V248.3Z" fill="#AAD300" stroke="#263238" stroke-miterlimit="10" stroke-linecap="round" stroke-linejoin="round"/>
<path d="M319.4 284.2H275.2" stroke="#263238" stroke-miterlimit="10" stroke-linecap="round" stroke-linejoin="round"/>
<path d="M337.8 284.2H322.4" stroke="#263238" stroke-miterlimit="10" stroke-linecap="round" stroke-linejoin="round"/>
<path d="M288.7 290.1H275.2" stroke="#263238" stroke-miterlimit="10" stroke-linecap="round" stroke-linejoin="round"/>
<path d="M323.6 290.1H292.6" stroke="#263238" stroke-miterlimit="10" stroke-linecap="round" stroke-linejoin="round"/>
<path d="M337.8 290.1H326.9" stroke="#263238" stroke-miterlimit="10" stroke-linecap="round" stroke-linejoin="round"/>
<path d="M309.1 296H275.2" stroke="#263238" stroke-miterlimit="10" stroke-linecap="round" stroke-linejoin="round"/>
<path d="M337.8 296H312.8" stroke="#263238" stroke-miterlimit="10" stroke-linecap="round" stroke-linejoin="round"/>
<path d="M287.2 301.9H275.2" stroke="#263238" stroke-miterlimit="10" stroke-linecap="round" stroke-linejoin="round"/>
<path d="M329.9 301.9H290.2" stroke="#263238" stroke-miterlimit="10" stroke-linecap="round" stroke-linejoin="round"/>
<path d="M337.8 301.9H333.2" stroke="#263238" stroke-miterlimit="10" stroke-linecap="round" stroke-linejoin="round"/>
<defs>
<linearGradient id="paint0_linear_220_50" x1="417" y1="306" x2="263" y2="500" gradientUnits="userSpaceOnUse">
<stop stop-color="#F8F8F8"/>
<stop offset="1" stop-color="#F8F8F8" stop-opacity="0.7"/>
</linearGradient>
</defs>
</svg>
