<svg width="343" height="208" viewBox="0 0 343 208" fill="none" xmlns="http://www.w3.org/2000/svg">
<path d="M99.079 135.487V68.153C99.079 63.0856 103.187 58.9773 108.255 58.9773H245.164V120.187" stroke="#263238" stroke-width="7" stroke-linecap="round" stroke-linejoin="round"/>
<path d="M237.77 114.576L245.164 117.718L252.558 114.576L245.164 132.098L237.77 114.576Z" fill="#263238"/>
<path d="M305.286 136.264H61.3978C56.4665 136.264 52.4684 140.262 52.4684 145.194V171.392" stroke="#263238" stroke-width="7" stroke-miterlimit="10" stroke-linecap="round" stroke-linejoin="round"/>
<path d="M115.558 161.096H84.0066C82.082 161.096 80.5138 159.534 80.5138 157.603V116.41C80.5138 115.347 81.3757 114.485 82.4384 114.485H117.126C118.189 114.485 119.05 115.347 119.05 116.41V157.603C119.044 159.527 117.482 161.096 115.558 161.096Z" fill="white" stroke="#263238" stroke-miterlimit="10" stroke-linecap="round" stroke-linejoin="round"/>
<path d="M119.044 119.189H80.5138V116.416C80.5138 115.353 81.3757 114.491 82.4384 114.491H117.126C118.189 114.491 119.05 115.353 119.05 116.416V119.189H119.044Z" fill="#263238" stroke="#263238" stroke-miterlimit="10" stroke-linecap="round" stroke-linejoin="round"/>
<path d="M109.654 116.934C109.654 116.241 109.091 115.684 108.404 115.684C107.71 115.684 107.153 116.248 107.153 116.934C107.153 117.628 107.717 118.185 108.404 118.185C109.091 118.185 109.654 117.628 109.654 116.934Z" fill="white" stroke="#263238" stroke-miterlimit="10" stroke-linecap="round" stroke-linejoin="round"/>
<path d="M113.665 116.934C113.665 116.241 113.102 115.684 112.415 115.684C111.722 115.684 111.164 116.248 111.164 116.934C111.164 117.628 111.728 118.185 112.415 118.185C113.102 118.185 113.665 117.628 113.665 116.934Z" fill="white" stroke="#263238" stroke-miterlimit="10" stroke-linecap="round" stroke-linejoin="round"/>
<path d="M117.67 116.934C117.67 116.241 117.106 115.684 116.42 115.684C115.726 115.684 115.169 116.248 115.169 116.934C115.169 117.628 115.733 118.185 116.42 118.185C117.113 118.185 117.67 117.628 117.67 116.934Z" fill="white" stroke="#263238" stroke-miterlimit="10" stroke-linecap="round" stroke-linejoin="round"/>
<path d="M95.1457 124.548L88.549 129.765L95.1457 134.988" stroke="#263238" stroke-width="3" stroke-miterlimit="10" stroke-linecap="round" stroke-linejoin="round"/>
<path d="M104.211 124.548L110.808 129.765L104.211 134.988" stroke="#263238" stroke-width="3" stroke-miterlimit="10" stroke-linecap="round" stroke-linejoin="round"/>
<path d="M100.524 123.317L98.5283 135.908" stroke="#263238" stroke-width="3" stroke-miterlimit="10" stroke-linecap="round" stroke-linejoin="round"/>
<path d="M107.795 141.87H115.085" stroke="#263238" stroke-miterlimit="10" stroke-linecap="round" stroke-linejoin="round"/>
<path d="M96.9795 141.87H106.466" stroke="#263238" stroke-miterlimit="10" stroke-linecap="round" stroke-linejoin="round"/>
<path d="M89.0156 141.87H94.893" stroke="#263238" stroke-miterlimit="10" stroke-linecap="round" stroke-linejoin="round"/>
<path d="M84.9332 141.87H87.6872" stroke="#263238" stroke-miterlimit="10" stroke-linecap="round" stroke-linejoin="round"/>
<path d="M110.827 146.179H115.085" stroke="#263238" stroke-miterlimit="10" stroke-linecap="round" stroke-linejoin="round"/>
<path d="M89.5858 146.179H108.741" stroke="#263238" stroke-miterlimit="10" stroke-linecap="round" stroke-linejoin="round"/>
<path d="M84.9332 146.179H87.3114" stroke="#263238" stroke-miterlimit="10" stroke-linecap="round" stroke-linejoin="round"/>
<path d="M100.582 150.488H115.085" stroke="#263238" stroke-miterlimit="10" stroke-linecap="round" stroke-linejoin="round"/>
<path d="M88.4454 150.488H97.9321" stroke="#263238" stroke-miterlimit="10" stroke-linecap="round" stroke-linejoin="round"/>
<path d="M84.9332 150.488H86.9291" stroke="#263238" stroke-miterlimit="10" stroke-linecap="round" stroke-linejoin="round"/>
<path d="M111.015 154.797H115.085" stroke="#263238" stroke-miterlimit="10" stroke-linecap="round" stroke-linejoin="round"/>
<path d="M97.174 154.797H108.741" stroke="#263238" stroke-miterlimit="10" stroke-linecap="round" stroke-linejoin="round"/>
<path d="M84.9332 154.797H94.893" stroke="#263238" stroke-miterlimit="10" stroke-linecap="round" stroke-linejoin="round"/>
<path d="M188.134 161.096H156.583C154.658 161.096 153.09 159.534 153.09 157.603V116.41C153.09 115.347 153.952 114.485 155.014 114.485H189.702C190.765 114.485 191.626 115.347 191.626 116.41V157.603C191.62 159.527 190.058 161.096 188.134 161.096Z" fill="white" stroke="#263238" stroke-miterlimit="10" stroke-linecap="round" stroke-linejoin="round"/>
<path d="M191.62 119.189H153.09V116.416C153.09 115.353 153.952 114.491 155.014 114.491H189.702C190.765 114.491 191.626 115.353 191.626 116.416V119.189H191.62Z" fill="#263238" stroke="#263238" stroke-miterlimit="10" stroke-linecap="round" stroke-linejoin="round"/>
<path d="M182.23 116.934C182.23 116.241 181.667 115.684 180.98 115.684C180.286 115.684 179.729 116.248 179.729 116.934C179.729 117.628 180.293 118.185 180.98 118.185C181.667 118.185 182.23 117.628 182.23 116.934Z" fill="white" stroke="#263238" stroke-miterlimit="10" stroke-linecap="round" stroke-linejoin="round"/>
<path d="M186.242 116.934C186.242 116.241 185.678 115.684 184.991 115.684C184.304 115.684 183.74 116.248 183.74 116.934C183.74 117.628 184.304 118.185 184.991 118.185C185.678 118.185 186.242 117.628 186.242 116.934Z" fill="white" stroke="#263238" stroke-miterlimit="10" stroke-linecap="round" stroke-linejoin="round"/>
<path d="M190.246 116.934C190.246 116.241 189.682 115.684 188.996 115.684C188.302 115.684 187.745 116.248 187.745 116.934C187.745 117.628 188.309 118.185 188.996 118.185C189.689 118.185 190.246 117.628 190.246 116.934Z" fill="white" stroke="#263238" stroke-miterlimit="10" stroke-linecap="round" stroke-linejoin="round"/>
<path d="M167.722 124.548L161.125 129.765L167.722 134.988" stroke="#263238" stroke-width="3" stroke-miterlimit="10" stroke-linecap="round" stroke-linejoin="round"/>
<path d="M176.787 124.548L183.384 129.765L176.787 134.988" stroke="#263238" stroke-width="3" stroke-miterlimit="10" stroke-linecap="round" stroke-linejoin="round"/>
<path d="M173.1 123.317L171.104 135.908" stroke="#263238" stroke-width="3" stroke-miterlimit="10" stroke-linecap="round" stroke-linejoin="round"/>
<path d="M180.371 141.87H187.661" stroke="#263238" stroke-miterlimit="10" stroke-linecap="round" stroke-linejoin="round"/>
<path d="M169.555 141.87H179.042" stroke="#263238" stroke-miterlimit="10" stroke-linecap="round" stroke-linejoin="round"/>
<path d="M161.592 141.87H167.469" stroke="#263238" stroke-miterlimit="10" stroke-linecap="round" stroke-linejoin="round"/>
<path d="M157.509 141.87H160.263" stroke="#263238" stroke-miterlimit="10" stroke-linecap="round" stroke-linejoin="round"/>
<path d="M183.403 146.179H187.661" stroke="#263238" stroke-miterlimit="10" stroke-linecap="round" stroke-linejoin="round"/>
<path d="M162.162 146.179H181.317" stroke="#263238" stroke-miterlimit="10" stroke-linecap="round" stroke-linejoin="round"/>
<path d="M157.509 146.179H159.887" stroke="#263238" stroke-miterlimit="10" stroke-linecap="round" stroke-linejoin="round"/>
<path d="M173.158 150.488H187.661" stroke="#263238" stroke-miterlimit="10" stroke-linecap="round" stroke-linejoin="round"/>
<path d="M161.021 150.488H170.508" stroke="#263238" stroke-miterlimit="10" stroke-linecap="round" stroke-linejoin="round"/>
<path d="M157.509 150.488H159.505" stroke="#263238" stroke-miterlimit="10" stroke-linecap="round" stroke-linejoin="round"/>
<path d="M183.591 154.797H187.661" stroke="#263238" stroke-miterlimit="10" stroke-linecap="round" stroke-linejoin="round"/>
<path d="M169.75 154.797H181.317" stroke="#263238" stroke-miterlimit="10" stroke-linecap="round" stroke-linejoin="round"/>
<path d="M157.509 154.797H167.469" stroke="#263238" stroke-miterlimit="10" stroke-linecap="round" stroke-linejoin="round"/>
<path d="M337.608 161.096H306.057C304.132 161.096 302.564 159.534 302.564 157.603V116.41C302.564 115.347 303.426 114.485 304.489 114.485H339.176C340.239 114.485 341.101 115.347 341.101 116.41V157.603C341.094 159.527 339.532 161.096 337.608 161.096Z" fill="white" stroke="#263238" stroke-miterlimit="10" stroke-linecap="round" stroke-linejoin="round"/>
<path d="M341.094 119.189H302.564V116.416C302.564 115.353 303.426 114.491 304.489 114.491H339.176C340.239 114.491 341.101 115.353 341.101 116.416V119.189H341.094Z" fill="#263238" stroke="#263238" stroke-miterlimit="10" stroke-linecap="round" stroke-linejoin="round"/>
<path d="M331.705 116.934C331.705 116.241 331.141 115.684 330.454 115.684C329.767 115.684 329.203 116.248 329.203 116.934C329.203 117.628 329.767 118.185 330.454 118.185C331.141 118.185 331.705 117.628 331.705 116.934Z" fill="white" stroke="#263238" stroke-miterlimit="10" stroke-linecap="round" stroke-linejoin="round"/>
<path d="M335.709 116.934C335.709 116.241 335.145 115.684 334.459 115.684C333.765 115.684 333.208 116.248 333.208 116.934C333.208 117.628 333.772 118.185 334.459 118.185C335.152 118.185 335.709 117.628 335.709 116.934Z" fill="white" stroke="#263238" stroke-miterlimit="10" stroke-linecap="round" stroke-linejoin="round"/>
<path d="M339.72 116.934C339.72 116.241 339.157 115.684 338.47 115.684C337.783 115.684 337.219 116.248 337.219 116.934C337.219 117.628 337.783 118.185 338.47 118.185C339.157 118.185 339.72 117.628 339.72 116.934Z" fill="white" stroke="#263238" stroke-miterlimit="10" stroke-linecap="round" stroke-linejoin="round"/>
<path d="M317.196 124.548L310.593 129.765L317.196 134.988" stroke="#263238" stroke-width="3" stroke-miterlimit="10" stroke-linecap="round" stroke-linejoin="round"/>
<path d="M326.255 124.548L332.858 129.765L326.255 134.988" stroke="#263238" stroke-width="3" stroke-miterlimit="10" stroke-linecap="round" stroke-linejoin="round"/>
<path d="M322.568 123.317L320.572 135.908" stroke="#263238" stroke-width="3" stroke-miterlimit="10" stroke-linecap="round" stroke-linejoin="round"/>
<path d="M329.838 141.87H337.135" stroke="#263238" stroke-miterlimit="10" stroke-linecap="round" stroke-linejoin="round"/>
<path d="M319.03 141.87H328.51" stroke="#263238" stroke-miterlimit="10" stroke-linecap="round" stroke-linejoin="round"/>
<path d="M311.066 141.87H316.943" stroke="#263238" stroke-miterlimit="10" stroke-linecap="round" stroke-linejoin="round"/>
<path d="M306.983 141.87H309.737" stroke="#263238" stroke-miterlimit="10" stroke-linecap="round" stroke-linejoin="round"/>
<path d="M332.877 146.179H337.135" stroke="#263238" stroke-miterlimit="10" stroke-linecap="round" stroke-linejoin="round"/>
<path d="M311.636 146.179H330.791" stroke="#263238" stroke-miterlimit="10" stroke-linecap="round" stroke-linejoin="round"/>
<path d="M306.983 146.179H309.355" stroke="#263238" stroke-miterlimit="10" stroke-linecap="round" stroke-linejoin="round"/>
<path d="M322.633 150.488H337.135" stroke="#263238" stroke-miterlimit="10" stroke-linecap="round" stroke-linejoin="round"/>
<path d="M310.495 150.488H319.976" stroke="#263238" stroke-miterlimit="10" stroke-linecap="round" stroke-linejoin="round"/>
<path d="M306.983 150.488H308.979" stroke="#263238" stroke-miterlimit="10" stroke-linecap="round" stroke-linejoin="round"/>
<path d="M333.065 154.797H337.135" stroke="#263238" stroke-miterlimit="10" stroke-linecap="round" stroke-linejoin="round"/>
<path d="M319.218 154.797H330.791" stroke="#263238" stroke-miterlimit="10" stroke-linecap="round" stroke-linejoin="round"/>
<path d="M306.983 154.797H316.943" stroke="#263238" stroke-miterlimit="10" stroke-linecap="round" stroke-linejoin="round"/>
<path d="M260.496 95.4273H228.945C227.02 95.4273 225.452 93.8656 225.452 91.9346V50.7412C225.452 49.6785 226.314 48.8167 227.377 48.8167H262.064C263.127 48.8167 263.989 49.6785 263.989 50.7412V91.9346C263.982 93.8656 262.42 95.4273 260.496 95.4273Z" fill="white" stroke="#263238" stroke-miterlimit="10" stroke-linecap="round" stroke-linejoin="round"/>
<path d="M263.982 53.5211H225.452V50.7477C225.452 49.685 226.314 48.8231 227.377 48.8231H262.064C263.127 48.8231 263.989 49.685 263.989 50.7477V53.5211H263.982Z" fill="#263238" stroke="#263238" stroke-miterlimit="10" stroke-linecap="round" stroke-linejoin="round"/>
<path d="M254.593 51.2661C254.593 50.5727 254.029 50.0154 253.342 50.0154C252.649 50.0154 252.091 50.5792 252.091 51.2661C252.091 51.9595 252.655 52.5167 253.342 52.5167C254.029 52.5232 254.593 51.9595 254.593 51.2661Z" fill="white" stroke="#263238" stroke-miterlimit="10" stroke-linecap="round" stroke-linejoin="round"/>
<path d="M258.597 51.2661C258.597 50.5727 258.033 50.0154 257.347 50.0154C256.653 50.0154 256.096 50.5792 256.096 51.2661C256.096 51.9595 256.66 52.5167 257.347 52.5167C258.04 52.5232 258.597 51.9595 258.597 51.2661Z" fill="white" stroke="#263238" stroke-miterlimit="10" stroke-linecap="round" stroke-linejoin="round"/>
<path d="M262.608 51.2661C262.608 50.5727 262.045 50.0154 261.358 50.0154C260.671 50.0154 260.107 50.5792 260.107 51.2661C260.107 51.9594 260.671 52.5167 261.358 52.5167C262.045 52.5167 262.608 51.9594 262.608 51.2661Z" fill="white" stroke="#263238" stroke-miterlimit="10" stroke-linecap="round" stroke-linejoin="round"/>
<path d="M240.084 58.8801L233.481 64.103L240.084 69.3259" stroke="#263238" stroke-width="3" stroke-miterlimit="10" stroke-linecap="round" stroke-linejoin="round"/>
<path d="M249.143 58.8801L255.746 64.103L249.143 69.3259" stroke="#263238" stroke-width="3" stroke-miterlimit="10" stroke-linecap="round" stroke-linejoin="round"/>
<path d="M245.456 57.6554L243.46 70.246" stroke="#263238" stroke-width="3" stroke-miterlimit="10" stroke-linecap="round" stroke-linejoin="round"/>
<path d="M252.726 76.2076H260.023" stroke="#263238" stroke-miterlimit="10" stroke-linecap="round" stroke-linejoin="round"/>
<path d="M241.918 76.2076H251.398" stroke="#263238" stroke-miterlimit="10" stroke-linecap="round" stroke-linejoin="round"/>
<path d="M233.954 76.2076H239.831" stroke="#263238" stroke-miterlimit="10" stroke-linecap="round" stroke-linejoin="round"/>
<path d="M229.871 76.2076H232.625" stroke="#263238" stroke-miterlimit="10" stroke-linecap="round" stroke-linejoin="round"/>
<path d="M255.765 80.5168H260.023" stroke="#263238" stroke-miterlimit="10" stroke-linecap="round" stroke-linejoin="round"/>
<path d="M234.524 80.5168H253.679" stroke="#263238" stroke-miterlimit="10" stroke-linecap="round" stroke-linejoin="round"/>
<path d="M229.871 80.5168H232.243" stroke="#263238" stroke-miterlimit="10" stroke-linecap="round" stroke-linejoin="round"/>
<path d="M245.521 84.826H260.023" stroke="#263238" stroke-miterlimit="10" stroke-linecap="round" stroke-linejoin="round"/>
<path d="M233.384 84.826H242.864" stroke="#263238" stroke-miterlimit="10" stroke-linecap="round" stroke-linejoin="round"/>
<path d="M229.871 84.826H231.867" stroke="#263238" stroke-miterlimit="10" stroke-linecap="round" stroke-linejoin="round"/>
<path d="M255.953 89.1288H260.023" stroke="#263238" stroke-miterlimit="10" stroke-linecap="round" stroke-linejoin="round"/>
<path d="M242.106 89.1288H253.679" stroke="#263238" stroke-miterlimit="10" stroke-linecap="round" stroke-linejoin="round"/>
<path d="M229.871 89.1288H239.831" stroke="#263238" stroke-miterlimit="10" stroke-linecap="round" stroke-linejoin="round"/>
<path d="M261.669 79.7587H270.669" stroke="#263238" stroke-miterlimit="10" stroke-linecap="round" stroke-linejoin="round"/>
<path d="M278.789 87.8781C283.273 87.8781 286.908 84.2429 286.908 79.7587C286.908 75.2744 283.273 71.6392 278.789 71.6392C274.305 71.6392 270.669 75.2744 270.669 79.7587C270.669 84.2429 274.305 87.8781 278.789 87.8781Z" fill="#263238"/>
<path d="M282.884 75.9679L275.115 83.7374" stroke="#AAD300" stroke-width="4" stroke-miterlimit="10" stroke-linecap="round"/>
<path d="M275.115 75.9679L282.884 83.7374" stroke="#AAD300" stroke-width="4" stroke-miterlimit="10" stroke-linecap="round"/>
<path d="M259.725 81.7027C260.798 81.7027 261.669 80.8323 261.669 79.7587C261.669 78.6851 260.798 77.8147 259.725 77.8147C258.651 77.8147 257.781 78.6851 257.781 79.7587C257.781 80.8323 258.651 81.7027 259.725 81.7027Z" fill="#263238"/>
<path d="M285.113 143.121C289.663 138.571 289.663 131.195 285.113 126.645C280.563 122.095 273.186 122.095 268.636 126.645C264.086 131.195 264.086 138.571 268.636 143.121C273.186 147.671 280.563 147.671 285.113 143.121Z" fill="#263238"/>
<path d="M271.739 132.292L277.104 138.202L289.993 120.479" stroke="#AAD300" stroke-width="6" stroke-miterlimit="10" stroke-linecap="round"/>
<path d="M197.316 38.2931H117.521V40.5741H197.316V38.2931Z" fill="#263238" stroke="#263238" stroke-miterlimit="10" stroke-linecap="round" stroke-linejoin="round"/>
<path d="M197.316 38.2931H169.303V40.5741H197.316V38.2931Z" fill="white" stroke="#263238" stroke-miterlimit="10" stroke-linecap="round" stroke-linejoin="round"/>
<path d="M170.249 38.2931H118.441L113.4 3.83247C113.16 2.19303 114.294 0.858154 115.933 0.858154H161.799C163.438 0.858154 164.968 2.18655 165.207 3.83247L170.249 38.2931Z" fill="white" stroke="#263238" stroke-miterlimit="10" stroke-linecap="round" stroke-linejoin="round"/>
<path d="M169.251 38.2931H117.443L112.402 3.83247C112.162 2.19303 113.296 0.858154 114.936 0.858154H160.801C162.44 0.858154 163.97 2.18655 164.21 3.83247L169.251 38.2931Z" fill="white" stroke="#263238" stroke-miterlimit="10" stroke-linecap="round" stroke-linejoin="round"/>
<path d="M262.984 40.5741H95.7872" stroke="#263238" stroke-miterlimit="10" stroke-linecap="round" stroke-linejoin="round"/>
<path d="M1.82504 207.259H80.4728V205.179H1.82504V207.259Z" fill="#263238" stroke="#263238" stroke-miterlimit="10" stroke-linecap="round" stroke-linejoin="round"/>
<path d="M1.82341 207.259H33.2968V205.179H1.82341V207.259Z" fill="#AAD300" stroke="#263238" stroke-miterlimit="10" stroke-linecap="round" stroke-linejoin="round"/>
<path d="M38.3161 168.139L32.4387 205.179H79.6391L85.5164 168.139H38.3161Z" fill="#92E3A9" stroke="#263238" stroke-miterlimit="10" stroke-linecap="round" stroke-linejoin="round"/>
<path d="M39.2233 168.139L33.3459 205.179H80.5463L86.4236 168.139H39.2233Z" fill="#AAD300" stroke="#263238" stroke-miterlimit="10" stroke-linecap="round" stroke-linejoin="round"/>
<path d="M50.978 175.462H42.0096L42.4114 172.974H51.3797L50.978 175.462Z" fill="#263238" stroke="#263238" stroke-miterlimit="10" stroke-linecap="round" stroke-linejoin="round"/>
</svg>
