<svg width="60" height="95" viewBox="0 0 60 95" fill="none" xmlns="http://www.w3.org/2000/svg">
<g clip-path="url(#clip0_131_500)">
<path d="M17.7 67.7456C17.7 67.7456 13.9 68.6768 13.6 70.7462C13.3 72.8156 11.4 73.9537 12.7 83.1625C12.7 83.1625 22.4 92.5782 27.9 95.0615L30.1 83.5764L33.2 95.0615C33.2 95.0615 42.8 88.4395 47 80.4723C47 80.4723 49.5 66.8144 43.8 67.6421L43.3 71.1601C43.3 71.1601 38.7 77.5752 28.9 80.4723C28.9 80.4723 20.6 76.6439 17.5 72.9191C17.5 73.0225 18.2 69.9184 17.7 67.7456Z" fill="#A1C25B"/>
<path d="M20.9 15.0797L5.29999 32.2556C5.29999 32.2556 3.09999 34.2215 3.99999 39.1881C4.89999 44.1546 6.89999 48.5003 8.39999 48.8107C9.89999 49.1211 12 49.1211 12 49.1211C12 49.1211 15.4 56.6744 17.7 59.5715C17.7 59.5715 18.5 71.1601 18.1 74.3676C18.1 74.3676 23.7 79.4376 29 80.0584C34.3 80.6792 42.5 72.2982 42.5 72.2982L44.5 62.0548C44.5 62.0548 49.3 54.5015 49.6 52.5356C49.9 50.5697 52.1 51.087 53.2 50.0523C54.3 49.0176 56.8 44.6719 57.2 40.4297C57.6 36.2909 57.6 31.4279 52.9 32.8764C48.8 31.7383 51.4 22.8399 51.4 22.8399L44.3 16.3213L20.9 15.0797Z" fill="white"/>
<path d="M17.7 59.5715C17.7 59.5715 18.6 68.3664 17.7 72.4017" stroke="#263137" stroke-width="1.1031" stroke-miterlimit="10" stroke-linecap="round" stroke-linejoin="round"/>
<path d="M43.3 71.2635C43.3 71.2635 43.3 67.0213 44.2 62.8825" stroke="#263137" stroke-width="1.1031" stroke-miterlimit="10" stroke-linecap="round" stroke-linejoin="round"/>
<path d="M45.6 21.5983C45.6 21.5983 50.7 28.3238 50.5 33.2903C50.2 38.3603 49.8 44.3615 50 50.1558C50.1 56.0535 40.9 68.2629 36.2 69.4011C31.5 70.5392 27.4 70.7462 24.3 67.6421C21.3 64.538 18.2 60.1923 14.3 54.605C10.3 49.0176 11.3 36.8083 11.3 36.8083" stroke="#263137" stroke-width="1.1031" stroke-miterlimit="10" stroke-linecap="round" stroke-linejoin="round"/>
<path d="M33.2 41.4644C32.9 43.3268 32.8 45.1892 32.8 47.0517C32.8 48.6037 33.1 50.2592 34.1 51.3974C34.7 52.0182 35.5 52.4321 35.6 53.2598C35.7 53.9841 35.2 54.7084 34.5 55.0188C33.9 55.4327 33.2 55.6396 32.6 56.157" stroke="#263137" stroke-width="1.1031" stroke-miterlimit="10" stroke-linecap="round" stroke-linejoin="round"/>
<path d="M28.9 60.2958C28.9 60.2958 31.4 63.2989 36.2 61.2278" stroke="#263137" stroke-width="1.1031" stroke-miterlimit="10" stroke-linecap="round" stroke-linejoin="round"/>
<path d="M25.6 44.465C25.6 45.6031 25.1 46.5343 24.5 46.5343C23.9 46.5343 23.4 45.6031 23.4 44.465C23.4 43.3268 23.9 42.3956 24.5 42.3956C25.1 42.3956 25.6 43.3268 25.6 44.465Z" fill="#263137"/>
<path d="M40.9 44.9824C40.9 46.1205 40.4 47.0517 39.8 47.0517C39.2 47.0517 38.7 46.1205 38.7 44.9824C38.7 43.8442 39.2 42.913 39.8 42.913C40.4 42.913 40.9 43.8442 40.9 44.9824Z" fill="#263137"/>
<path d="M37.8 39.9131C37.8 39.9131 42.8 34.7379 47 40.5341" stroke="#263137" stroke-width="2.2062" stroke-miterlimit="10" stroke-linecap="round" stroke-linejoin="round"/>
<path d="M27.3 40.0172C27.3 40.0172 24.1 36.3927 19.2 40.0172" stroke="#263137" stroke-width="2.2062" stroke-miterlimit="10" stroke-linecap="round" stroke-linejoin="round"/>
<path d="M12 48.8107C12 48.8107 7.89998 50.2593 6.89998 47.0517C5.79998 43.7407 2.09998 35.1528 5.39998 32.2556C8.59998 29.3585 11.2 36.084 11.2 36.084" stroke="#263137" stroke-width="1.1031" stroke-miterlimit="10" stroke-linecap="round" stroke-linejoin="round"/>
<path d="M49.9 50.5697C49.9 50.5697 53.7 51.3974 54.8 48.0864C55.9 44.7754 59.6 36.1874 56.3 33.2903C53.1 30.3932 50.5 37.1187 50.5 37.1187" stroke="#263137" stroke-width="1.1031" stroke-miterlimit="10" stroke-linecap="round" stroke-linejoin="round"/>
<path d="M46.2 19.6323C46.2 19.6323 43.9 32.2556 50 38.3603C50 38.3603 51.3 34.5319 52.7 33.6007C52.7 33.6007 56.1 26.9787 51.6 19.6323C47.1 12.286 46.2 19.6323 46.2 19.6323Z" fill="white" stroke="#263137" stroke-miterlimit="10"/>
<path d="M11.1 44.465C12.2 44.3615 14.1 43.3268 14.7 42.2921C15.3 41.2574 15.5 40.1193 15.7 38.9811C16.1 36.8083 16.3 34.5319 16.3 32.3591C16.3 31.5313 16.3 30.6001 16.5 29.7723C16.8 28.9446 17.3 28.1168 17.9 27.496C19.3 25.737 21 24.2885 22.4 22.5295C23.7 20.7705 24.7 18.4942 24.4 16.3213C24.4 16.3213 33.6 25.0128 46.9 22.3226C54 20.874 60.9 14.3554 60.1 6.28482C59.8 3.38768 57.7 1.3183 55.1 0.594013C51.6 -0.337211 48.4 1.62871 45.2 2.87034C39.4 5.14666 33.7 1.21483 27.8 0.594013C22.8 0.0766664 16.6 0.697484 14 5.87095C14 5.87095 4.89999 7.00911 0.999987 14.6658C-3.00001 22.3226 4.59998 32.9799 4.59998 32.9799C4.59998 32.9799 7.59999 29.1515 11.5 36.9117L11.1 44.465Z" fill="white" stroke="#263137" stroke-width="1.1031" stroke-miterlimit="10" stroke-linecap="round" stroke-linejoin="round"/>
<path d="M15.7 71.2635C15.7 71.2635 21.3 77.6786 28.9 80.5757C28.9 80.5757 39.1 77.5751 44.2 70.2288" stroke="#263137" stroke-width="1.1031" stroke-miterlimit="10" stroke-linecap="round" stroke-linejoin="round"/>
<path d="M26.1629 52.9085C30.6812 50.7643 32.6641 45.2364 30.5918 40.5614C28.5196 35.8864 23.177 33.8347 18.6587 35.9788C14.1405 38.1229 12.1576 43.6509 14.2298 48.3259C16.3021 53.0009 21.6447 55.0526 26.1629 52.9085Z" stroke="#263137" stroke-width="1.1031" stroke-miterlimit="10" stroke-linecap="round" stroke-linejoin="round"/>
<path d="M43.494 53.7093C48.4273 53.0824 51.9353 48.4362 51.3294 43.3317C50.7235 38.2273 46.2331 34.5976 41.2998 35.2245C36.3665 35.8515 32.8585 40.4976 33.4644 45.6021C34.0703 50.7065 38.5607 54.3362 43.494 53.7093Z" stroke="#263137" stroke-width="1.1031" stroke-miterlimit="10" stroke-linecap="round" stroke-linejoin="round"/>
<path d="M43.8 67.7456C43.8 67.7456 46.1 67.6421 47 70.2288C48 72.8156 47 80.5758 47 80.5758C44 87.3013 33.2 95.1649 33.2 95.1649L30 83.1625L27.9 95.1649C20.9 91.647 12.7 83.266 12.7 83.266C12.7 83.266 11.7 74.1607 13.3 71.2635C14.9 68.3664 17.6 67.7456 17.6 67.7456" stroke="#263137" stroke-width="1.1031" stroke-miterlimit="10" stroke-linecap="round" stroke-linejoin="round"/>
<path d="M31.3 45.9136H33.7" stroke="#263137" stroke-width="1.1031" stroke-miterlimit="10" stroke-linecap="round" stroke-linejoin="round"/>
</g>
<defs>
<clipPath id="clip0_131_500">
<rect width="60" height="95" fill="white"/>
</clipPath>
</defs>
</svg>
