<svg width="176" height="75" viewBox="0 0 176 75" fill="none" xmlns="http://www.w3.org/2000/svg">
<g clip-path="url(#clip0_2_273)">
<path d="M50.1155 0H22.1853L12.4428 9.78723L11.3309 10.9043L10.8544 11.383L9.74248 12.5L0 22.2872V47.633V48.0851V49.2021V50.3191V75H27.2684V49.2021V48.75L37.3285 38.6436L48.9771 50.3457V22.2872L38.4669 11.7021L50.1155 0ZM22.8472 1.59574H46.2768L37.3285 10.5851L36.9844 10.9309H36.5343H13.5548L22.8472 1.59574ZM12.4428 12.5H36.5343V36.7021H12.4428V12.5ZM1.58845 22.9521L10.8544 13.6436V37.1809L1.58845 46.4894V22.9521ZM25.6799 73.4043H1.58845V49.2021H25.6799V50.3191V73.4043ZM26.1564 47.6064H2.75331H2.72684L11.9928 38.2979H35.4224L26.1564 47.6064ZM47.3887 22.9521V46.4894L38.4669 37.5L38.1492 37.1809V36.7021V13.6436L47.3887 22.9521Z" fill="url(#paint0_linear_2_273)"/>
<path d="M67.562 33.0319H69.9976L77.3574 23.1117H81.5403L73.2274 34.3883L82.3081 46.4628H78.0987L70.3418 36.3298H67.562V46.4628H63.8556V23.1117H67.562V33.0319Z" fill="black"/>
<path d="M84.426 50.0001C84.7966 50.2926 85.1673 50.4788 85.5114 50.5852C85.8556 50.6916 86.1998 50.7448 86.5704 50.7448C87.1263 50.7448 87.6558 50.4256 88.1059 49.8139C88.5559 49.1756 88.9795 48.0852 89.4031 46.4628L82.3345 29.282H86.0409L91.3357 43.2979L96.0481 29.282H99.4633L92.3417 48.8033C91.6534 50.7182 90.8592 52.0479 90.012 52.7926C89.1384 53.5373 88.1059 53.9096 86.8881 53.9096C86.3586 53.9096 85.9085 53.8565 85.5114 53.7501C85.1143 53.6437 84.7702 53.4309 84.426 53.165V50.0001Z" fill="black"/>
<path d="M110.503 26.5426C108.967 26.8883 107.75 27.5798 106.876 28.5639C105.976 29.5745 105.367 30.9841 105.076 32.8192C105.764 31.9415 106.611 31.2766 107.591 30.8245C108.57 30.3724 109.629 30.133 110.821 30.133C111.88 30.133 112.886 30.3458 113.812 30.7713C114.739 31.1968 115.533 31.782 116.221 32.5266C116.91 33.2713 117.439 34.149 117.836 35.1596C118.233 36.1703 118.419 37.2607 118.419 38.4575C118.419 39.6543 118.207 40.7713 117.81 41.8086C117.413 42.8192 116.83 43.7234 116.116 44.4681C115.374 45.2128 114.501 45.7979 113.442 46.2234C112.383 46.649 111.218 46.8617 109.894 46.8617C107.167 46.8617 105.102 45.9575 103.673 44.149C102.27 42.3405 101.555 39.6809 101.555 36.1703C101.555 32.4469 102.296 29.5745 103.779 27.5532C105.261 25.532 107.458 24.1756 110.371 23.5107L116.248 22.1543L116.645 25.1862L110.503 26.5426ZM105.261 38.2979C105.261 39.1224 105.393 39.8405 105.632 40.532C105.87 41.1968 106.214 41.782 106.638 42.2873C107.061 42.7926 107.564 43.1649 108.147 43.4309C108.729 43.6969 109.365 43.8298 110.053 43.8298C110.741 43.8298 111.35 43.6969 111.933 43.4309C112.515 43.1649 113.018 42.7926 113.415 42.3405C113.839 41.8883 114.156 41.3298 114.395 40.6649C114.633 40 114.739 39.282 114.739 38.4841C114.739 37.7128 114.606 37.0213 114.368 36.3564C114.13 35.7181 113.786 35.1596 113.362 34.7075C112.939 34.2554 112.436 33.883 111.827 33.6437C111.244 33.4043 110.582 33.2713 109.894 33.2713C109.206 33.2713 108.57 33.4043 107.988 33.6437C107.432 33.883 106.929 34.2288 106.532 34.6809C106.135 35.133 105.817 35.6649 105.579 36.2766C105.367 36.8617 105.261 37.5532 105.261 38.2979Z" fill="black"/>
<path d="M138.804 24.6277H130.279V46.4894H128.611V24.6277H120.087V23.1117H138.804V24.6277Z" fill="black"/>
<path d="M150.267 46.8086C148.811 46.8086 147.487 46.4096 146.349 45.6384C145.211 44.8671 144.284 43.9096 143.569 42.7926V53.4841H141.928V29.3618H143.437V32.7926C144.125 31.7022 145.052 30.7979 146.217 30.1064C147.355 29.415 148.599 29.0692 149.897 29.0692C151.088 29.0692 152.173 29.3086 153.179 29.8139C154.185 30.3192 155.059 30.9841 155.774 31.8086C156.489 32.633 157.045 33.5905 157.468 34.6543C157.865 35.7182 158.077 36.8352 158.077 37.9522C158.077 39.149 157.892 40.266 157.521 41.3298C157.15 42.3937 156.621 43.3511 155.933 44.149C155.244 44.9735 154.424 45.6118 153.471 46.0639C152.491 46.5692 151.432 46.8086 150.267 46.8086ZM149.897 45.3458C150.876 45.3458 151.776 45.133 152.57 44.7075C153.391 44.282 154.079 43.7235 154.635 43.0586C155.191 42.3671 155.641 41.5692 155.959 40.6916C156.277 39.8139 156.409 38.9096 156.409 37.9788C156.409 36.9947 156.224 36.0639 155.88 35.1596C155.535 34.282 155.032 33.4841 154.424 32.8192C153.788 32.1277 153.073 31.5958 152.253 31.1969C151.432 30.7979 150.532 30.5852 149.605 30.5852C149.023 30.5852 148.387 30.7181 147.726 30.9575C147.064 31.1969 146.428 31.5426 145.846 31.9681C145.264 32.3937 144.761 32.8724 144.337 33.4309C143.913 33.9894 143.675 34.5479 143.622 35.1862V40.8245C143.913 41.4628 144.258 42.0479 144.708 42.6064C145.131 43.165 145.634 43.6437 146.19 44.0426C146.746 44.4682 147.329 44.7873 147.964 45.0267C148.546 45.2128 149.208 45.3458 149.897 45.3458Z" fill="black"/>
<path d="M163.637 44.1755L174.623 29.3617H176V46.4894H174.359V31.9415L163.584 46.4894H162.048V29.3617H163.663V44.1755H163.637Z" fill="black"/>
</g>
<defs>
<linearGradient id="paint0_linear_2_273" x1="-6.30368" y1="68.6748" x2="56.3683" y2="6.28938" gradientUnits="userSpaceOnUse">
<stop stop-color="#D7FC03"/>
<stop offset="0.59" stop-color="#A1C800"/>
</linearGradient>
<clipPath id="clip0_2_273">
<rect width="176" height="75" fill="white"/>
</clipPath>
</defs>
</svg>
