<svg width="297" height="248" viewBox="0 0 297 248" fill="none" xmlns="http://www.w3.org/2000/svg">
<g clip-path="url(#clip0_5_2629)">
<path d="M223.79 245.15L230.68 180.54C230.9 178.51 229.31 176.75 227.27 176.75H182.73C181.12 176.75 179.73 177.87 179.38 179.44L164.82 245.16H223.79V245.15Z" fill="#263238" stroke="#263238" stroke-miterlimit="10" stroke-linecap="round" stroke-linejoin="round"/>
<path d="M169.33 135.57C169.33 135.57 197.42 150.52 198.19 156.44C198.96 162.37 201.28 245.05 201.28 245.05H135.06L135.26 218.31L131.85 213.48L127.78 222.19L109.68 213.77L127.23 156.38C127.83 154.34 129.11 152.57 130.86 151.36C136.55 147.43 149.5 138.68 153.09 137.89C157.73 136.85 169.33 135.57 169.33 135.57Z" fill="white"/>
<path d="M169.33 135.57C169.33 135.57 197.42 150.52 198.19 156.44C198.96 162.37 201.28 245.05 201.28 245.05H135.06L135.26 218.31L131.85 213.48L127.78 222.19L109.68 213.77L127.23 156.38C127.83 154.34 129.11 152.57 130.86 151.36C136.55 147.43 149.5 138.68 153.09 137.89C157.73 136.85 169.33 135.57 169.33 135.57Z" stroke="#263238" stroke-miterlimit="10" stroke-linecap="round" stroke-linejoin="round"/>
<path d="M176.97 178.75L175.01 175.96" stroke="#263238" stroke-miterlimit="10" stroke-linecap="round" stroke-linejoin="round"/>
<path d="M184.9 190.01L178.94 181.54" stroke="#263238" stroke-miterlimit="10" stroke-linecap="round" stroke-linejoin="round"/>
<path d="M190.97 149.22C190.97 149.22 200.76 154.63 201.02 157.47C201.28 160.3 219.32 223.69 217.51 228.59C215.71 233.49 207.2 234.26 207.2 234.26C207.2 234.26 199.21 221.12 194.83 218.8C190.45 216.48 188.9 215.97 188.9 215.97L179.62 171.91" fill="white"/>
<path d="M190.97 149.22C190.97 149.22 200.76 154.63 201.02 157.47C201.28 160.3 219.32 223.69 217.51 228.59C215.71 233.49 207.2 234.26 207.2 234.26C207.2 234.26 199.21 221.12 194.83 218.8C190.45 216.48 188.9 215.97 188.9 215.97L179.62 171.91" stroke="#263238" stroke-miterlimit="10" stroke-linecap="round" stroke-linejoin="round"/>
<path d="M128.66 233.27C128.66 233.27 125.96 234.43 122.96 234.55C119.96 234.66 116.65 233.73 118.18 235.75C119.72 237.77 123.62 238.15 126.05 238.02C128.48 237.87 128.66 233.27 128.66 233.27Z" fill="white" stroke="#263238" stroke-miterlimit="10" stroke-linecap="round" stroke-linejoin="round"/>
<path d="M184.01 220.6C184.01 220.6 184.16 220.4 184.44 220.08C185.35 219.03 187.57 216.63 189.94 215.44C193.03 213.89 202.31 213.64 210.3 222.91C218.29 232.19 214.17 236.82 207.72 238.37C201.28 239.92 177.06 241.2 171.13 242.24C165.2 243.27 152.17 245.11 148.04 243.31C143.92 241.51 141.49 239.15 141.49 239.15C141.49 239.15 140.2 243.27 138.4 243.27C136.6 243.27 136.85 241.72 136.85 241.72C136.85 241.72 135.82 242.75 135.05 242.75C134.28 242.75 133.25 241.98 133.25 241.98C133.25 241.98 131.96 243.01 130.42 242.5C128.87 241.98 128.87 241.21 128.87 241.21C128.87 241.21 127.07 242.76 126.29 241.21C125.52 239.66 126.81 234.51 127.32 230.9C127.84 227.29 130.41 227.29 130.41 227.29L131.2 226.73C132.01 226.16 133.02 225.96 133.98 226.2L135.3 226.52C135.3 226.52 137.88 226 139.17 226.52C140.46 227.04 151.28 233.48 152.83 234.25C154.38 235.02 158.5 234.25 163.14 232.45C167.78 230.65 181.69 224.47 184.01 220.6Z" fill="white" stroke="#263238" stroke-miterlimit="10" stroke-linecap="round" stroke-linejoin="round"/>
<path d="M141.5 239.15L142.32 235.51C142.32 235.51 144.94 240.26 148 241.17" stroke="#263238" stroke-miterlimit="10" stroke-linecap="round" stroke-linejoin="round"/>
<path d="M203.08 230.13C197.41 222.4 184.01 220.6 184.01 220.6C184.01 220.6 184.16 220.4 184.44 220.08C185.35 219.03 187.57 216.63 189.94 215.44C193.03 213.89 202.31 213.64 210.3 222.91C218.29 232.19 214.17 236.82 207.72 238.37C206.99 238.55 206.02 238.72 204.88 238.89C205.62 236.59 205.6 233.57 203.08 230.13Z" fill="white" stroke="#263238" stroke-miterlimit="10" stroke-linecap="round" stroke-linejoin="round"/>
<path d="M136.86 241.73C136.86 241.73 137.38 231.17 139.18 228.85" stroke="#263238" stroke-miterlimit="10" stroke-linecap="round" stroke-linejoin="round"/>
<path d="M133.25 241.99C133.25 241.99 132.48 232.71 134.28 228.33" stroke="#263238" stroke-miterlimit="10" stroke-linecap="round" stroke-linejoin="round"/>
<path d="M128.87 241.22C128.87 241.22 128.61 234.86 129.9 229.88" stroke="#263238" stroke-miterlimit="10" stroke-linecap="round" stroke-linejoin="round"/>
<path d="M130.43 181.66C130.43 181.66 126.74 193.02 126.45 200.41C126.17 207.8 131.85 213.48 131.85 213.48" stroke="#263238" stroke-miterlimit="10" stroke-linecap="round" stroke-linejoin="round"/>
<path d="M48.72 230.99C48.72 230.99 45.89 230.06 44.76 231.33C43.63 232.6 41.55 240.7 42.4 241.62C43.25 242.55 44.57 241.62 45.23 239.85C45.89 238.08 48.72 230.99 48.72 230.99Z" fill="white" stroke="#263238" stroke-miterlimit="10" stroke-linecap="round" stroke-linejoin="round"/>
<path d="M52.02 230.77C52.02 230.77 49.01 229.67 47.81 231.17C46.61 232.67 44.4 242.29 45.3 243.4C46.2 244.5 47.61 243.4 48.31 241.3C49.02 239.19 52.02 230.77 52.02 230.77Z" fill="white" stroke="#263238" stroke-miterlimit="10" stroke-linecap="round" stroke-linejoin="round"/>
<path d="M50.43 236.74L63.45 242.25L69.58 237.66C69.58 237.66 59.62 237.05 56.26 236.28C52.89 235.51 50.43 236.74 50.43 236.74Z" fill="white" stroke="#263238" stroke-miterlimit="10" stroke-linecap="round" stroke-linejoin="round"/>
<path d="M56.66 230.41C56.66 230.41 53.2 228.93 51.65 230.44C50.1 231.95 46.64 242.17 47.61 243.45C48.58 244.73 50.34 243.67 51.35 241.46C52.36 239.24 56.66 230.41 56.66 230.41Z" fill="white" stroke="#263238" stroke-miterlimit="10" stroke-linecap="round" stroke-linejoin="round"/>
<path d="M106.03 218.21L74.74 234.79C74.74 234.79 58.83 229.39 57.69 229.39C56.55 229.39 53.93 233.47 53.93 233.47C53.93 233.47 47.18 243.31 49.74 243.88C52.3 244.45 53.18 244.6 54 242.46C55.84 237.68 58.83 237.35 58.83 237.35L65.91 238.88C65.91 238.88 63.38 241.32 59.69 242.46C56 243.6 58.56 245.31 59.12 245.3C64.78 245.18 70.16 244.81 73.57 244.24C76.98 243.67 80.31 241.64 80.31 241.64C80.31 241.64 100.83 239.96 108.84 238.48C116.13 237.14 122.76 230.52 122.48 228.54C122.2 226.55 109.41 220.04 109.41 220.04L106.03 218.21Z" fill="white" stroke="#263238" stroke-miterlimit="10" stroke-linecap="round" stroke-linejoin="round"/>
<path d="M104.29 216.89C104.29 216.89 106.85 211.49 110.82 211.49C114.8 211.49 128.44 220.87 128.72 223.14C129 225.41 120.53 234.51 119.82 231.99C119.19 229.77 112.56 216.06 102.05 220.04C96.08 222.3 104.29 216.89 104.29 216.89Z" fill="white" stroke="#263238" stroke-miterlimit="10" stroke-linecap="round" stroke-linejoin="round"/>
<path d="M160.87 112.89C160.87 112.89 162.67 126.29 163.19 130.67C163.71 135.05 171.65 142.43 170.11 147.84C168.56 153.25 149.42 167.72 147.62 165.91C145.82 164.11 145.42 140.46 144.13 138.91C142.84 137.36 140.52 134.27 140.52 134.27L160.87 112.89Z" fill="white" stroke="#263238" stroke-miterlimit="10" stroke-linecap="round" stroke-linejoin="round"/>
<path d="M161.04 114.12C161.39 116.75 162.23 123.02 162.79 127.4L143.08 134.36L144.66 129.93L159.12 114.74L161.04 114.12Z" fill="#263238" stroke="#263238" stroke-miterlimit="10" stroke-linecap="round" stroke-linejoin="round"/>
<path d="M144.12 138.92C144.12 138.92 147.21 143.83 148.42 151.86" stroke="#263238" stroke-miterlimit="10" stroke-linecap="round" stroke-linejoin="round"/>
<path d="M116.19 96.76C116.19 96.76 116.07 97.03 115.89 97.51C115.08 99.63 112.99 105.83 114.12 110.68C115.5 116.63 122.35 117.31 122.7 118.34C123.04 119.37 123.38 103.27 120.99 99.5" fill="#263238"/>
<path d="M116.19 96.76C116.19 96.76 116.07 97.03 115.89 97.51C115.08 99.63 112.99 105.83 114.12 110.68C115.5 116.63 122.35 117.31 122.7 118.34C123.04 119.37 123.38 103.27 120.99 99.5" stroke="#263238" stroke-miterlimit="10" stroke-linecap="round" stroke-linejoin="round"/>
<path d="M125.84 125.97C125.84 125.97 123.86 127.67 123.01 135.89C122.16 144.11 128.68 146.66 128.68 146.66C128.68 146.66 123.3 150.34 126.13 152.89C128.96 155.44 140.3 152.89 143.98 148.36C147.66 143.83 142.67 133.96 142.67 133.96L125.84 125.97Z" fill="#263238" stroke="#263238" stroke-miterlimit="10" stroke-linecap="round" stroke-linejoin="round"/>
<path d="M163.46 101.49C169.72 101.49 168.15 109.31 166.2 113.22C164.24 117.13 161.9 117.91 161.9 117.91C161.9 117.91 149.78 133.94 145.47 136.29C141.17 138.64 138.82 140.2 135.69 138.64C132.56 137.08 123.18 125.34 121.61 119.09C120.05 112.83 120.05 108.53 120.05 108.53C120.05 108.53 115.65 102.32 114.75 98.9201C113.24 93.2001 113.57 89.5001 113.57 89.5001C113.57 89.5001 134.52 80.7701 139.61 81.9401C144.69 83.1101 157.21 101.49 163.46 101.49Z" fill="white" stroke="#263238" stroke-miterlimit="10" stroke-linecap="round" stroke-linejoin="round"/>
<path d="M124.16 105.19C124.16 105.19 122 104.57 119.53 106.27" stroke="#263238" stroke-miterlimit="10" stroke-linecap="round" stroke-linejoin="round"/>
<path d="M135.94 108.4C136.31 109.79 137.26 110.74 138.08 110.52C138.89 110.3 139.25 109.01 138.89 107.62C138.52 106.23 137.57 105.28 136.75 105.5C135.93 105.71 135.57 107.01 135.94 108.4Z" fill="#263238"/>
<path d="M121.9 112.21C122.27 113.6 123.22 114.55 124.04 114.33C124.85 114.11 125.21 112.82 124.85 111.43C124.49 110.04 123.53 109.09 122.71 109.31C121.89 109.53 121.53 110.82 121.9 112.21Z" fill="#263238"/>
<path d="M139.51 101.5C139.51 101.5 135.64 98.9201 129.98 102.27" stroke="#263238" stroke-miterlimit="10" stroke-linecap="round" stroke-linejoin="round"/>
<path d="M131.12 126.52C131.12 126.52 136.11 126.94 139.01 123.2" stroke="#263238" stroke-miterlimit="10" stroke-linecap="round" stroke-linejoin="round"/>
<path d="M133.19 120.3L126.94 119.63C126.94 119.63 127.61 118.29 126.94 112.49" stroke="#263238" stroke-miterlimit="10" stroke-linecap="round" stroke-linejoin="round"/>
<path d="M127.54 93.87C127.54 93.87 130.97 91.78 131.57 92.61C134.19 96.26 141.88 107.93 151.99 106.4C169.92 103.68 154.84 124.6 157.75 136.24C160.66 147.87 172.9 153.21 182.32 151.04C193.12 148.55 196.26 152.5 196.26 152.5C196.26 152.5 205.94 144.55 203.04 135.41C200.13 126.27 190.58 125.44 190.16 122.95C189.74 120.46 200.55 122.12 198.88 109.24C197.22 96.36 178.94 85.56 173.54 85.56C168.14 85.56 174.37 82.65 164.4 71.43C154.43 60.21 124.93 65.2 114.54 72.68C104.15 80.16 102.49 95.25 110.38 96.91C118.27 98.56 127.54 93.87 127.54 93.87Z" fill="#263238" stroke="#263238" stroke-miterlimit="10" stroke-linecap="round" stroke-linejoin="round"/>
<path d="M155.04 108.11C155.04 108.11 158.82 97.0301 162.86 99.9401C166.91 102.86 166.37 112.77 165.29 113.94C164.21 115.11 160.43 116.27 158.01 115.11" fill="white"/>
<path d="M155.04 108.11C155.04 108.11 158.82 97.0301 162.86 99.9401C166.91 102.86 166.37 112.77 165.29 113.94C164.21 115.11 160.43 116.27 158.01 115.11" stroke="#263238" stroke-miterlimit="10" stroke-linecap="round" stroke-linejoin="round"/>
<path d="M168.9 12.89L166.59 20H159.11L165.16 24.4L162.85 31.51L168.9 27.11L174.96 31.51L172.64 24.4L178.7 20H171.22L168.9 12.89Z" fill="#AAD300" stroke="#263238" stroke-miterlimit="10" stroke-linecap="round" stroke-linejoin="round"/>
<path d="M144.22 12.89L141.9 20H134.42L140.48 24.4L138.16 31.51L144.22 27.11L150.27 31.51L147.96 24.4L154.01 20H146.53L144.22 12.89Z" fill="#AAD300" stroke="#263238" stroke-miterlimit="10" stroke-linecap="round" stroke-linejoin="round"/>
<path d="M119.53 12.89L117.22 20H109.74L115.79 24.4L113.48 31.51L119.53 27.11L125.58 31.51L123.27 24.4L129.32 20H121.84L119.53 12.89Z" fill="#AAD300" stroke="#263238" stroke-miterlimit="10" stroke-linecap="round" stroke-linejoin="round"/>
<path d="M94.84 12.89L92.53 20H85.05L91.1 24.4L88.79 31.51L94.84 27.11L100.89 31.51L98.58 24.4L104.63 20H97.15L94.84 12.89Z" fill="#AAD300" stroke="#263238" stroke-miterlimit="10" stroke-linecap="round" stroke-linejoin="round"/>
<path d="M70.15 12.89L67.84 20H60.36L66.41 24.4L64.1 31.51L70.15 27.11L76.2 31.51L73.89 24.4L79.94 20H72.46L70.15 12.89Z" fill="#AAD300" stroke="#263238" stroke-miterlimit="10" stroke-linecap="round" stroke-linejoin="round"/>
<path d="M47.52 3.5H191.53C195.01 3.5 197.84 6.32 197.84 9.81V35.86C197.84 39.34 195.02 42.17 191.53 42.17H126.17L119.52 55.28L112.87 42.17H47.51C44.03 42.17 41.2 39.35 41.2 35.86V9.81C41.22 6.32 44.04 3.5 47.52 3.5Z" stroke="#263238" stroke-miterlimit="10" stroke-linecap="round" stroke-linejoin="round"/>
<path d="M130.603 245.19L9.23331 245.19V241.98L130.603 241.98V245.19Z" fill="#263238" stroke="#263238" stroke-miterlimit="10" stroke-linecap="round" stroke-linejoin="round"/>
<path d="M130.606 245.19H82.0358V241.98H130.606V245.19Z" fill="#AAD300" stroke="#263238" stroke-miterlimit="10" stroke-linecap="round" stroke-linejoin="round"/>
<path d="M74.29 184.82L83.36 241.98H10.52L1.45 184.82H74.29Z" fill="#92E3A9" stroke="#263238" stroke-miterlimit="10" stroke-linecap="round" stroke-linejoin="round"/>
<path d="M72.89 184.82L81.96 241.98H9.12001L0.0500031 184.82H72.89Z" fill="#AAD300" stroke="#263238" stroke-miterlimit="10" stroke-linecap="round" stroke-linejoin="round"/>
<path d="M54.75 196.12H68.59L67.97 192.28H54.13L54.75 196.12Z" fill="#263238" stroke="#263238" stroke-miterlimit="10" stroke-linecap="round" stroke-linejoin="round"/>
</g>
<defs>
<clipPath id="clip0_5_2629">
<rect width="297" height="248" fill="white" transform="matrix(-1 0 0 1 297 0)"/>
</clipPath>
</defs>
</svg>
