<svg width="344" height="234" viewBox="0 0 344 234" fill="none" xmlns="http://www.w3.org/2000/svg">
<g clip-path="url(#clip0_5_2052)">
<path d="M289.201 130.305C289.201 130.305 287.716 151.516 289.74 161.515C291.764 171.514 295.552 196.912 296.497 199.754C297.443 202.591 298.388 213.402 298.388 213.402C298.388 213.402 296.225 212.996 296.225 214.214C296.225 215.432 296.091 216.511 296.091 217.05C296.091 217.589 295.279 219.074 292.716 222.456C290.146 225.831 286.637 226.916 286.904 228.401C287.177 229.885 290.552 230.697 293.928 230.425C297.303 230.152 299.739 230.019 301.63 228.128C303.521 226.237 306.224 225.698 307.575 225.019C308.927 224.346 309.199 223.128 309.199 220.559C309.199 217.99 309.199 212.857 309.066 212.045C308.932 211.233 309.199 210.966 308.66 207.724C308.12 204.481 306.769 171.381 306.769 171.381C306.769 171.381 310.823 197.591 312.308 201.645C313.793 205.699 315.144 211.372 315.144 211.372C315.144 211.372 314.332 213.669 315.144 215.153C315.956 216.638 317.98 220.426 317.98 220.426C317.98 220.426 318.926 226.237 319.465 229.073C320.005 231.91 324.192 234.612 325.544 233.667C326.895 232.722 329.464 230.558 328.652 226.504C327.84 222.45 326.762 220.426 326.356 217.856C325.95 215.287 327.707 212.045 327.168 209.887C326.628 207.724 326.222 208.536 325.816 205.293C325.41 202.051 325.41 183.944 324.192 178.677C322.974 173.405 321.623 164.49 321.623 164.49C321.623 164.49 321.895 143.007 321.895 142.334C321.895 141.662 322.168 133.959 322.168 133.959C322.168 133.959 311.902 136.795 303.388 134.632C294.873 132.469 289.201 130.305 289.201 130.305Z" fill="#263238" stroke="#263238" stroke-miterlimit="10" stroke-linecap="round" stroke-linejoin="round"/>
<path d="M273.025 107.761L273.465 105.197L275.53 107.14C275.524 107.146 273.877 107.616 273.025 107.761Z" fill="white" stroke="#263238" stroke-miterlimit="10" stroke-linecap="round" stroke-linejoin="round"/>
<path d="M276.65 98.6545L278.395 100.36C278.395 100.36 278.772 101.485 278.419 103.318C278.065 105.145 276.058 106.972 275.53 107.152C275.002 107.326 274.469 107.505 274.469 107.505L272.601 105.214C272.595 105.209 275.942 103.724 276.65 98.6545Z" fill="white" stroke="#263238" stroke-miterlimit="10" stroke-linecap="round" stroke-linejoin="round"/>
<path d="M285.889 75.5474C285.889 75.5474 284.224 79.8974 283.853 84.0618C283.482 88.2262 281.168 101.468 281.168 101.468L278.39 100.354C278.39 100.354 278.761 102.39 277.183 105.075C275.611 107.761 273.019 107.761 273.019 107.761C273.019 107.761 278.018 113.039 279.683 114.146C281.348 115.26 282.368 115.718 283.662 115.26C284.955 114.796 287.182 110.353 287.362 110.075C287.548 109.796 288.383 77.3976 288.197 76.4696C288.012 75.5416 285.889 75.5474 285.889 75.5474Z" fill="white" stroke="#263238" stroke-miterlimit="10" stroke-linecap="round" stroke-linejoin="round"/>
<path d="M284.706 103.509C283.552 101.995 281.174 101.468 281.174 101.468C281.174 101.468 283.053 103.219 283.772 105.168" stroke="#263238" stroke-miterlimit="10" stroke-linecap="round" stroke-linejoin="round"/>
<path d="M273.396 96.5608C273.396 96.5608 270.989 94.525 269.603 94.3394C268.216 94.1538 265.995 94.8962 264.046 94.8962C262.103 94.8962 260.804 93.7826 260.526 94.8034C260.247 95.8242 261.912 97.3032 262.84 97.5816C263.768 97.86 265.896 97.5816 266.36 97.5816C266.824 97.5816 267.381 98.0456 267.381 98.0456C267.381 98.0456 266.401 100.383 266.123 100.754C265.844 101.125 264.58 101.781 264.58 101.781C264.58 101.781 259.789 99.7102 260.067 100.731C260.346 101.752 263.031 103.788 264.51 104.431C265.989 105.081 269.231 105.725 270.803 106.096C272.375 106.467 273.674 106.746 274.596 105.446C275.524 104.153 277.375 102.483 277.189 99.89C277.003 97.3032 274.968 96.468 273.396 96.5608Z" fill="white" stroke="#263238" stroke-miterlimit="10" stroke-linecap="round" stroke-linejoin="round"/>
<path d="M269.289 102.726C269.289 102.726 268.002 101.027 266.395 100.244C264.789 99.4608 263.223 99.4608 263.733 100.476C264.238 101.485 265.891 103.37 266.674 104.199C267.457 105.029 267.822 105.348 268.559 105.673C269.295 105.992 270.032 105.765 269.939 104.756C269.84 103.735 269.289 102.726 269.289 102.726Z" fill="white" stroke="#263238" stroke-miterlimit="10" stroke-linecap="round" stroke-linejoin="round"/>
<path d="M270.484 102.865C270.484 102.865 266.163 101.166 265.937 102.454C265.711 103.741 267.039 103.648 268.646 104.797C270.252 105.945 271.401 106.177 271.905 106.131C272.41 106.084 272.595 105.214 272.595 105.214L270.484 102.865Z" fill="white" stroke="#263238" stroke-miterlimit="10" stroke-linecap="round" stroke-linejoin="round"/>
<path d="M274.341 103.782C274.341 103.782 270.71 100.244 270.299 101.671C269.887 103.097 272.503 105.574 273.239 105.945C273.976 106.311 274.712 105.029 275.171 104.385" fill="white"/>
<path d="M274.341 103.782C274.341 103.782 270.71 100.244 270.299 101.671C269.887 103.097 272.503 105.574 273.239 105.945C273.976 106.311 274.712 105.029 275.171 104.385" stroke="#263238" stroke-miterlimit="10" stroke-linecap="round" stroke-linejoin="round"/>
<path d="M288.203 126.674V133.17C288.203 133.17 296.683 137.132 305.377 137.573C314.071 138.013 323.653 136.03 323.653 136.03L323.763 78.0124C323.763 78.0124 317.708 74.9326 312.093 74.051C306.479 73.1694 289.746 75.704 289.746 75.704L288.203 126.674Z" fill="#AAD300" stroke="#263238" stroke-miterlimit="10" stroke-linecap="round" stroke-linejoin="round"/>
<path d="M301.63 64.5332C301.63 64.5332 300.337 77.8616 300.702 78.6968C301.073 79.532 302.645 81.7534 305.887 81.7534C309.13 81.7534 312.644 78.3256 312.644 78.3256L313.758 64.9044C313.758 64.9044 309.501 66.9402 306.537 66.2906C303.573 65.641 301.63 64.5332 301.63 64.5332Z" fill="white" stroke="#263238" stroke-miterlimit="10" stroke-linecap="round" stroke-linejoin="round"/>
<path d="M306.044 69.7648L313.294 74.37L313.868 64.017L306.044 69.7648Z" fill="#263238"/>
<path d="M298.603 53.3275C298.603 53.3275 297.675 51.1989 296.752 52.8635C295.824 54.5281 298.881 58.7911 298.881 58.7911L298.603 53.3275Z" fill="white" stroke="#263238" stroke-miterlimit="10" stroke-linecap="round" stroke-linejoin="round"/>
<path d="M316.38 53.3275C316.38 53.3275 317.308 51.1989 318.23 52.8635C319.158 54.5281 315.626 59.0637 315.626 59.0637L316.38 53.3275Z" fill="white" stroke="#263238" stroke-miterlimit="10" stroke-linecap="round" stroke-linejoin="round"/>
<path d="M298.881 54.534C298.881 54.534 297.953 51.199 297.953 50.2768C297.953 49.3488 299.618 49.3488 299.618 49.3488L298.881 54.534Z" fill="#263238"/>
<path d="M299.009 49.7026C299.009 49.7026 298.684 61.1692 299.548 63.0078C300.412 64.8464 303.44 69.063 304.2 69.6082C304.959 70.1476 307.552 70.368 308.312 70.2578C309.072 70.1476 314.866 64.365 315.086 63.611C315.301 62.8512 316.211 52.301 316.211 52.301L316.101 43.5372C316.101 43.5372 313.938 42.3482 310.69 42.5628C307.442 42.7774 299.438 46.24 299.438 46.24L299.009 49.7026Z" fill="white" stroke="#263238" stroke-miterlimit="10" stroke-linecap="round" stroke-linejoin="round"/>
<path d="M313.613 45.2656C313.613 45.2656 310.91 48.8326 309.721 49.3778C308.532 49.9172 308.747 47.6493 308.747 47.6493C308.747 47.6493 305.934 49.8127 301.932 50.6769C297.93 51.5412 294.682 51.7615 293.603 50.242C292.524 48.7281 295.981 46.5648 295.981 46.5648C295.981 46.5648 293.278 44.9408 295.981 42.0234C298.684 39.1002 305.609 35.8579 310.585 37.8067C315.562 39.7555 314.587 41.5941 314.587 41.5941C314.587 41.5941 318.375 41.0547 318.7 44.0824C319.024 47.11 316.751 50.5726 316.751 50.5726C316.751 50.5726 316.641 53.171 316.641 53.8206C316.641 54.4702 315.881 54.36 315.881 54.36L315.556 51.1119C315.556 51.1119 314.367 51.2222 313.717 48.9486C313.068 46.675 313.613 45.2656 313.613 45.2656Z" fill="#263238"/>
<path d="M304.623 60.5486C304.623 60.5486 305.737 61.4766 306.752 61.4766C307.772 61.4766 308.787 60.6414 308.787 60.6414" stroke="#263238" stroke-miterlimit="10" stroke-linecap="round" stroke-linejoin="round"/>
<path d="M303.509 62.9556C303.509 62.9556 305.545 64.0692 307.303 63.8836C309.06 63.698 310.174 62.219 310.174 62.219" stroke="#263238" stroke-miterlimit="10" stroke-linecap="round" stroke-linejoin="round"/>
<path d="M308.787 52.4054C308.787 52.4054 312.308 51.3846 313.416 53.3334" stroke="#263238" stroke-miterlimit="10" stroke-linecap="round" stroke-linejoin="round"/>
<path d="M304.988 52.6779C304.988 52.6779 302.581 51.0133 300.731 52.7707" stroke="#263238" stroke-miterlimit="10" stroke-linecap="round" stroke-linejoin="round"/>
<path d="M303.973 54.8123C303.973 55.4271 303.707 55.9259 303.37 55.9259C303.04 55.9259 302.767 55.4271 302.767 54.8123C302.767 54.1975 303.034 53.6987 303.37 53.6987C303.701 53.6987 303.973 54.1975 303.973 54.8123Z" fill="#263238"/>
<path d="M310.962 54.8123C310.962 55.4271 310.696 55.9259 310.359 55.9259C310.023 55.9259 309.756 55.4271 309.756 54.8123C309.756 54.1975 310.023 53.6987 310.359 53.6987C310.696 53.6987 310.962 54.1975 310.962 54.8123Z" fill="#263238"/>
<path d="M330.265 133.333C330.265 133.333 328.705 136.297 328.548 137.08C328.391 137.863 328.548 140.513 328.391 141.917C328.235 143.32 327.063 143.79 327.846 144.417C328.629 145.043 329.876 143.79 330.189 143.245C330.503 142.7 330.891 141.604 331.28 140.745C331.668 139.887 332.138 141.447 332.37 141.917C332.602 142.387 332.446 147.067 332.527 147.85C332.602 148.633 331.593 151.516 331.9 152.067C332.214 152.612 332.915 152.612 333.229 151.835C333.542 151.052 334.476 149.492 334.476 149.492C334.476 149.492 338.611 146.058 339 145.513C339.388 144.968 337.358 137.549 337.207 136.302C337.051 135.055 336.738 133.101 336.738 133.101L330.265 133.333Z" fill="white" stroke="#263238" stroke-miterlimit="10" stroke-linecap="round" stroke-linejoin="round"/>
<path d="M334.481 149.492C334.481 149.492 335.415 147.386 335.572 146.528C335.728 145.669 335.885 144.498 335.96 144.266" fill="white"/>
<path d="M334.481 149.492C334.481 149.492 335.415 147.386 335.572 146.528C335.728 145.669 335.885 144.498 335.96 144.266" stroke="#263238" stroke-miterlimit="10" stroke-linecap="round" stroke-linejoin="round"/>
<path d="M335.34 148.709C335.34 148.709 336.9 146.992 337.057 146.209C337.213 145.426 337.37 144.492 337.37 144.492" fill="white"/>
<path d="M335.34 148.709C335.34 148.709 336.9 146.992 337.057 146.209C337.213 145.426 337.37 144.492 337.37 144.492" stroke="#263238" stroke-miterlimit="10" stroke-linecap="round" stroke-linejoin="round"/>
<path d="M330.143 131.001L330.271 133.339C330.271 133.339 331.361 134.51 334.174 134.742C336.981 134.974 337.921 133.652 337.921 133.652L338.106 131.651C338.101 131.645 331.889 131.709 330.143 131.001Z" fill="white" stroke="#263238" stroke-miterlimit="10" stroke-linecap="round" stroke-linejoin="round"/>
<path d="M313.294 69.8053C313.294 69.8053 309.408 82.3043 308.109 93.3185C306.815 104.333 307.181 131.831 307.181 131.831C307.181 131.831 309.124 132.48 315.788 132.387C322.452 132.295 325.602 131.367 325.602 131.367L326.437 103.875L331.158 110.446L330.137 130.995C330.137 130.995 331.077 132.237 333.472 132.474C336.587 132.782 338.93 131.691 338.93 131.691C338.93 131.691 340.972 110.255 340.879 108.59C340.786 106.925 329.215 78.5981 328.287 77.6701C327.359 76.7421 315.881 70.9131 315.881 70.9131C315.881 70.9131 314.587 68.6047 313.294 69.8053Z" fill="white" stroke="#263238" stroke-miterlimit="10" stroke-linecap="round" stroke-linejoin="round"/>
<path d="M315.887 70.9189C315.887 70.9189 316.165 73.8827 316.165 77.6759C316.165 81.4691 315.608 85.2681 315.608 85.2681C315.608 85.2681 313.572 84.7113 311.537 85.3609C309.501 86.0105 309.037 86.7471 309.037 86.7471C309.037 86.7471 311.908 71.6555 313.294 69.8053C314.68 67.9551 315.144 69.3471 315.887 70.9189Z" fill="white" stroke="#263238" stroke-miterlimit="10" stroke-linecap="round" stroke-linejoin="round"/>
<path d="M326.437 103.875C326.437 103.875 320.788 96.5608 321.159 93.5042C321.53 90.4476 322.087 87.1184 322.087 87.1184" fill="white"/>
<path d="M326.437 103.875C326.437 103.875 320.788 96.5608 321.159 93.5042C321.53 90.4476 322.087 87.1184 322.087 87.1184" stroke="#263238" stroke-miterlimit="10" stroke-linecap="round" stroke-linejoin="round"/>
<path d="M300.888 69.8054C300.888 69.8054 299.774 84.433 298.759 91.5612C297.738 98.6894 298.388 131.088 298.388 131.088C298.388 131.088 294.502 130.717 290.889 129.516C287.281 128.31 285.332 127.388 285.332 127.388L285.703 107.761C285.703 107.761 284.961 76.4696 285.889 75.5416C286.817 74.6136 297.738 71.47 297.738 71.47C297.738 71.47 299.78 69.527 300.888 69.8054Z" fill="white" stroke="#263238" stroke-miterlimit="10" stroke-linecap="round" stroke-linejoin="round"/>
<path d="M297.738 71.4757C297.738 71.4757 296.538 75.733 295.424 79.3464C294.311 82.954 294.038 84.9028 294.038 84.9028C294.038 84.9028 295.152 83.331 296.816 84.5316C298.481 85.7322 299.502 86.753 299.502 86.753L301.068 69.8228C301.068 69.817 298.852 69.5269 297.738 71.4757Z" fill="white" stroke="#263238" stroke-miterlimit="10" stroke-linecap="round" stroke-linejoin="round"/>
<path d="M267.66 21.4566L263.385 23.4112C254.737 9.06196 239.141 0.0777588 222.083 0.0777588C197.364 0.0777588 176.936 18.7828 174.193 42.7832H181.791C184.488 22.953 201.522 7.61776 222.083 7.61776C236.183 7.61776 249.1 14.891 256.477 26.5722L252.545 28.3702C251.217 28.9792 251.043 30.7946 252.232 31.6414L265.775 41.2752C266.964 42.122 268.622 41.3622 268.762 39.9122L270.333 23.3648C270.473 21.909 268.988 20.8476 267.66 21.4566Z" fill="#263238"/>
<path d="M98.2764 186.884C98.2764 186.884 103.752 210.426 101.368 214.295C98.2532 219.353 65.0656 222.403 65.0656 222.403H138.244C138.244 222.403 147.414 219.828 144.659 212.456C142.525 206.755 132.293 186.878 132.293 186.878H98.2764V186.884Z" fill="white" stroke="#263238" stroke-miterlimit="10" stroke-linecap="round" stroke-linejoin="round"/>
<path d="M96.6756 186.884C96.6756 186.884 102.516 210.624 99.767 214.295C97.0178 217.966 65.0656 220.774 65.0656 220.774H138.586C138.586 220.774 144.769 218.274 143.052 212.462C141.336 206.651 130.687 186.884 130.687 186.884H96.6756Z" fill="white" stroke="#263238" stroke-miterlimit="10" stroke-linecap="round" stroke-linejoin="round"/>
<path d="M130.687 186.884H96.6756C96.6756 186.884 100.132 200.949 100.475 209.104H141.782C138.436 201.268 130.687 186.884 130.687 186.884Z" fill="#263238" stroke="#263238" stroke-miterlimit="10" stroke-linecap="round" stroke-linejoin="round"/>
<path d="M138.244 220.89H65.0656V222.403H138.244V220.89Z" fill="white" stroke="#263238" stroke-miterlimit="10" stroke-linecap="round" stroke-linejoin="round"/>
<path d="M221.648 189.204H10.6964C7.9762 189.204 5.778 187 5.778 184.286V28.5268C5.778 25.8066 7.982 23.6084 10.6964 23.6084H221.654C224.374 23.6084 226.572 25.8124 226.572 28.5268V184.28C226.572 187 224.368 189.204 221.648 189.204Z" fill="white" stroke="#263238" stroke-miterlimit="10" stroke-linecap="round" stroke-linejoin="round"/>
<path d="M216.446 189.204H5.488C2.7678 189.204 0.569603 187 0.569603 184.286V28.5268C0.569603 25.8066 2.7736 23.6084 5.488 23.6084H216.446C219.166 23.6084 221.364 25.8124 221.364 28.5268V184.28C221.364 187 219.166 189.204 216.446 189.204Z" fill="#263238" stroke="#263238" stroke-miterlimit="10" stroke-linecap="round" stroke-linejoin="round"/>
<path d="M216.446 189.204H5.488C2.7678 189.204 0.569603 187 0.569603 184.286V163.464H221.364V184.28C221.364 187 219.166 189.204 216.446 189.204Z" fill="white" stroke="#263238" stroke-miterlimit="10" stroke-linecap="round" stroke-linejoin="round"/>
<path d="M115.038 176.334C115.038 174.084 113.217 172.262 110.967 172.262C108.716 172.262 106.895 174.084 106.895 176.334C106.895 178.584 108.716 180.406 110.967 180.406C113.217 180.406 115.038 178.579 115.038 176.334Z" fill="#263238" stroke="#263238" stroke-miterlimit="10" stroke-linecap="round" stroke-linejoin="round"/>
<path d="M215.077 28.5269H5.7722V158.801H215.077V28.5269Z" fill="white" stroke="#263238" stroke-miterlimit="10" stroke-linecap="round" stroke-linejoin="round"/>
<path d="M215.077 28.5269H211.115V158.801H215.077V28.5269Z" fill="#D1D1D1" stroke="#263238" stroke-miterlimit="10" stroke-linecap="round" stroke-linejoin="round"/>
<path d="M215.077 83.4991H211.115V103.822H215.077V83.4991Z" fill="#B0B0B0" stroke="#263238" stroke-miterlimit="10" stroke-linecap="round" stroke-linejoin="round"/>
<path d="M215.077 28.5269H5.7722V39.0945H215.077V28.5269Z" fill="#AAD300" stroke="#263238" stroke-miterlimit="10" stroke-linecap="round" stroke-linejoin="round"/>
<path d="M164.391 31.6936H13.376V36.873H164.391V31.6936Z" fill="white" stroke="#263238" stroke-miterlimit="10" stroke-linecap="round" stroke-linejoin="round"/>
<path d="M112.863 57.4165H101.089V60.8327H112.863V57.4165Z" fill="#B0B0B0"/>
<path d="M138.122 57.4165H126.348V60.8327H138.122V57.4165Z" fill="#B0B0B0"/>
<path d="M163.381 57.4165H151.607V60.8327H163.381V57.4165Z" fill="#B0B0B0"/>
<path d="M188.635 57.4165H176.861V60.8327H188.635V57.4165Z" fill="#B0B0B0"/>
<path d="M12.593 68.0537H204.399" stroke="#B0B0B0" stroke-miterlimit="10" stroke-linecap="round" stroke-linejoin="round"/>
<path d="M28.6913 62.1213C32.5486 58.2639 32.5486 52.01 28.6913 48.1526C24.834 44.2953 18.58 44.2953 14.7227 48.1526C10.8654 52.01 10.8653 58.2639 14.7227 62.1213C18.58 65.9786 24.834 65.9786 28.6913 62.1213Z" fill="#AAD300"/>
<path d="M204.776 74.3177H11.8332V113.056H204.776V74.3177Z" fill="#AAD300"/>
<path d="M24.3264 121.42H50.5772" stroke="#263238" stroke-miterlimit="10" stroke-linecap="round" stroke-linejoin="round"/>
<path d="M13.3528 121.42H22.54" stroke="#263238" stroke-miterlimit="10" stroke-linecap="round" stroke-linejoin="round"/>
<path d="M42.5326 130.531H50.5772" stroke="#263238" stroke-miterlimit="10" stroke-linecap="round" stroke-linejoin="round"/>
<path d="M21.8266 130.531H40.2126" stroke="#263238" stroke-miterlimit="10" stroke-linecap="round" stroke-linejoin="round"/>
<path d="M13.3528 130.531H19.8662" stroke="#263238" stroke-miterlimit="10" stroke-linecap="round" stroke-linejoin="round"/>
<path d="M30.3932 139.649H50.5772" stroke="#263238" stroke-miterlimit="10" stroke-linecap="round" stroke-linejoin="round"/>
<path d="M13.3528 139.649H28.253" stroke="#263238" stroke-miterlimit="10" stroke-linecap="round" stroke-linejoin="round"/>
<path d="M43.42 148.767H50.5772" stroke="#263238" stroke-miterlimit="10" stroke-linecap="round" stroke-linejoin="round"/>
<path d="M18.0798 148.767H41.6394" stroke="#263238" stroke-miterlimit="10" stroke-linecap="round" stroke-linejoin="round"/>
<path d="M13.3528 148.767H16.1194" stroke="#263238" stroke-miterlimit="10" stroke-linecap="round" stroke-linejoin="round"/>
<path d="M133.25 121.42H159.495" stroke="#263238" stroke-miterlimit="10" stroke-linecap="round" stroke-linejoin="round"/>
<path d="M122.277 121.42H131.464" stroke="#263238" stroke-miterlimit="10" stroke-linecap="round" stroke-linejoin="round"/>
<path d="M151.451 130.531H159.495" stroke="#263238" stroke-miterlimit="10" stroke-linecap="round" stroke-linejoin="round"/>
<path d="M130.751 130.531H149.131" stroke="#263238" stroke-miterlimit="10" stroke-linecap="round" stroke-linejoin="round"/>
<path d="M122.277 130.531H128.79" stroke="#263238" stroke-miterlimit="10" stroke-linecap="round" stroke-linejoin="round"/>
<path d="M139.317 139.649H159.495" stroke="#263238" stroke-miterlimit="10" stroke-linecap="round" stroke-linejoin="round"/>
<path d="M122.277 139.649H137.177" stroke="#263238" stroke-miterlimit="10" stroke-linecap="round" stroke-linejoin="round"/>
<path d="M152.344 148.767H159.495" stroke="#263238" stroke-miterlimit="10" stroke-linecap="round" stroke-linejoin="round"/>
<path d="M127.004 148.767H150.563" stroke="#263238" stroke-miterlimit="10" stroke-linecap="round" stroke-linejoin="round"/>
<path d="M122.277 148.767H125.038" stroke="#263238" stroke-miterlimit="10" stroke-linecap="round" stroke-linejoin="round"/>
<path d="M177.209 121.42H203.454" stroke="#263238" stroke-miterlimit="10" stroke-linecap="round" stroke-linejoin="round"/>
<path d="M166.235 121.42H175.422" stroke="#263238" stroke-miterlimit="10" stroke-linecap="round" stroke-linejoin="round"/>
<path d="M195.409 130.531H203.454" stroke="#263238" stroke-miterlimit="10" stroke-linecap="round" stroke-linejoin="round"/>
<path d="M174.709 130.531H193.089" stroke="#263238" stroke-miterlimit="10" stroke-linecap="round" stroke-linejoin="round"/>
<path d="M166.235 130.531H172.743" stroke="#263238" stroke-miterlimit="10" stroke-linecap="round" stroke-linejoin="round"/>
<path d="M183.275 139.649H203.454" stroke="#263238" stroke-miterlimit="10" stroke-linecap="round" stroke-linejoin="round"/>
<path d="M166.235 139.649H181.129" stroke="#263238" stroke-miterlimit="10" stroke-linecap="round" stroke-linejoin="round"/>
<path d="M196.302 148.767H203.454" stroke="#263238" stroke-miterlimit="10" stroke-linecap="round" stroke-linejoin="round"/>
<path d="M170.962 148.767H194.516" stroke="#263238" stroke-miterlimit="10" stroke-linecap="round" stroke-linejoin="round"/>
<path d="M166.235 148.767H168.996" stroke="#263238" stroke-miterlimit="10" stroke-linecap="round" stroke-linejoin="round"/>
<path d="M117.77 119.366H55.716V150.396H117.77V119.366Z" stroke="#263238" stroke-miterlimit="10" stroke-linecap="round" stroke-linejoin="round"/>
<path d="M55.716 150.396L77.3732 138.112L88.3642 141.343L105.492 127.771L117.451 135.525V150.396H55.716Z" fill="#263238" stroke="#263238" stroke-miterlimit="10" stroke-linecap="round" stroke-linejoin="round"/>
<path d="M70.9231 132.684C72.7387 130.716 72.6148 127.648 70.6462 125.833C68.6777 124.017 65.61 124.141 63.7944 126.109C61.9788 128.078 62.1027 131.146 64.0713 132.961C66.0398 134.777 69.1075 134.653 70.9231 132.684Z" fill="#263238" stroke="#263238" stroke-miterlimit="10" stroke-linecap="round" stroke-linejoin="round"/>
<path d="M289.079 91.3118H243.097V48.1134C243.097 46.1762 244.668 44.5986 246.611 44.5986H285.57C287.507 44.5986 289.085 46.1704 289.085 48.1134V91.3118H289.079Z" fill="white" stroke="#263238" stroke-miterlimit="10" stroke-linecap="round" stroke-linejoin="round"/>
<path d="M289.079 50.706H243.097V48.1134C243.097 46.1762 244.668 44.5986 246.611 44.5986H285.57C287.507 44.5986 289.085 46.1704 289.085 48.1134V50.706H289.079Z" fill="#AAD300" stroke="#263238" stroke-miterlimit="10" stroke-linecap="round" stroke-linejoin="round"/>
<path d="M254.093 57.9096C254.093 59.9106 252.469 61.5288 250.474 61.5288C248.473 61.5288 246.855 59.9106 246.855 57.9096C246.855 55.9086 248.479 54.2904 250.474 54.2904C252.475 54.2846 254.093 55.9086 254.093 57.9096Z" fill="#AAD300"/>
<path d="M252.545 65.8208H246.849V67.4738H252.545V65.8208Z" fill="#B0B0B0"/>
<path d="M252.545 71.8239H246.849V73.4768H252.545V71.8239Z" fill="#B0B0B0"/>
<path d="M252.545 77.821H246.849V79.4741H252.545V77.821Z" fill="#B0B0B0"/>
<path d="M252.545 83.7544H246.849V85.4074H252.545V83.7544Z" fill="#B0B0B0"/>
<path d="M285.651 53.5132H257.457V62.8222H285.651V53.5132Z" fill="#AAD300"/>
<path d="M284.3 65.235H258.084V78.343H284.3V65.235Z" stroke="#263238" stroke-miterlimit="10" stroke-linecap="round" stroke-linejoin="round"/>
<path d="M258.084 78.3371L267.23 73.1519L271.876 74.5149L279.109 68.7845L284.161 72.0616V78.3371H258.084Z" fill="#263238" stroke="#263238" stroke-miterlimit="10" stroke-linecap="round" stroke-linejoin="round"/>
<path d="M262.996 71.5106C264.127 71.5106 265.044 70.5939 265.044 69.4632C265.044 68.3324 264.127 67.4158 262.996 67.4158C261.866 67.4158 260.949 68.3324 260.949 69.4632C260.949 70.5939 261.866 71.5106 262.996 71.5106Z" fill="#263238" stroke="#263238" stroke-miterlimit="10" stroke-linecap="round" stroke-linejoin="round"/>
<path d="M265.937 81.1271H285.46" stroke="#263238" stroke-miterlimit="10" stroke-linecap="round" stroke-linejoin="round"/>
<path d="M257.776 81.1271H264.609" stroke="#263238" stroke-miterlimit="10" stroke-linecap="round" stroke-linejoin="round"/>
<path d="M279.48 83.7371H285.46" stroke="#263238" stroke-miterlimit="10" stroke-linecap="round" stroke-linejoin="round"/>
<path d="M264.081 83.7371H277.752" stroke="#263238" stroke-miterlimit="10" stroke-linecap="round" stroke-linejoin="round"/>
<path d="M257.776 83.7371H262.619" stroke="#263238" stroke-miterlimit="10" stroke-linecap="round" stroke-linejoin="round"/>
<path d="M270.449 86.3413H285.46" stroke="#263238" stroke-miterlimit="10" stroke-linecap="round" stroke-linejoin="round"/>
<path d="M257.776 86.3413H268.86" stroke="#263238" stroke-miterlimit="10" stroke-linecap="round" stroke-linejoin="round"/>
<path d="M280.141 88.9454H285.46" stroke="#263238" stroke-miterlimit="10" stroke-linecap="round" stroke-linejoin="round"/>
<path d="M261.291 88.9454H278.813" stroke="#263238" stroke-miterlimit="10" stroke-linecap="round" stroke-linejoin="round"/>
<path d="M257.776 88.9454H259.835" stroke="#263238" stroke-miterlimit="10" stroke-linecap="round" stroke-linejoin="round"/>
</g>
<defs>
<clipPath id="clip0_5_2052">
<rect width="344" height="234" fill="white"/>
</clipPath>
</defs>
</svg>
