<svg width="316" height="210" viewBox="0 0 316 210" fill="none" xmlns="http://www.w3.org/2000/svg">
<g clip-path="url(#clip0_5_2960)">
<path d="M159.008 210.024C220.06 210.024 269.552 208.369 269.552 206.328C269.552 204.287 220.06 202.632 159.008 202.632C97.9562 202.632 48.464 204.287 48.464 206.328C48.464 208.369 97.9562 210.024 159.008 210.024Z" fill="#263238" stroke="#263238" stroke-miterlimit="10" stroke-linecap="round" stroke-linejoin="round"/>
<path d="M266.185 169.14H51.656C48.5043 169.14 45.9574 166.586 45.9574 163.441V5.38655C45.9574 2.23487 48.511 -0.312012 51.656 -0.312012H266.185C269.337 -0.312012 271.884 2.24159 271.884 5.38655V163.434C271.891 166.586 269.337 169.14 266.185 169.14Z" fill="#263238" stroke="#263238" stroke-miterlimit="10" stroke-linecap="round" stroke-linejoin="round"/>
<path d="M187.03 182.203V163.118H130.818V182.203C130.818 188.433 128.714 194.481 124.85 199.359L122.391 202.471H195.471L193.011 199.359C189.134 194.481 187.03 188.433 187.03 182.203Z" fill="white" stroke="#263238" stroke-miterlimit="10" stroke-linecap="round" stroke-linejoin="round"/>
<path d="M187.024 163.118H130.811V178.44H187.024V163.118Z" fill="#263238" stroke="#263238" stroke-miterlimit="10" stroke-linecap="round" stroke-linejoin="round"/>
<path d="M195.477 202.471H122.384V205.878H195.477V202.471Z" fill="white" stroke="#263238" stroke-miterlimit="10" stroke-linecap="round" stroke-linejoin="round"/>
<path d="M266.185 169.14H51.656C48.5043 169.14 45.9574 166.586 45.9574 163.441V142.804H271.891V163.441C271.891 166.586 269.337 169.14 266.185 169.14Z" fill="white" stroke="#263238" stroke-miterlimit="10" stroke-linecap="round" stroke-linejoin="round"/>
<path d="M260.527 10.2317H57.321V129.948H260.527V10.2317Z" fill="#AAD300" stroke="#263238" stroke-miterlimit="10" stroke-linecap="round" stroke-linejoin="round"/>
<path d="M252.356 124.606C248.807 124.606 245.75 122.147 245.004 118.706L243.418 111.361C242.544 107.302 238.929 104.406 234.749 104.406C230.811 104.406 227.35 106.986 226.242 110.736L225.166 114.378C224.326 117.234 221.685 119.196 218.688 119.196C215.839 119.196 213.292 117.416 212.331 114.755L208.783 104.923C206.639 98.9895 200.974 95.0247 194.624 95.0247C189.853 95.0247 185.371 97.2691 182.535 101.073L175.761 110.165C174.404 111.986 172.253 113.061 169.975 113.061C165.997 113.061 162.778 109.862 162.778 105.911V99.4733H154.64V105.911C154.64 109.856 151.414 113.061 147.443 113.061C145.158 113.061 143.014 111.986 141.657 110.165L134.883 101.073C132.047 97.2691 127.558 95.0247 122.794 95.0247C116.444 95.0247 110.779 98.9827 108.635 104.923L105.087 114.755C104.126 117.422 101.579 119.196 98.7296 119.196C95.7325 119.196 93.0915 117.234 92.2515 114.378L91.1763 110.736C90.0675 106.986 86.6067 104.406 82.6688 104.406C78.489 104.406 74.8736 107.302 74 111.361L72.4141 118.706C71.6682 122.147 68.6106 124.606 65.0624 124.606H57.3344V129.942H260.097V124.606H252.356Z" fill="white" stroke="#263238" stroke-miterlimit="10" stroke-linecap="round" stroke-linejoin="round"/>
<path d="M163.268 23.5574H155.184V43.4554H163.268V23.5574Z" fill="white" stroke="#263238" stroke-miterlimit="10" stroke-linecap="round" stroke-linejoin="round"/>
<path d="M162.798 99.8026H154.606L153.585 89.9309H163.82L162.798 99.8026Z" fill="white" stroke="#263238" stroke-miterlimit="10" stroke-linecap="round" stroke-linejoin="round"/>
<path d="M152.664 57.7824L145.272 68.6016V84.5683C145.272 85.079 145.689 85.489 146.193 85.489C146.704 85.489 147.114 85.0723 147.114 84.5683V79.9517L152.658 77.8416V57.7824H152.664Z" fill="white" stroke="#263238" stroke-miterlimit="10" stroke-linecap="round" stroke-linejoin="round"/>
<path d="M165.715 57.7824L173.107 68.6016V84.5683C173.107 85.079 172.69 85.489 172.186 85.489C171.675 85.489 171.265 85.0723 171.265 84.5683V79.9517L165.721 77.8416V57.7824H165.715Z" fill="white" stroke="#263238" stroke-miterlimit="10" stroke-linecap="round" stroke-linejoin="round"/>
<path d="M155.661 93.6672L162.18 93.7075C164.431 93.721 166.272 91.9066 166.286 89.6554L166.608 37.2125C166.622 35.472 165.217 34.0473 163.47 34.0406L155.104 33.9869C153.363 33.9734 151.939 35.3779 151.932 37.1251L151.609 89.568C151.589 91.8192 153.404 93.6538 155.661 93.6672Z" fill="#263238" stroke="#263238" stroke-miterlimit="10" stroke-linecap="round" stroke-linejoin="round"/>
<path d="M151.629 85.5158L151.603 89.5075C151.589 91.7923 153.43 93.6537 155.715 93.6672L162.126 93.7075C164.411 93.7209 166.272 91.8797 166.286 89.5949L166.313 85.5158H151.629Z" fill="white" stroke="#263238" stroke-miterlimit="10" stroke-linecap="round" stroke-linejoin="round"/>
<path d="M159.001 85.489C158.276 85.489 157.684 84.8976 157.684 84.1718V58.8374C157.684 58.1117 158.276 57.5203 159.001 57.5203C159.727 57.5203 160.318 58.1117 160.318 58.8374V84.1718C160.318 84.8976 159.727 85.489 159.001 85.489Z" fill="white" stroke="#263238" stroke-miterlimit="10" stroke-linecap="round" stroke-linejoin="round"/>
<path d="M159.23 14.9424L155.184 23.5574H163.268L159.23 14.9424Z" fill="white" stroke="#263238" stroke-miterlimit="10" stroke-linecap="round" stroke-linejoin="round"/>
<path d="M159.23 12.3015V14.8618" stroke="#263238" stroke-miterlimit="10" stroke-linecap="round" stroke-linejoin="round"/>
</g>
<defs>
<clipPath id="clip0_5_2960">
<rect width="316" height="210" fill="white"/>
</clipPath>
</defs>
</svg>
