<svg width="168" height="136" viewBox="0 0 168 136" fill="none" xmlns="http://www.w3.org/2000/svg">
<path fill-rule="evenodd" clip-rule="evenodd" d="M86.2728 3.06171C89.4838 1.75601 94.4617 -0.0412659 94.7702 0.000627632V0.000562423H94.7705V0.000886492C94.9246 0.0148726 94.9525 0.0710109 95.1909 1.02582C95.6257 2.59855 96.411 4.7888 97.2382 6.68443C98.3038 9.12766 100.127 12.7504 101.781 15.6711L102.065 16.1772C105.093 16.6405 108.821 17.286 110.517 17.623C119.518 19.4063 126.628 21.8074 132.124 24.8823C136.121 27.129 139.388 29.8389 142.08 33.1808C143.005 34.3322 143.777 35.4132 144.898 37.1545L145.095 37.4634L143.819 37.6601C135.561 38.9248 123.103 41.9537 111.836 45.3049C111.841 45.413 111.859 45.5692 111.891 45.7342C112.241 47.7422 112.465 49.7921 112.592 52.3195C112.676 53.8642 112.634 58.4277 112.536 59.7898C112.157 64.662 111.582 68.7763 110.853 71.8652C109.633 76.9622 107.39 82.9299 104.277 89.2908C103.365 91.1582 102.58 92.6605 102.468 92.731C102.412 92.773 101.038 92.773 100.014 92.731C94.9523 92.5342 85.7538 91.2284 81.0005 90.0207C78.1401 89.3047 74.3402 88.027 72.0825 87.0299C67.6517 85.0781 63.8516 82.2137 61.9447 79.4056C60.4584 77.2009 60.0796 74.8139 60.8509 72.4549C61.2856 71.1489 62.2951 69.4499 63.5712 67.8492C64.4265 66.7822 66.1091 65.0973 67.2448 64.1985C67.3169 64.1412 67.3906 64.0823 67.4657 64.0219L67.3149 64.0723C76.8078 56.2652 82.9635 49.2304 85.8801 42.8555C87.5205 39.3029 88.1797 36.2419 88.0956 32.7596C87.9554 27.3396 86.4549 23.4079 83.0057 19.4203C82.2484 18.5496 76.0087 12.4556 76.0087 12.4556C75.4059 11.8939 74.8731 11.3463 74.6906 10.8972C74.6161 10.7123 74.5802 10.5428 74.5682 10.3926L74.5225 10.3492C74.5225 10.1808 74.5507 10.0123 74.6067 9.87184C74.6187 9.84231 74.6356 9.80921 74.657 9.77301C74.6832 9.70941 74.7045 9.67532 74.7045 9.67532L74.7089 9.6918C75.0145 9.24269 75.8309 8.45123 76.4995 7.9762C78.5749 6.51621 81.9399 4.83114 86.2728 3.06171ZM99.9208 15.8032C99.9333 15.8204 99.944 15.8352 99.9493 15.8472C96.8841 15.3663 94.3422 14.9553 91.9535 14.5583C91.995 14.5229 92.1141 14.444 92.2602 14.3652C93.7326 13.551 95.2188 12.5118 96.537 11.4025C96.6961 11.2708 96.8484 11.1426 96.9686 11.0415L96.9703 11.04L96.9704 11.0399C97.0929 10.9368 97.1817 10.862 97.2099 10.8407C97.2239 10.8127 97.2521 10.7987 97.266 10.8127C97.3222 10.8127 97.3921 10.939 97.5604 11.3181C98.0371 12.3711 99.5237 15.2077 99.888 15.7552C99.8988 15.7728 99.9104 15.7888 99.9208 15.8032ZM90.4372 13.6772C90.07 13.907 89.7307 14.0994 89.5891 14.1616C89.138 14.0852 88.6879 14.0087 88.2363 13.9315L86.9041 12.6239C84.4362 10.2229 82.5011 8.3695 81.7579 7.66728L81.0285 7.00747L81.5756 7.18981C84.548 8.20095 92.0216 9.63323 96.1442 9.97019C96.4426 9.99738 96.7118 10.0246 96.8692 10.0405C96.9558 10.0492 97.0085 10.0546 97.0134 10.0546C97.0274 10.0686 96.635 10.2792 96.1301 10.5178C94.1392 11.5148 91.9517 12.7364 90.4372 13.6772ZM84.9386 13.0059C85.094 13.1981 85.2203 13.3543 85.2627 13.4199C83.8769 13.1777 82.3344 12.8979 81.1967 12.6524C80.3554 12.4697 78.743 12.0906 77.481 11.6554C77.3604 11.6084 77.2335 11.5614 77.1028 11.5131L77.0605 11.4974V11.3461C77.0744 10.4053 78.2664 9.00127 80.2855 7.56918L80.4678 7.44266L82.4449 9.91405C83.3242 11.0234 84.2128 12.114 84.6412 12.6398C84.7388 12.7596 84.8125 12.85 84.8568 12.9047L84.9383 13.0056L84.9386 13.0059ZM109.727 45.9403C107.005 46.7709 104.376 47.6153 101.918 48.4524C102.371 48.8094 105.003 50.5574 106.394 51.435C108.007 52.4459 110.264 53.7797 110.376 53.7797C110.404 53.7797 110.419 53.4006 110.39 52.825C110.291 50.4021 109.925 46.7243 109.727 45.9403ZM100.411 48.9722L100.101 49.0811C100.081 49.254 100.078 49.6042 100.07 50.3392V50.3395C100.042 53.1759 99.5093 56.7142 98.5698 60.2108C98.4577 60.6321 98.3739 60.983 98.4018 60.983C98.4158 60.983 98.9906 60.7444 99.6775 60.4354C103.576 58.7083 106.759 56.9953 109.311 55.2542C109.399 55.1938 109.481 55.1383 109.556 55.0872L109.556 55.0872C110.096 54.7199 110.296 54.5834 110.277 54.4937C110.266 54.4407 110.178 54.4041 110.038 54.3458C110.004 54.3317 109.967 54.3165 109.928 54.2994C108.245 53.5692 104.319 51.3786 101.43 49.5673C100.916 49.2488 100.601 49.0616 100.411 48.9722ZM96.8313 50.2693C94.6647 51.0838 92.5932 51.8926 90.6052 52.7012C90.6911 52.9996 91.1007 53.9829 91.3768 54.5238C92.0078 55.7594 92.863 57.0232 93.9568 58.287C94.5877 59.0171 96.5087 60.8986 96.5651 60.8285C96.5928 60.8005 96.7333 60.3649 96.8876 59.8458C97.5324 57.6972 97.925 55.7876 98.1774 53.7375C98.2803 52.9523 98.3358 50.2427 98.2797 49.7329C97.7865 49.9126 97.3035 50.0915 96.8313 50.2693ZM89.1502 53.2993C88.968 53.3749 88.7866 53.4506 88.6058 53.5263C88.5818 53.5684 88.5624 53.6184 88.5444 53.6814C88.5023 53.8218 88.2639 54.4395 88.0255 55.0574C86.6232 58.624 84.1274 63.6648 82.4869 66.2345C82.1223 66.8101 82.0802 66.8804 82.2066 66.8382C82.9956 66.5785 83.7854 66.321 84.5759 66.0658C87.8852 64.9987 90.7739 63.9878 93.4238 62.9768L93.6188 62.9025C95.3689 62.2359 95.6326 62.1355 95.624 62.0723C95.6224 62.0611 95.6123 62.0511 95.6004 62.0393L95.5971 62.036C95.5552 61.9938 95.2469 61.7271 94.9102 61.4463C93.8728 60.5616 92.6248 59.2138 91.6713 57.95C90.8017 56.7985 89.7922 55.0012 89.3437 53.7796C89.2721 53.5646 89.1902 53.3699 89.1502 53.2993ZM86.2597 54.5262C83.4435 55.7487 80.7976 56.9795 78.2826 58.2368C78.1915 58.3571 78.1511 58.551 78.0569 59.002L78.042 59.0733C77.8035 60.2528 77.7614 62.1623 77.9718 63.2576C78.182 64.3669 78.5748 65.5746 79.0515 66.5154C79.2758 66.9506 79.304 66.9788 79.374 66.8804C79.4162 66.8243 79.7386 66.3187 80.0751 65.7711C82.0662 62.5978 83.5525 59.9859 84.9127 57.3321C85.512 56.1559 86.1215 54.8875 86.2597 54.5262ZM75.6938 59.5647L75.6723 59.576L75.6721 59.5787C75.6672 59.5803 75.6605 59.5829 75.6522 59.5865C75.2497 59.7986 74.8504 60.0115 74.4542 60.2254C73.6691 60.6572 72.6551 61.225 71.8722 61.6707C69.8811 62.8082 68.7172 63.6928 67.2589 65.2092C65.0715 67.484 63.501 70.18 63.1785 72.2439C63.1365 72.4828 63.1506 72.4968 63.2485 72.4686C63.2776 72.4614 63.4932 72.4019 63.8144 72.3132L63.818 72.3122C64.119 72.2291 64.5121 72.1205 64.9313 72.0054C67.848 71.2052 77.1304 68.481 77.2286 68.3966C77.2428 68.3827 77.0183 67.9053 76.7379 67.3295C75.7284 65.2515 75.3916 63.7349 75.5041 61.6848C75.5319 61.2216 75.6019 60.5476 75.6581 60.1825C75.7422 59.6769 75.7562 59.5646 75.7002 59.5646L75.6938 59.5647ZM94.56 0.716962H94.5456C94.1532 0.787087 88.8809 2.99158 86.9599 3.8764C85.4595 4.57829 82.0523 6.36171 82.1084 6.41785C82.1084 6.43184 82.7394 6.53007 83.4826 6.62842C88.1239 7.27431 94.5319 8.38361 95.9621 8.77665C95.9967 8.78713 96.0293 8.79729 96.0599 8.80683C96.2359 8.86166 96.347 8.89625 96.396 8.85575C96.4798 8.78658 96.3827 8.49832 96.1198 7.71762L96.0462 7.49886C95.3593 5.44873 94.9242 3.55342 94.6861 1.58734C94.6299 1.12424 94.5738 0.730819 94.56 0.716962ZM110.475 55.9983V55.4086L110.25 55.5771C109.97 55.8299 108.68 56.7565 107.824 57.3323C105.539 58.8628 102.903 60.4073 100.154 61.8395C100.035 61.9031 99.9178 61.9651 99.8065 62.024C99.7199 62.0699 99.6366 62.1141 99.5578 62.1558L99.5549 62.1573L99.5547 62.1574L99.5544 62.1576C99.1557 62.3687 98.874 62.5179 98.8645 62.5275C98.8083 62.5837 100.785 63.8054 102.146 64.5497C104.207 65.6868 106.493 66.6557 108.596 67.3157C109.072 67.4563 109.479 67.5685 109.479 67.5685C109.493 67.5543 109.563 67.1051 109.647 66.5576C110.138 63.4262 110.475 59.1295 110.475 55.9983ZM98.3316 63.8895C97.925 63.6509 97.5885 63.4682 97.5745 63.4822C97.5687 63.488 97.5537 63.5311 97.5302 63.5983L97.53 63.5989L97.53 63.599C97.4959 63.6964 97.4444 63.8442 97.378 64.0018C96.4806 66.782 94.7137 70.7838 92.9609 74.0695C92.6386 74.6731 92.3861 75.1646 92.3861 75.1788C92.3861 75.1928 92.5404 75.1506 92.7086 75.0804C92.8771 75.0103 93.7744 74.6732 94.686 74.3363C100.954 71.9913 107.081 69.4358 108.946 68.3966L109.395 68.1442L109.072 68.0739C105.511 67.2455 101.332 65.6307 98.3316 63.8895ZM95.1066 64.8583C95.2469 64.5214 95.3593 64.2268 95.345 64.2125C95.3311 64.2125 94.8822 64.3951 94.3353 64.6199C90.479 66.2767 86.5952 67.6247 82.0239 68.8742L80.748 69.2253L81.0005 69.5342C82.7251 71.7107 85.3611 73.9573 88.3339 75.7827C88.8387 76.0916 89.2595 76.3445 89.2733 76.3445C89.2875 76.3445 89.7223 75.6003 90.241 74.6734C92.2881 71.0508 93.8868 67.8211 95.1066 64.8583ZM107.909 74.3643C108.498 72.2723 109.213 69.3797 109.199 69.0568C109.157 69.0568 108.946 69.1409 108.68 69.3095C106.408 70.6713 99.7901 73.8447 93.4101 76.639C92.3445 77.1024 91.5031 77.4953 91.531 77.5237C91.6151 77.5938 93.0172 78.2257 93.9989 78.619C97.5044 80.023 101.234 81.0761 105.399 81.8346C105.483 81.8625 105.567 81.8764 105.581 81.8764C105.595 81.8764 105.889 80.9921 106.226 79.9247C106.997 77.4957 107.418 76.1195 107.909 74.3643ZM72.9659 76.246C75.4619 72.7497 77.2427 70.1801 77.2146 70.1521C77.2007 70.1521 76.5415 70.3063 75.7281 70.5032C74.9148 70.6998 72.6574 71.2334 70.7084 71.6825C67.2027 72.4971 63.4587 73.3818 63.2485 73.4379C63.1084 73.4798 63.1084 73.817 63.2627 74.4911C63.5852 75.9372 64.3983 77.5239 65.6043 79.0262C66.1792 79.7564 67.4691 81.0762 68.2123 81.6942L68.8433 82.2277L69.4325 81.315C69.755 80.8095 70.3298 79.967 70.7085 79.4333C70.8313 79.2603 71.0204 78.9927 71.2496 78.6685L71.257 78.658C71.7338 77.9835 72.3815 77.0672 72.9659 76.246ZM79.4579 71.3456L79.0094 70.8401L76.5276 73.8309C72.924 78.1838 71.2692 80.2759 69.9512 82.1856L69.5446 82.7752L69.7968 82.9578C69.9373 83.0561 70.0636 83.1403 70.0775 83.1403C70.0914 83.1403 71.9284 82.5084 74.1577 81.7221C78.1259 80.346 86.6936 77.2993 86.7915 77.2292C86.8196 77.2149 86.4832 76.9904 86.0344 76.7375C83.5385 75.2775 81.4773 73.6063 79.4579 71.3456ZM91.587 79.3494C90.8298 79.0682 90.2128 78.8437 90.1991 78.8577C90.1991 78.8652 90.0848 79.0361 89.9071 79.3021C89.7551 79.5294 89.5568 79.826 89.3437 80.1496C87.675 82.7052 85.6697 85.4011 83.6507 87.8163C83.244 88.2937 82.9075 88.729 82.9075 88.7569C82.9075 88.813 83.3704 88.9396 83.5105 88.9114C83.5665 88.8975 84.5201 88.6306 85.6278 88.3077C91.6292 86.5805 98.9906 84.4041 101.403 83.646C102.917 83.1686 104.978 82.4806 105.076 82.4244C105.132 82.3822 104.964 82.354 104.656 82.326C102.622 82.1576 99.1731 81.5678 96.7893 80.964C94.8541 80.4725 93.4101 80.0373 91.587 79.3494ZM85.011 83.2947C86.7495 80.5427 87.7449 78.942 87.731 78.928C87.717 78.9138 87.3666 79.0121 86.9598 79.1385C84.7301 79.8406 81.3229 80.8093 75.1812 82.4804C74.3957 82.6949 73.6555 82.8965 73.0192 83.0698L72.9915 83.0773L72.9869 83.0785L72.9818 83.0799C71.7644 83.4114 70.937 83.6367 70.9186 83.6459C70.8066 83.6738 72.2087 84.5725 73.3303 85.1764C74.2278 85.6538 75.4336 86.2153 76.5975 86.6787C77.537 87.0578 81.0845 88.3076 81.5895 88.448L81.7997 88.5042L82.2064 87.788C82.2671 87.6881 82.3395 87.5681 82.4184 87.4373C82.6496 87.0541 82.9367 86.5785 83.1458 86.2435C83.2469 86.0844 83.4107 85.8245 83.6124 85.5045L83.6156 85.4994C84.0012 84.8876 84.5241 84.0581 85.011 83.2947ZM105.202 83.0279H105.188C105.09 83.042 104.726 83.1964 104.291 83.393C101.529 84.6847 98.7943 85.7379 96.0319 86.5804C93.8446 87.2544 91.6852 87.8019 87.1981 88.8128L85.1091 89.2906L85.4455 89.3607C86.9177 89.6975 92.779 90.7227 96.2703 91.2563C98.2757 91.5512 101.571 92.0146 101.809 92.0284C101.907 92.0427 101.977 91.9302 102.159 91.4809C102.987 89.4871 105.258 83.1685 105.202 83.0279ZM78.3224 13.1858C78.3325 13.1758 78.453 13.2171 78.6308 13.2781C78.6983 13.3013 78.7741 13.3272 78.8552 13.3543C79.388 13.5367 80.0751 13.7474 80.8886 13.9722C81.504 14.1417 82.1209 14.3055 82.7394 14.4636C83.3068 14.6055 83.8104 14.7412 84.0825 14.8145C84.2138 14.8499 84.2911 14.8707 84.2956 14.8707C84.394 14.9691 85.8103 19.5041 86.287 21.2453C86.469 21.9055 86.6095 22.467 86.5955 22.467C86.5811 22.4812 86.4271 22.2424 86.2448 21.9194C84.6042 19.0268 82.0102 16.0922 79.0094 13.7332C78.617 13.4526 78.3224 13.1998 78.3224 13.1858ZM85.2212 15.0955C85.2914 15.0955 85.5999 15.1376 85.9782 15.2218C88.362 15.7553 92.6388 16.5698 95.373 17.0332C95.8358 17.1033 96.2004 17.1877 96.2004 17.2156C96.2004 17.2439 96.032 17.342 95.8216 17.4544C95.3591 17.6931 93.494 18.8022 92.8772 19.2236C91.3206 20.2626 89.9186 21.3859 88.9089 22.3969C88.5023 22.8041 88.1516 23.1411 88.1516 23.1411C88.1516 23.1411 88.0678 22.9025 87.9973 22.6074C87.4929 20.6556 86.441 17.763 85.4875 15.7272C85.3491 15.4375 85.2332 15.1702 85.2109 15.0982C85.213 15.0972 85.2162 15.0955 85.2212 15.0955ZM97.3641 17.4123C97.4483 17.4403 97.5885 17.9177 97.8689 18.9708C98.3878 21.0069 98.6262 23.2816 98.5421 25.4019C98.5139 25.9916 98.4859 26.5391 98.4577 26.6095L98.4158 26.7498L97.6867 26.5112C96.1863 26.0338 93.7466 25.3175 91.6574 24.7279C90.4653 24.4049 89.498 24.11 89.498 24.082C89.498 23.9976 91.2368 22.2565 91.9799 21.5967C93.3959 20.3468 97.2379 17.3701 97.3641 17.4123ZM98.3317 17.5525C98.3738 17.5106 104.137 18.5074 106.759 19.0129C108.708 19.392 111.54 19.9818 111.709 20.0521C111.793 20.0801 111.498 20.2486 110.559 20.6698C106.857 22.3408 104.109 23.8431 101.375 25.6686C100.659 26.146 100.056 26.5391 100.042 26.5391C100.028 26.5391 100.014 26.132 100.014 25.6405C100.014 22.9727 99.4816 20.2767 98.4998 18.002C98.4017 17.7774 98.3176 17.5668 98.3317 17.5525ZM113.237 20.5014C113.279 20.5435 113.097 21.681 112.928 22.3548C112.424 24.447 111.064 27.5504 109.395 30.4708C109.1 30.9904 108.834 31.4117 108.806 31.4257C108.778 31.4396 108.4 31.2289 107.965 30.9762C106.338 30.0214 104.487 29.1228 102.468 28.2802C102.305 28.2109 102.148 28.1452 102.007 28.086L102.007 28.086C101.663 27.9416 101.412 27.8368 101.403 27.817C101.304 27.7327 105.819 24.7419 108.203 23.3096C110.096 22.1583 113.181 20.4451 113.237 20.5014ZM114.303 20.6698C114.429 20.6698 116.981 21.372 118.313 21.7651C121.608 22.7481 125.394 24.1381 127.862 25.2614L128.885 25.725L128.17 25.8933C122.141 27.2833 116.981 28.8843 112.003 30.9062C111.596 31.0746 111.232 31.2151 111.204 31.2151C111.176 31.2151 111.316 30.8922 111.498 30.4989C112.999 27.3115 113.966 23.9837 114.204 21.1472C114.219 20.8803 114.26 20.6698 114.303 20.6698ZM88.895 26.5112C88.9369 26.4689 90.8861 26.9324 91.9377 27.227C93.5362 27.6765 96.9294 28.8138 96.9294 28.8981C96.9294 28.9077 96.7513 29.0626 96.4948 29.2859L96.4944 29.2862C96.377 29.3884 96.2431 29.5049 96.1023 29.6284C94.2655 31.1589 92.4986 32.7734 90.3811 34.8236C89.7501 35.4276 89.2174 35.919 89.1895 35.919C89.1613 35.919 89.1475 35.8345 89.1613 35.7222C89.4838 33.3632 89.4139 30.3303 88.9651 27.2553C88.9554 27.1652 88.9458 27.0782 88.9368 26.9972C88.9066 26.7247 88.8841 26.5219 88.895 26.5112ZM129.853 26.5534C129.881 26.5813 128.956 28.0416 128.367 28.87C127.526 30.0775 126.291 31.6785 123.501 35.1888C122.029 37.0421 120.374 39.1345 119.827 39.8365C119.654 40.0536 119.49 40.2599 119.345 40.4414C119.023 40.8468 118.799 41.1281 118.789 41.1281C118.776 41.1281 118.593 40.8755 118.397 40.5667C116.827 38.2076 114.947 36.1435 112.718 34.2901C112.297 33.9389 111.835 33.5598 111.681 33.4475C111.526 33.3352 111.4 33.2229 111.4 33.2089C111.4 33.1669 113.784 32.1416 115.593 31.4116C118.762 30.1197 123.08 28.5752 126.319 27.5782C128.016 27.0447 129.825 26.5251 129.853 26.5534ZM130.933 26.834C130.989 26.8201 131.325 26.9886 131.732 27.227C135.139 29.1788 138.476 31.6924 141.113 34.276C141.856 35.0063 143.693 36.9159 143.664 36.9299C143.664 36.9299 143.02 36.986 142.262 37.0421C136.359 37.4916 128.802 38.7411 121.538 40.4962C121.047 40.6084 120.613 40.7068 120.585 40.7068C120.557 40.7068 121.103 40.1593 121.791 39.4994C126.053 35.3853 128.002 32.7876 130.302 28.1538C130.624 27.466 130.905 26.8762 130.933 26.834ZM99.7058 30.0357C99.9022 30.0776 101.725 30.9344 103.099 31.6222C104.361 32.2539 106.254 33.2651 106.352 33.3492C106.366 33.3632 105.693 33.7143 104.866 34.1215C102.23 35.4414 99.9724 36.691 97.6165 38.1232C96.9435 38.5305 96.3827 38.8677 96.3687 38.8677C96.3126 38.8677 96.3265 38.8112 96.7052 38.1232C97.9672 35.8207 98.9766 33.0685 99.5517 30.3865C99.6076 30.1759 99.6638 30.0357 99.7058 30.0357ZM97.8828 30.3725C97.925 30.4147 97.4483 32.1417 97.1539 33.0825C96.5788 34.8658 95.6114 37.0983 94.6721 38.7833C94.5745 38.9541 94.4557 39.1593 94.3377 39.3634C94.1842 39.6289 94.0318 39.8924 93.9287 40.075L93.5783 40.6366L92.793 39.8786C91.8817 38.9939 91.1384 38.4463 90.1851 37.9547C89.8062 37.7583 89.5119 37.5896 89.5119 37.5617C89.5119 37.4494 91.9096 35.273 93.7465 33.7003C95.0645 32.5629 97.8409 30.3304 97.8828 30.3725ZM109.031 34.9641L109.718 35.4133C111.288 36.4385 113.139 37.8004 114.555 38.9939C115.354 39.6537 116.897 41.044 117.205 41.381L117.373 41.5637L116.238 41.8865C109.816 43.6696 104.852 45.2564 99.0608 47.3908C98.4158 47.6294 97.8689 47.826 97.8267 47.826C97.8168 47.826 97.8071 47.827 97.8001 47.8265C97.7954 47.8262 97.7919 47.8252 97.7903 47.8229C97.7749 47.8013 97.9287 47.6593 98.8631 46.7965L99.117 46.5621C102.819 43.1504 106.1 39.387 108.54 35.7222L109.031 34.9641ZM106.1 35.6943C106.128 35.7222 104.207 38.4322 103.057 39.9627C101.683 41.7882 99.243 44.8491 97.5604 46.8429C96.8595 47.6715 96.2566 48.3595 96.2284 48.3736C96.1863 48.3876 96.1723 48.177 96.1723 47.854C96.1723 46.1548 95.7377 44.3435 94.9804 42.7991C94.6579 42.1532 94.6018 41.9987 94.6721 41.9286C94.9385 41.6898 99.0188 39.3589 101.599 37.9689C103.337 37.0422 106.057 35.6662 106.1 35.6943ZM88.376 40.0471C88.4182 40.0471 88.7407 40.2155 89.1053 40.4122C90.0027 40.9036 90.8019 41.4512 91.517 42.041C91.5449 42.069 91.1805 42.364 90.7038 42.7148C89.3716 43.6696 87.3525 45.2003 86.1749 46.1411C84.9406 47.124 84.8989 47.1521 85.0389 46.9415C85.9645 45.5233 86.427 44.7229 86.918 43.6979C87.3525 42.7854 87.7871 41.7041 88.0956 40.7633C88.2077 40.356 88.3481 40.0471 88.376 40.0471ZM93.6255 44.4151L93.6256 44.4152L93.6343 44.4281C94.4335 45.6214 95.0505 47.2223 95.205 48.5141L95.2327 48.795L93.312 49.5393C89.8764 50.8731 86.7076 52.1931 84.562 53.1758C83.9592 53.4567 82.9075 53.9621 82.2206 54.2993C81.5334 54.6502 80.9725 54.917 80.9725 54.903C80.9725 54.889 81.4071 54.5661 81.9399 54.1728C86.1328 51.1259 89.7643 47.7839 92.4845 44.4421L92.643 44.2528L92.6432 44.2526C92.8692 43.9824 93.0507 43.7654 93.0734 43.754L93.1016 43.754C93.1709 43.7402 93.2546 43.8643 93.6255 44.4151ZM90.9282 44.2876C90.9843 44.3438 89.3859 46.155 88.2921 47.2643C85.5859 50.0306 82.9076 52.1931 79.5844 54.2993C79.428 54.3985 79.2774 54.4938 79.1478 54.5758C78.9288 54.7144 78.7695 54.8152 78.743 54.8329C78.6448 54.889 78.771 54.7485 80.2293 53.1618C81.1549 52.1648 81.8559 51.3224 82.6552 50.2835C83.188 49.5955 83.2862 49.4972 84.0575 48.9493C86.1188 47.4609 90.8721 44.2314 90.9282 44.2876ZM29.82 102.441C29.9494 102.435 30.079 102.429 30.2086 102.429L30.2084 102.426C38.1164 102.362 42.8653 108.001 42.4143 117.02C42.2419 120.051 42.0693 120.803 40.8666 123.239C39.3807 126.272 37.2564 128.251 34.6984 129.026C33.9225 129.263 33.2814 129.544 33.2814 129.672C33.2814 129.801 34.6368 131.262 36.3125 132.94L39.344 136H34.785L32.2713 133.051C30.2284 130.662 29.5211 130.082 28.4663 129.909C23.4811 129.112 20.4944 127.003 18.6461 123.005C17.0566 118.913 16.8642 113.598 18.6263 109.531C20.6866 105.035 24.2103 102.732 29.4349 102.454C29.5628 102.454 29.6913 102.447 29.82 102.441ZM26.665 126.534C28.7672 127.306 31.9878 127.091 34.2057 126.016L34.208 126.013C37.6237 124.355 39.4079 120.352 39.0826 115.017C38.671 108.626 35.5167 105.225 29.972 105.225C26.2338 105.225 23.6756 106.928 21.7412 110.629C20.5385 112.954 20.3883 118.116 21.4405 120.915C22.387 123.474 24.4915 125.734 26.665 126.534ZM108.598 112.435C109.584 110.908 111.048 110.133 112.96 110.133V110.138H114.488V113.406L113.305 113.06C111.543 112.567 109.72 113.598 108.66 115.666C107.891 117.174 107.822 117.818 107.822 123.328V129.354H104.515V110.501H107.825V113.645L108.598 112.435ZM91.4963 110.197C92.181 110.047 92.8686 109.96 93.5169 109.96H93.5142C98.0487 109.876 101.164 113.149 101.164 118.331V120.873H87.8194C88.0977 122.788 88.7017 124.466 90.074 125.865C92.2255 127.696 94.9116 127.696 98.4775 126.142L100.047 125.327V128.293C100.047 128.293 99.2292 128.664 98.4775 128.984C94.0714 130.576 90.8063 130.339 87.196 127.373C85.4337 125.455 84.7241 123.627 84.7241 119.97C84.5714 115.602 87.0677 111.357 91.4963 110.197ZM88.1201 118.227C88.12 118.227 88.12 118.227 88.12 118.227H88.1201V118.227ZM88.1239 118.203H98.071C98.071 118.203 97.7902 115.039 96.1143 113.749C95.2986 113.124 94.3105 112.803 93.3196 112.803C92.3316 112.803 91.3214 113.104 90.4414 113.726C88.7061 114.93 88.1737 117.903 88.1239 118.203ZM3.34755 109.23C3.15289 111.081 4.74486 112.65 8.33278 114.827L8.33301 114.824C13.7223 118.049 15.1445 120.115 14.7329 124.054C14.2599 128.249 9.25462 130.832 3.75449 129.734C1.53683 129.305 0.0581589 128.683 0.0581589 128.683C0.0581589 128.683 -0.0308204 126.055 0.141797 124.957C0.186116 124.957 1.02409 125.369 2.01457 125.863C6.82729 128.293 11.4922 126.941 11.4922 123.067C11.4922 121.191 9.98907 119.471 6.58842 117.49C0.531011 113.961 -1.14494 110.797 0.747834 106.602C2.0365 103.759 4.78668 102.362 9.04007 102.427C11.8125 102.471 13.7471 103.31 13.7471 103.31L13.7222 106.755C10.2231 104.818 3.90438 104.109 3.34755 109.23ZM140.206 110.155C140.92 110.005 141.605 109.916 142.251 109.916L142.244 109.921C146.778 109.835 149.893 113.11 149.893 118.267V120.809H136.571C136.849 122.746 137.448 124.404 138.828 125.801C140.972 127.632 143.658 127.632 147.232 126.082L148.799 125.263V128.235C148.799 128.235 147.983 128.6 147.234 128.92C142.806 130.514 139.54 130.275 135.93 127.306C134.168 125.391 133.461 123.58 133.461 119.928C133.291 115.56 135.782 111.315 140.206 110.155ZM136.858 118.161H146.805C146.805 118.161 146.524 114.975 144.849 113.684C144.033 113.057 143.04 112.737 142.054 112.737C141.066 112.737 140.055 113.038 139.178 113.662C137.441 114.892 136.906 117.874 136.858 118.161ZM71.2098 109.272C71.0175 111.123 72.6047 112.697 76.1927 114.869H76.1928V114.873C81.5652 118.101 82.9846 120.167 82.5755 124.086C82.1047 128.281 77.0972 130.862 71.592 129.761C69.3815 129.31 67.9203 128.71 67.9203 128.71C67.9203 128.71 67.8313 126.082 68.0039 124.984C68.0533 124.984 68.891 125.391 69.8767 125.885C74.6896 128.338 79.352 126.963 79.352 123.089C79.352 121.213 77.8489 119.516 74.453 117.536C68.4154 114.007 66.7176 110.844 68.6077 106.649C69.8988 103.806 72.6489 102.409 76.9023 102.473C79.6748 102.513 81.6094 103.352 81.6094 103.352L81.5846 106.797C78.0854 104.859 71.7666 104.149 71.2098 109.272ZM157.335 112.394C158.304 110.866 159.785 110.089 161.697 110.089V110.089H163.225V113.363L162.042 113.018C160.28 112.522 158.456 113.556 157.397 115.622C156.625 117.127 156.559 117.773 156.559 123.282V129.308H153.252V110.459H156.561V113.598L157.335 112.394ZM49.8739 102.752V114.76H49.874V126.208H60.5692V129.35H46.5373V102.752H49.8739ZM124.286 125.67L127.036 118.504L127.034 118.506C128.537 114.267 129.979 110.481 129.979 110.481H133.244L129.461 120.012L125.747 129.35C125.397 129.35 125.046 129.352 124.695 129.355C123.993 129.36 123.29 129.366 122.588 129.35C120.161 123.153 117.754 116.762 115.54 110.479H118.956L121.642 118.464L124.286 125.67ZM58.9178 94.9616C58.5482 95.3317 58.0997 95.5042 57.5625 95.5042V95.4995C57.0253 95.4995 56.5767 95.3266 56.2316 94.9814C55.8671 94.6405 55.6945 94.1916 55.6945 93.6487C55.6945 93.1304 55.8621 92.6813 56.2316 92.3159C56.5964 91.9508 57.0451 91.7779 57.587 91.7779C58.1218 91.7779 58.5482 91.9508 58.9178 92.2962C59.2824 92.6417 59.4747 93.0909 59.4747 93.6289C59.4747 94.1668 59.2824 94.5962 58.9178 94.9616ZM57.5871 91.9754C57.0894 91.9754 56.6999 92.1237 56.3797 92.4444C56.0593 92.7653 55.9115 93.155 55.9115 93.6289C55.9115 94.1026 56.084 94.5124 56.4044 94.8331C56.7246 95.1588 57.1115 95.3068 57.5871 95.3068C58.0554 95.3068 58.445 95.1536 58.7702 94.8331C59.0906 94.5124 59.2631 94.1026 59.2631 93.6289C59.2631 93.155 59.0906 92.7652 58.7702 92.4444C58.4449 92.1237 58.0554 91.9754 57.5871 91.9754ZM57.3923 93.8017H57.1755L57.1338 93.8015V94.8133H56.7889V92.4023H57.4737C57.7794 92.4023 58.016 92.4688 58.1639 92.5922C58.2944 92.7009 58.356 92.8488 58.356 93.0461C58.356 93.2165 58.3164 93.3671 58.2083 93.478C58.0997 93.6065 57.9495 93.6705 57.7597 93.7149C57.9102 93.7571 58.0383 93.9077 58.1688 94.1666L58.4891 94.8133H58.0826L57.8236 94.2311C57.6955 93.9497 57.5453 93.8017 57.3923 93.8017ZM57.4763 92.6813H57.1755H57.1709V93.5006H57.5404C57.8605 93.5006 58.0333 93.3697 58.0333 93.0909C58.0333 92.938 58.0111 92.8539 57.9297 92.7897C57.846 92.7257 57.6931 92.6813 57.4763 92.6813ZM2.01423 91.7559C2.034 92.1237 2.05855 92.7479 2.05855 93.5869L2.04116 93.5916V99.8942H0.986476V90.4922H2.44765L5.32612 97.0984C5.54045 97.5723 5.69079 97.9598 5.75477 98.214H5.79931C5.99148 97.7008 6.14182 97.3131 6.25035 97.0541L9.19508 90.5146H10.5701V99.9167H9.47372V93.5918C9.47372 93.0959 9.49588 92.4741 9.55986 91.7583H9.53531C9.4294 92.1705 9.34315 92.4668 9.25667 92.664L6.05318 99.8944H5.5159L2.31242 92.7281C2.22616 92.5134 2.12014 92.1899 2.034 91.7559H2.01423ZM13.9195 93.6044H12.973V99.4602H13.9195V93.6044ZM13.939 91.26C13.811 91.3905 13.6435 91.4573 13.4462 91.4573H13.4438C13.2516 91.4573 13.099 91.3905 12.9508 91.26C12.8007 91.1315 12.7341 90.9812 12.7341 90.7664C12.7341 90.5739 12.8206 90.401 12.9508 90.2729C13.0793 90.142 13.2518 90.0752 13.4438 90.0752C13.6385 90.0752 13.8086 90.142 13.9417 90.2729C14.0919 90.401 14.1561 90.5739 14.1561 90.7664C14.1561 90.9638 14.0697 91.1315 13.939 91.26ZM20.6668 98.557V99.5887C20.1492 99.8895 19.5504 100.043 18.8188 100.063C17.8727 100.063 17.1011 99.737 16.4974 99.0956C15.9181 98.4712 15.6397 97.6542 15.6397 96.6821C15.6397 95.5888 15.96 94.6831 16.5812 94.0169C17.2071 93.3504 18.0447 93.0048 19.1193 93.0048C19.701 93.0048 20.216 93.1135 20.6669 93.3504V94.4486C20.1712 94.103 19.6343 93.93 19.075 93.93C18.3898 93.93 17.8303 94.1669 17.399 94.6406C16.9506 95.1342 16.7338 95.781 16.7338 96.5953C16.7338 97.3726 16.9506 97.9972 17.3571 98.4464C17.7662 98.9003 18.3259 99.1371 19.0156 99.1371C19.5922 99.1371 20.1492 98.9445 20.6668 98.557ZM23.8678 94.6405C23.5475 95.0702 23.375 95.6944 23.375 96.4669H23.3529V99.9117H22.2786V93.1994H23.3505V94.5741H23.3751C23.5254 94.0805 23.7817 93.6928 24.102 93.4389C24.4052 93.1992 24.75 93.0688 25.1369 93.0688C25.4153 93.0688 25.6298 93.091 25.7775 93.155V94.2755C25.5878 94.1249 25.3292 94.0583 24.9644 94.0583C24.5332 94.0583 24.1686 94.2533 23.8678 94.6405ZM31.9705 99.0728C31.3668 99.7192 30.5536 100.045 29.5432 100.045V100.042C28.5352 100.042 27.7391 99.7192 27.138 99.0728C26.5563 98.4485 26.2802 97.6094 26.2802 96.5976C26.2802 95.4353 26.6204 94.5297 27.266 93.8878C27.8696 93.3055 28.6828 93.0042 29.6933 93.0042C30.7038 93.0042 31.4778 93.3057 32.0346 93.9296C32.5965 94.5543 32.8723 95.3934 32.8723 96.4912C32.8723 97.5674 32.5716 98.4309 31.9705 99.0728ZM29.6269 93.9298C28.9618 93.9298 28.4244 94.1446 28.0153 94.5765C27.5866 95.0529 27.3722 95.7191 27.414 96.5334C27.414 97.3525 27.6088 97.9746 28.0153 98.4286C28.4244 98.88 28.9592 99.1195 29.6491 99.1195C30.359 99.1195 30.8963 98.8803 31.2608 98.4286C31.6256 97.9967 31.7982 97.3525 31.7982 96.5334C31.7982 95.6723 31.6058 95.0281 31.219 94.5765C30.8346 94.1446 30.3172 93.9298 29.6269 93.9298ZM38.203 98.083C38.203 98.646 37.986 99.0951 37.577 99.4602L37.5716 99.4627C37.1428 99.8502 36.5195 100.045 35.7234 100.087C35.1025 100.087 34.5406 99.9588 34.0722 99.6772V98.5177C34.5901 98.947 35.169 99.1593 35.8147 99.1593C36.6526 99.1593 37.0813 98.8358 37.0813 98.2092C37.0813 97.9548 36.995 97.7402 36.8029 97.5673C36.6083 97.3947 36.2437 97.1801 35.7063 96.9431C35.1447 96.7089 34.7402 96.4472 34.5036 96.1905C34.2228 95.8896 34.0751 95.4798 34.0751 94.9863C34.0751 94.4288 34.2893 93.955 34.7403 93.5895C35.1693 93.2222 35.7509 93.032 36.4408 93.032C36.9781 93.032 37.4488 93.1357 37.8824 93.3526V94.4286C37.4291 94.1052 36.9339 93.9524 36.3548 93.9524C35.9851 93.9524 35.7091 94.0363 35.4923 94.2088C35.2802 94.3815 35.1717 94.5963 35.1717 94.8751C35.1717 95.1788 35.2777 95.3933 35.4501 95.5659C35.6227 95.7165 35.943 95.9093 36.4607 96.1262C37.0448 96.3631 37.4487 96.5977 37.7101 96.8566C38.0303 97.1799 38.203 97.5895 38.203 98.083ZM40.2655 93.888C40.8692 93.3057 41.6823 93.0045 42.6929 93.0045L42.6977 93.0021C43.6834 93.0021 44.4575 93.3032 45.0387 93.9276C45.5958 94.552 45.8767 95.3909 45.8767 96.4891C45.8767 97.5651 45.5761 98.4288 44.9724 99.0703C44.3687 99.7171 43.58 100.043 42.5451 100.043C41.5346 100.043 40.7412 99.7194 40.1374 99.073C39.5584 98.4488 39.2798 97.6096 39.2798 96.5978C39.2798 95.4355 39.6248 94.5299 40.2655 93.888ZM44.2404 98.4287C44.6051 97.9969 44.7776 97.3527 44.7776 96.5336H44.7751C44.7751 95.6722 44.5828 95.028 44.2377 94.5543C43.851 94.1247 43.3161 93.9077 42.6509 93.9077C41.9831 93.9077 41.4456 94.1249 41.0392 94.5543C40.608 95.0037 40.3934 95.6698 40.3934 96.5336C40.3934 97.3527 40.5881 97.9747 40.9946 98.4287C41.4038 98.8802 41.9383 99.1196 42.6286 99.1196C43.3384 99.1196 43.8757 98.8804 44.2404 98.4287ZM48.7527 99.892H47.6807L47.6731 99.8952V94.1057H46.5392V93.2026H47.6731V92.102C47.6731 91.3466 47.912 90.7888 48.363 90.3595C48.7501 89.9944 49.2232 89.8216 49.8022 89.8216C50.1252 89.8216 50.384 89.8413 50.5763 89.9276V90.8973C50.384 90.7886 50.1252 90.7246 49.8714 90.7246C49.1171 90.7246 48.7526 91.1984 48.7526 92.1409V93.1773H50.3224V94.0807H48.7527V99.892ZM53.8463 100.043C52.6636 100.043 52.0843 99.3739 52.0843 98.0609L52.0819 98.0585V94.078H50.9237V93.1747H52.0819V91.5412C52.1673 91.5141 52.254 91.4871 52.3417 91.4597C52.6057 91.3774 52.879 91.2922 53.1564 91.1959V93.1748H54.8566V94.0781H53.1564V97.866C53.1564 98.3152 53.2426 98.6412 53.3954 98.8334C53.5459 99.0283 53.8022 99.115 54.1668 99.115C54.4254 99.115 54.6597 99.0458 54.8567 98.8977V99.8206C54.5979 99.9736 54.2752 100.043 53.8463 100.043ZM166.084 109.916C166.618 109.916 167.05 110.089 167.414 110.434L167.412 110.434C167.776 110.78 167.971 111.229 167.991 111.772C167.991 112.307 167.799 112.734 167.436 113.104C167.067 113.469 166.616 113.642 166.081 113.642C165.539 113.642 165.09 113.469 164.725 113.124C164.363 112.779 164.191 112.33 164.191 111.792C164.191 111.273 164.363 110.822 164.728 110.459C165.093 110.089 165.542 109.916 166.084 109.916ZM166.059 113.445C166.532 113.445 166.921 113.297 167.242 112.976C167.587 112.65 167.735 112.265 167.735 111.767C167.735 111.298 167.562 110.908 167.242 110.582C166.917 110.262 166.527 110.113 166.059 110.113C165.564 110.113 165.177 110.262 164.856 110.582C164.531 110.908 164.383 111.298 164.383 111.767C164.383 112.243 164.556 112.65 164.876 112.976C165.201 113.297 165.591 113.445 166.059 113.445ZM166.282 111.876C166.471 111.831 166.622 111.746 166.727 111.641C166.835 111.53 166.875 111.379 166.875 111.207C166.875 111.014 166.813 110.861 166.683 110.755C166.535 110.632 166.296 110.565 165.993 110.565H165.308V112.973H165.653V111.962H165.867C166.015 111.962 166.163 112.11 166.296 112.391L166.552 112.971H166.961L166.641 112.324C166.533 112.051 166.409 111.922 166.282 111.876ZM165.67 111.661H166.039L166.037 111.661C166.357 111.661 166.53 111.533 166.53 111.254C166.53 111.101 166.51 111.017 166.424 110.953C166.337 110.886 166.187 110.847 165.973 110.847H165.67V111.661ZM106.386 92.8985H106.085V90.4875H105.289V90.1864H107.181V90.4875H106.386V92.8985ZM107.891 90.5518C107.909 90.6601 107.909 90.8526 107.909 91.0872L107.891 91.0898V92.9011H107.588V90.1866H108.022L108.86 92.0819C108.875 92.1193 108.89 92.1527 108.903 92.1832C108.942 92.2734 108.97 92.3379 108.983 92.4026H109.008C109.033 92.3118 109.068 92.2277 109.096 92.1608C109.114 92.1184 109.128 92.0829 109.136 92.057L109.974 90.1864H110.361V92.8961H110.04V91.0699C110.04 90.9388 110.04 90.7665 110.06 90.5518C110.037 90.6125 110.021 90.6651 110.007 90.7109C109.995 90.7486 109.985 90.7817 109.974 90.8107L109.047 92.8985H108.899L107.975 90.8306C107.969 90.8124 107.962 90.7924 107.953 90.7701C107.932 90.714 107.905 90.6436 107.891 90.5518Z" fill="#231F1F"/>
</svg>
