<svg width="31" height="20" viewBox="0 0 31 20" fill="none" xmlns="http://www.w3.org/2000/svg">
<path d="M31 0H0V20H31V0Z" fill="#B22234"/>
<path d="M31 17.6923H0Z" fill="black"/>
<path fill-rule="evenodd" clip-rule="evenodd" d="M0 1.53846H31V3.07692H0V1.53846ZM31 6.15385H0V4.61538H31V6.15385ZM0 7.69231H31V9.23077H0V7.69231ZM31 12.3077H0V10.7692H31V12.3077ZM0 13.8462H31V15.3846H0V13.8462ZM0 16.9231H31V18.4615H0V16.9231Z" fill="white"/>
<path d="M12.4 0H0V10.7692H12.4V0Z" fill="#3C3B6E"/>
<path d="M1.03333 0.461538L1.32842 1.57478L0.555879 0.886759H1.51079L0.73825 1.57478L1.03333 0.461538Z" fill="white"/>
</svg>
