<svg width="60" height="14" viewBox="0 0 60 14" fill="none" xmlns="http://www.w3.org/2000/svg">
<path d="M20.956 0.0243435C17.8814 0.360864 15.4646 2.62855 14.9674 5.63811C14.7533 6.9383 14.956 8.40293 15.5181 9.58075C16.4665 11.5731 18.3097 12.9727 20.4971 13.359C21.0669 13.4584 22.3288 13.4469 22.9139 13.336C24.0879 13.1142 25.0936 12.6247 25.9885 11.8446C26.3518 11.5234 26.9024 10.9115 26.9024 10.8236C26.9024 10.7968 26.5315 10.4909 26.0802 10.1429L25.2581 9.51574L24.9598 9.83314C23.2007 11.7108 20.2676 11.7949 18.5391 10.0129C17.9426 9.39719 17.5181 8.55972 17.3345 7.63811C17.2466 7.18304 17.2466 6.24232 17.3345 5.78343C17.5296 4.80446 17.9349 4.01287 18.585 3.33218C19.5028 2.37616 20.7265 1.94021 22.172 2.04729C22.9062 2.10465 23.3996 2.23849 24.0267 2.55207L24.3976 2.73562V3.84461V4.9536H25.4684H26.5391L26.5315 3.33601L26.52 1.72224L26.107 1.41249C24.9751 0.559716 23.4531 0.0625839 21.7973 0.00522232C21.5143 -0.00624943 21.1357 0.00139904 20.956 0.0243435Z" fill="black"/>
<path d="M0 1.39723V2.46798L1.13576 2.47563L2.27534 2.4871L4.2065 7.87907L6.13767 13.271L7.17017 13.2825L8.20268 13.2902L9.13576 10.7969C9.64819 9.424 10.5583 6.98806 11.1549 5.38194L12.2447 2.46798H13.2925H14.3403V1.39723V0.326488H12.4704H10.6042L10.3901 0.945991C8.21415 7.26722 7.33843 9.78729 7.32314 9.80259C7.31167 9.81406 7.28872 9.80641 7.2696 9.78729C7.2543 9.76817 6.52008 7.65345 5.64054 5.08748C4.761 2.52152 4.03442 0.399145 4.02677 0.372376C4.01147 0.33796 3.5717 0.326488 2.00382 0.326488H0V1.39723Z" fill="black"/>
<path d="M40.7075 0.540669C39.3882 0.773939 38.2295 1.56935 37.4608 2.76247C37.3767 2.89631 37.2964 3.00338 37.2849 3.00338C37.262 3.00338 37.2352 2.58273 37.1434 0.965143L37.1205 0.517724H35.1358H33.1549V1.49287V2.46801L34.218 2.47566L35.2773 2.48713V6.82748V11.1678L34.218 11.1793L33.1549 11.1869V12.2194V13.252H38.0689H42.9828V12.2386V11.2252H40.2486H37.5105L37.522 8.42212L37.5335 5.62289L37.6406 5.27872C38.1568 3.63436 39.3805 2.54832 40.8452 2.44124L41.1779 2.4183L41.1549 3.40109L41.1358 4.38006H42.2142H43.2888V2.42977V0.479484L42.153 0.483308C41.3538 0.487132 40.9216 0.502428 40.7075 0.540669Z" fill="black"/>
<path d="M45.7362 1.58841V2.65915H46.7113H47.6827L47.698 6.07024C47.7133 9.77961 47.7056 9.64195 47.9351 10.4412C48.0536 10.8465 48.3404 11.466 48.5622 11.7949C49.067 12.5368 49.8356 13.0989 50.7266 13.3781C51.5871 13.6458 52.6081 13.6878 53.4265 13.4813C53.8242 13.3819 54.5049 13.053 54.8452 12.793C55.22 12.51 55.6368 12.0435 55.9312 11.5846C56.1416 11.2595 56.1989 11.1945 56.2219 11.2519C56.2486 11.3169 56.5201 13.0989 56.5201 13.206C56.5201 13.2404 56.9064 13.2519 58.2601 13.2519H60.0001V12.2194V11.1869L59.1511 11.1792L58.2984 11.1678L58.2716 10.4412C58.2601 10.0397 58.2372 7.64577 58.2219 5.11422L58.1951 0.517659H55.9618H53.7286V1.58841V2.65915H54.8375H55.9465V5.42779C55.9465 7.68783 55.9351 8.2538 55.8892 8.51384C55.6788 9.7146 54.937 10.7318 53.9006 11.2481C53.4226 11.4813 53.0555 11.5693 52.524 11.5693C51.1779 11.5693 50.3863 10.881 50.046 9.40868C49.9657 9.07216 49.9657 8.96126 49.9542 4.78917L49.9389 0.517659H47.8395H45.7362V1.58841Z" fill="black"/>
<path d="M28.6807 12.2193V13.3282H29.7897H30.8986V12.2193V11.1103H29.7897H28.6807V12.2193Z" fill="black"/>
</svg>
