<svg width="65" height="28" viewBox="0 0 65 28" fill="none" xmlns="http://www.w3.org/2000/svg">
<path d="M42.4115 0.803118C42.2715 0.806149 41.701 0.815237 41.1428 0.824326C36.7615 0.894011 32.637 1.06974 31.3237 1.24244C30.3856 1.36514 29.5691 1.68176 28.8863 2.1847C28.5402 2.44072 28.1681 2.79521 27.9666 3.06486C27.5084 3.67385 27.1101 4.64035 26.8502 5.77803C26.7333 6.29007 26.6918 6.58396 26.5949 7.56561C26.4811 8.73662 26.4104 9.78341 26.355 11.0877C26.3304 11.6876 26.3196 15.2173 26.3396 16.149C26.3734 17.7169 26.4642 19.1318 26.6333 20.7755C26.6964 21.383 26.7179 21.5405 26.781 21.8586C26.9563 22.7403 27.207 23.5144 27.5268 24.1673C27.8067 24.7385 28.125 25.1505 28.5772 25.5232C29.2723 26.0973 30.0427 26.4336 31.0961 26.6245C31.3637 26.673 32.2879 26.7942 32.6386 26.8275C33.7135 26.9305 36.4678 27.035 39.9817 27.1077C44.5721 27.2017 47.005 27.2047 50.8849 27.1229C54.974 27.0365 58.5156 26.8714 59.6521 26.7139C60.89 26.5427 61.8773 26.0594 62.6908 25.2232C63.0768 24.8263 63.3705 24.3431 63.6397 23.6674C63.9088 22.9887 64.1548 22.0586 64.2394 21.4042C64.3624 20.4589 64.5024 18.7077 64.5747 17.2079C64.6023 16.6262 64.6023 11.318 64.5747 10.7469C64.5009 9.23654 64.3855 7.77769 64.2548 6.6794C64.1441 5.74168 63.7981 4.55703 63.4059 3.7708C63.1829 3.3239 62.9815 3.03607 62.677 2.72552C62.2756 2.3165 61.8589 2.01049 61.3498 1.75599C60.5994 1.38029 59.9012 1.2288 58.4895 1.13488C56.2627 0.98945 54.0713 0.909161 49.9391 0.822811C49.2563 0.807663 43.0604 0.792513 42.4115 0.803118ZM37.5673 6.42944V7.64135H36.1602H34.7531V14.8977V22.154H33.4613H32.1695V14.8977V7.64135H30.8239H29.4783V6.43701V5.23267L33.5197 5.22813C35.7419 5.22661 37.5612 5.22358 37.5642 5.22055C37.5658 5.21904 37.5673 5.76288 37.5673 6.42944ZM48.2091 7.96251L48.2106 10.709L48.3137 10.5954C48.938 9.90612 49.5408 9.50922 50.1775 9.36985C50.7034 9.25471 51.2801 9.3441 51.6692 9.60011C52.3858 10.0728 52.7272 11.0271 52.8072 12.7844C52.8272 13.2268 52.8272 18.5486 52.8072 19.0258C52.7672 19.9741 52.6657 20.6437 52.5027 21.0467C52.1921 21.8132 51.6323 22.2404 50.8465 22.307C50.2098 22.3601 49.5639 22.1343 48.9626 21.6496C48.7812 21.5026 48.5028 21.236 48.3475 21.0588L48.2168 20.9103L48.2122 21.5329L48.2091 22.154H47.048H45.887V13.6858V5.21752H47.048H48.2091V7.96251ZM58.5279 9.385C59.343 9.51225 60.0135 9.89097 60.5486 10.5257C61.0238 11.0893 61.2883 11.8512 61.3806 12.9253C61.3991 13.151 61.4037 13.4828 61.4037 14.7099V16.2157H59.0954H56.7871L56.7948 17.5594C56.8009 18.8364 56.8025 18.9152 56.8332 19.1015C56.9132 19.5878 57.0608 19.8787 57.313 20.0514C57.5975 20.2453 58.0835 20.2771 58.3957 20.1211C58.631 20.0029 58.8032 19.7726 58.9062 19.4348L58.9478 19.2985L58.9554 18.5062L58.9616 17.7154H60.1826H61.4037V18.1123C61.4037 18.7743 61.3529 19.4575 61.2806 19.7832C61.1392 20.421 60.867 20.9224 60.4056 21.386C59.9243 21.8708 59.3553 22.151 58.6048 22.2707C58.3972 22.304 58.3172 22.3086 57.9743 22.3086C57.6421 22.3101 57.5468 22.3055 57.3515 22.2752C56.6241 22.1677 56.0582 21.9117 55.5676 21.4678C54.8648 20.8331 54.4911 19.9953 54.3727 18.791C54.3435 18.4956 54.3435 13.2752 54.3727 12.9662C54.4619 12.0224 54.6895 11.2786 55.0509 10.7651C55.5845 10.0046 56.3673 9.52134 57.29 9.385C57.5668 9.3441 57.6268 9.34106 58.0051 9.34712C58.2311 9.35015 58.3788 9.36076 58.5279 9.385ZM39.6126 14.622C39.6126 19.6772 39.6126 19.7272 39.6434 19.8438C39.7141 20.115 39.8464 20.218 40.1293 20.2195C40.5261 20.2195 40.8721 19.9635 41.4027 19.2773L41.5349 19.1061V14.3129V9.51982H42.7575H43.9801V15.8369V22.154H42.7575H41.5349V21.4678L41.5334 20.7831L41.3765 20.9497C40.6291 21.7405 40.054 22.1343 39.4281 22.2828C39.2712 22.3207 39.222 22.3252 38.9821 22.3252C38.7791 22.3267 38.6807 22.3207 38.5854 22.2995C37.8318 22.1404 37.4258 21.6481 37.2613 20.6922C37.1705 20.1695 37.1767 20.5573 37.1721 14.7947L37.1675 9.51982H38.39H39.6126V14.622Z" fill="black"/>
<path d="M49.2594 11.4528C48.9718 11.4877 48.6319 11.6513 48.3474 11.8921L48.209 12.0088V15.8309V19.6529L48.3597 19.7802C48.8057 20.1589 49.3593 20.3119 49.7438 20.1635C50.0806 20.0332 50.2621 19.6984 50.3421 19.0561C50.3682 18.8425 50.3698 18.6455 50.3698 15.7763C50.3698 12.9132 50.3682 12.7102 50.3421 12.5042C50.3267 12.383 50.2959 12.2178 50.2759 12.1345C50.1421 11.6104 49.8084 11.3862 49.2594 11.4528Z" fill="black"/>
<path d="M57.6867 11.4433C57.1177 11.4918 56.8686 11.8162 56.8055 12.5848C56.7979 12.6924 56.7902 13.1275 56.7902 13.5504V14.322H57.8266C58.3956 14.322 58.8847 14.3175 58.9123 14.3129L58.9615 14.3023L58.9539 13.4291C58.9492 12.7121 58.9431 12.5257 58.9216 12.3892C58.8508 11.9345 58.7093 11.6768 58.4587 11.5509C58.2757 11.4569 57.9881 11.4175 57.6867 11.4433Z" fill="black"/>
<path d="M0.397949 5.113C0.397949 5.12208 0.470227 5.3478 0.557883 5.61594C0.994625 6.94299 1.86811 9.69707 3.11067 13.6691L3.59662 15.2189V18.6865V22.1541H4.8807H6.16479V18.6955V15.237L7.76412 10.194C8.64376 7.41867 9.36807 5.13723 9.37269 5.12208C9.38038 5.09785 9.31117 5.09633 8.02402 5.09936L6.66766 5.1039L5.78187 8.39426C5.29438 10.203 4.89301 11.6876 4.88839 11.6907C4.88378 11.6952 4.47933 10.2121 3.98877 8.39729L3.09683 5.09633H1.74816C0.79317 5.09633 0.397949 5.10088 0.397949 5.113Z" fill="black"/>
<path d="M12.0392 9.30926C11.0643 9.35622 10.3107 9.70465 9.75403 10.3651C9.57718 10.5742 9.48799 10.7045 9.37573 10.9135C9.11122 11.4028 8.94821 12.0482 8.87901 12.8647C8.84518 13.2631 8.84518 18.4471 8.87901 18.8516C8.95283 19.7666 9.14813 20.4104 9.50337 20.927C10.3215 22.1132 11.8701 22.6449 13.3018 22.2313C13.9477 22.0435 14.4967 21.6996 14.9165 21.2194C15.4209 20.6407 15.6654 19.9605 15.7531 18.8743C15.7869 18.4668 15.7869 13.2404 15.7531 12.8526C15.6423 11.5513 15.2856 10.6924 14.6074 10.094C13.963 9.52589 13.0865 9.25776 12.0392 9.30926ZM12.679 11.5316C13.1618 11.7058 13.3987 12.2572 13.3464 13.0874C13.3295 13.3571 13.3279 18.3199 13.3448 18.5941C13.3879 19.2758 13.2264 19.8045 12.9004 20.0544C12.5805 20.2983 12.0454 20.2953 11.7271 20.0499C11.4026 19.7984 11.2442 19.2758 11.2872 18.5941C11.3026 18.3274 11.3026 13.3465 11.2872 13.0798C11.2365 12.2739 11.4718 11.7104 11.9285 11.5392C12.0761 11.4847 12.1469 11.4756 12.3622 11.4801C12.5298 11.4847 12.5713 11.4922 12.679 11.5316Z" fill="black"/>
<path d="M17.5647 14.7265C17.5693 20.5649 17.5631 20.1695 17.6539 20.6922C17.8184 21.6481 18.2244 22.1404 18.9779 22.2995C19.0733 22.3207 19.1717 22.3267 19.3747 22.3252C19.6146 22.3252 19.6638 22.3207 19.8207 22.2828C20.4466 22.1343 21.0217 21.7405 21.7691 20.9497L21.926 20.7831L21.9275 21.4678V22.154H23.1501H24.3727V15.7688V9.38347H23.1501H21.9275V14.2448V19.1061L21.7953 19.2772C21.3601 19.8408 21.0817 20.0832 20.7449 20.1922C20.6896 20.2104 20.6142 20.2195 20.5219 20.2195C20.239 20.218 20.1067 20.115 20.036 19.8438C20.0052 19.7272 20.0052 19.6772 20.0052 14.5538V9.38347H18.7826H17.5601L17.5647 14.7265Z" fill="black"/>
</svg>
